SplineFontDB: 2.0
FontName: Umpush-LightOblique
FullName: Umpush Light Oblique
FamilyName: Umpush
Weight: Light
Copyright: Copyright (c) 2003 NECTEC. All rights reserved.\nCopyright (c) 2007 Widhaya Trisarnwadhana. All rights reserved.\nModified under GNU General Public License by TLWG.
Version: 0.9.7: 2007-04-13
ItalicAngle: -10
UnderlinePosition: -85
UnderlineWidth: 10
Ascent: 1638
Descent: 410
Order2: 1
NeedsXUIDChange: 1
FSType: 0
OS2Version: 0
OS2_WeightWidthSlopeOnly: 0
OS2_UseTypoMetrics: 0
CreationTime: 1176605901
ModificationTime: 1199604359
PfmFamily: 33
TTFWeight: 300
TTFWidth: 5
LineGap: 0
VLineGap: 0
Panose: 2 11 3 4 2 2 2 2 2 4
OS2TypoAscent: 0
OS2TypoAOffset: 1
OS2TypoDescent: 0
OS2TypoDOffset: 1
OS2TypoLinegap: 0
OS2WinAscent: 0
OS2WinAOffset: 1
OS2WinDescent: 0
OS2WinDOffset: 1
HheadAscent: 0
HheadAOffset: 1
HheadDescent: 0
HheadDOffset: 1
OS2SubXSize: -8690
OS2SubYSize: 13660
OS2SubXOff: 0
OS2SubYOff: 0
OS2SupXSize: 13582
OS2SupYSize: 15536
OS2SupXOff: -9278
OS2SupYOff: 13990
OS2StrikeYSize: 6888
OS2StrikeYPos: 45
OS2Vendor: 'PfEd'
Lookup: 6 0 0 "'ccmp' Glyph Composition/Decomposition in Thai lookup 0"  {"'ccmp' Glyph Composition/Decomposition in Thai lookup 0"  } ['ccmp' ('thai' <'KUY ' 'PAL ' 'THA ' 'dflt' > ) ]
Lookup: 6 0 0 "'ccmp' Glyph Composition/Decomposition in Thai lookup 1"  {"'ccmp' Glyph Composition/Decomposition in Thai lookup 1"  } ['ccmp' ('thai' <'KUY ' 'PAL ' 'THA ' 'dflt' > ) ]
Lookup: 5 0 0 "Required Feature in Thai lookup 2"  {"Required Feature in Thai lookup 2"  } [' RQD' ('thai' <'PAL ' > ) ]
Lookup: 1 0 0 "Single Substitution lookup 3"  {"Single Substitution lookup 3"  } []
Lookup: 1 0 0 "Single Substitution lookup 4"  {"Single Substitution lookup 4"  } []
Lookup: 2 0 0 "Multiple Substitution lookup 5"  {"Multiple Substitution lookup 5"  } []
Lookup: 2 0 0 "Multiple Substitution lookup 6"  {"Multiple Substitution lookup 6"  } []
Lookup: 1 0 0 "Single Substitution lookup 7"  {"Single Substitution lookup 7"  } []

StartChar: .notdef
Encoding: 65536 -1 0
Width: 1533
VWidth: 2045
Flags: W
HStem: 0 32<287 1247> 1248 32<287 1247>
VStem: 256 31<32 1248> 1247 31<32 1248>
Fore
256 0 m 1,0,-1
 481.698 1280 l 1,1,-1
 1503.7 1280 l 1,2,-1
 1278 0 l 1,3,-1
 256 0 l 1,0,-1
292.643 32 m 1,4,-1
 1252.64 32 l 1,5,-1
 1467.06 1248 l 1,6,-1
 507.056 1248 l 1,7,-1
 292.643 32 l 1,4,-1
EndSplineSet
EndChar
StartChar: uni0E4D.high
Encoding: 63262 63262 2
Width: 0
VWidth: 2558
Flags: W
HStem: 1725 72<-306.2 -223> 1953 74<-310.1 -219.1>
VStem: -412 69<1833.7 1915.6> -183 70<1835 1919.5>
AnchorPoint: "AboveMark" 44.957 1739.3 mark 0
Fore
95.415 2027 m 0,0,1
 157.415 2027 157.415 2027 193.48 1982 c 0,2,3
 228.722 1938 228.722 1938 217.437 1874 c 0,4,5
 206.857 1814 206.857 1814 155.099 1770 c 0,6,7
 103.164 1725 103.164 1725 42.1641 1725 c 128,-1,8
 -18.8359 1725 -18.8359 1725 -55.7539 1768 c 128,-1,9
 -92.6719 1811 -92.6719 1811 -81.5635 1874 c 0,10,11
 -70.6309 1936 -70.6309 1936 -17.5195 1982 c 0,12,13
 34.415 2027 34.415 2027 95.415 2027 c 0,0,1
54.8594 1797 m 0,14,15
 84.8594 1797 84.8594 1797 113.503 1820.5 c 128,-1,16
 142.146 1844 142.146 1844 147.437 1874 c 0,17,18
 153.608 1909 153.608 1909 134.487 1931 c 128,-1,19
 115.366 1953 115.366 1953 82.3662 1953 c 0,20,21
 45.3662 1953 45.3662 1953 20.3115 1930 c 0,22,23
 -6.9209 1906 -6.9209 1906 -12.5635 1874 c 0,24,25
 -18.0293 1843 -18.0293 1843 1.91504 1820 c 0,26,27
 20.8594 1797 20.8594 1797 54.8594 1797 c 0,14,15
EndSplineSet
EndChar
StartChar: exclam
Encoding: 33 33 5
Width: 681
VWidth: 2045
Flags: W
HStem: 0 193<206 369> 1430 20G<213 362>
VStem: 206 163<0 193> 213 149<893.054 1450>
Fore
388.975 998 m 1,0,-1
 468.674 1450 l 1,1,-1
 617.674 1450 l 1,2,-1
 537.975 998 l 1,3,-1
 390.536 366 l 1,4,-1
 314.536 366 l 1,5,-1
 388.975 998 l 1,0,-1
240.031 193 m 1,6,-1
 403.031 193 l 1,7,-1
 369 0 l 1,8,-1
 206 0 l 1,9,-1
 240.031 193 l 1,6,-1
EndSplineSet
EndChar
StartChar: quotedbl
Encoding: 34 34 6
Width: 568
VWidth: 2045
Flags: W
HStem: 1430 20G<91 225 354 488>
VStem: 91 134<1152.96 1450> 354 134<1152.96 1450>
Fore
283.806 946 m 1,0,-1
 305.59 1217 l 1,1,-1
 346.674 1450 l 1,2,-1
 480.674 1450 l 1,3,-1
 439.59 1217 l 1,4,-1
 369.806 946 l 1,5,-1
 283.806 946 l 1,0,-1
546.806 946 m 1,6,-1
 568.59 1217 l 1,7,-1
 609.674 1450 l 1,8,-1
 743.674 1450 l 1,9,-1
 702.59 1217 l 1,10,-1
 631.806 946 l 1,11,-1
 546.806 946 l 1,6,-1
EndSplineSet
EndChar
StartChar: numbersign
Encoding: 35 35 7
Width: 1137
VWidth: 2045
Flags: W
HStem: -9 21G<87 213 599 724> 385 127<21 166 323 677 826 1113> 949 127<21 285 442 797 945 1113> 1450 20G<395 521 906 1034>
Fore
85.4131 -9 m 1,0,-1
 233.886 385 l 1,1,-1
 88.8857 385 l 1,2,-1
 111.279 512 l 1,3,-1
 285.279 512 l 1,4,-1
 452.334 949 l 1,5,-1
 188.334 949 l 1,6,-1
 210.728 1076 l 1,7,-1
 505.728 1076 l 1,8,-1
 654.201 1470 l 1,9,-1
 780.201 1470 l 1,10,-1
 631.728 1076 l 1,11,-1
 1015.73 1076 l 1,12,-1
 1165.2 1470 l 1,13,-1
 1293.2 1470 l 1,14,-1
 1134.73 1076 l 1,15,-1
 1302.73 1076 l 1,16,-1
 1280.33 949 l 1,17,-1
 1083.33 949 l 1,18,-1
 916.279 512 l 1,19,-1
 1203.28 512 l 1,20,-1
 1180.89 385 l 1,21,-1
 870.886 385 l 1,22,-1
 722.413 -9 l 1,23,-1
 597.413 -9 l 1,24,-1
 744.886 385 l 1,25,-1
 360.886 385 l 1,26,-1
 211.413 -9 l 1,27,-1
 85.4131 -9 l 1,0,-1
413.279 512 m 1,28,-1
 797.279 512 l 1,29,-1
 964.334 949 l 1,30,-1
 579.334 949 l 1,31,-1
 413.279 512 l 1,28,-1
EndSplineSet
EndChar
StartChar: dollar
Encoding: 36 36 8
Width: 1137
VWidth: 2045
Flags: W
VStem: 76 125<255.8 417> 107 125<882.8 1172.7> 512 90<-118 -18 85 659 787 1307 1408 1488> 886 120<1050 1169.6> 910 130<260.9 500.1>
Fore
616.988 85 m 0,0,1
 806.749 112 806.749 112 883.441 201 c 128,-1,2
 960.135 290 960.135 290 978.238 387 c 0,3,4
 995.579 474 995.579 474 942.862 546.5 c 128,-1,5
 890.146 619 890.146 619 718.199 659 c 0,6,-1
 616.988 85 l 0,0,1
149.528 417 m 1,7,-1
 274.528 417 l 0,8,9
 252.664 293 252.664 293 327.414 189.5 c 128,-1,10
 402.164 86 402.164 86 526.988 85 c 1,11,-1
 632.079 681 l 17,12,13
 441.721 713 441.721 713 351.679 803.5 c 128,-1,14
 261.637 894 261.637 894 288.617 1030 c 0,15,16
 315.242 1181 315.242 1181 447.844 1295 c 128,-1,17
 580.444 1409 580.444 1409 760.269 1408 c 1,18,-1
 774.375 1488 l 1,19,-1
 864.375 1488 l 1,20,-1
 850.269 1408 l 0,21,22
 1040.74 1405 1040.74 1405 1127.49 1293 c 128,-1,23
 1214.24 1181 1214.24 1181 1191.14 1050 c 0,24,-1
 1071.14 1050 l 0,25,26
 1082.37 1142 1082.37 1142 1013.97 1230.5 c 152,-1,27
 945.575 1319 945.575 1319 832.459 1307 c 0,28,-1
 737.243 767 l 0,29,30
 878.598 752 878.598 752 1008.64 661.5 c 128,-1,31
 1138.68 571 1138.68 571 1111.59 406 c 0,32,33
 1082.03 227 1082.03 227 939.69 106 c 0,34,35
 799.531 -14 799.531 -14 599.355 -15 c 0,36,-1
 581.193 -118 l 1,37,-1
 491.193 -118 l 1,38,-1
 508.826 -18 l 1,39,40
 311 0 311 0 213.249 112 c 136,-1,41
 115.497 224 115.497 224 149.528 417 c 1,7,-1
650.77 787 m 0,42,-1
 742.636 1308 l 0,43,44
 622.049 1299 622.049 1299 526.295 1221 c 128,-1,45
 430.542 1143 430.542 1143 416.085 1044 c 0,46,47
 400.221 920 400.221 920 472.787 866.5 c 128,-1,48
 545.354 813 545.354 813 650.77 787 c 0,42,-1
EndSplineSet
EndChar
StartChar: percent
Encoding: 37 37 9
Width: 1818
VWidth: 2045
Flags: W
HStem: -48 85<1267.5 1489.8> 640 82<1267.5 1489.8> 719 85<320.5 542.8> 1408 82<320.5 542.8>
VStem: 119 101<968.2 1238.6> 640 104<968.2 1238.6> 1064 102<201.8 472.2> 1587 105<201.8 472.2>
Fore
1123.42 337 m 256,0,1
 1141.76 441 1141.76 441 1200.45 530 c 128,-1,2
 1259.15 619 1259.15 619 1339.73 670.5 c 128,-1,3
 1420.31 722 1420.31 722 1505.31 722 c 256,4,5
 1591.31 722 1591.31 722 1653.73 670.5 c 128,-1,6
 1716.15 619 1716.15 619 1742.95 530 c 128,-1,7
 1769.76 441 1769.76 441 1751.42 337 c 256,8,9
 1733.08 233 1733.08 233 1674.8 143.5 c 128,-1,10
 1616.52 54 1616.52 54 1536.03 3 c 128,-1,11
 1455.54 -48 1455.54 -48 1369.54 -48 c 256,12,13
 1284.54 -48 1284.54 -48 1222.03 3 c 128,-1,14
 1159.52 54 1159.52 54 1132.3 143.5 c 128,-1,15
 1105.08 233 1105.08 233 1123.42 337 c 256,0,1
1225.6 338 m 256,16,17
 1203.56 213 1203.56 213 1249.95 124.5 c 128,-1,18
 1296.35 36 1296.35 36 1383.52 37 c 256,19,20
 1470.52 37 1470.52 37 1547.54 125 c 128,-1,21
 1624.56 213 1624.56 213 1646.6 338 c 256,22,23
 1668.82 464 1668.82 464 1622.83 552 c 128,-1,24
 1576.85 640 1576.85 640 1489.85 640 c 256,25,26
 1402.85 640 1402.85 640 1325.33 552 c 128,-1,27
 1247.82 464 1247.82 464 1225.6 338 c 256,16,17
314.018 1106 m 256,28,29
 332.003 1208 332.003 1208 388.784 1297.5 c 128,-1,30
 445.565 1387 445.565 1387 527.059 1438 c 128,-1,31
 608.551 1489 608.551 1489 693.728 1490 c 256,32,33
 779.728 1490 779.728 1490 843.146 1438.5 c 128,-1,34
 906.565 1387 906.565 1387 931.784 1297.5 c 128,-1,35
 957.003 1208 957.003 1208 939.018 1106 c 256,36,37
 920.327 1000 920.327 1000 863.722 911.5 c 128,-1,38
 807.117 823 807.117 823 725.448 771 c 128,-1,39
 643.779 719 643.779 719 557.779 719 c 256,40,41
 472.779 719 472.779 719 409.448 771 c 128,-1,42
 346.117 823 346.117 823 320.722 911.5 c 128,-1,43
 295.327 1000 295.327 1000 314.018 1106 c 256,28,29
415.018 1106 m 256,44,45
 393.153 982 393.153 982 438.96 893 c 128,-1,46
 484.767 804 484.767 804 571.767 804 c 256,47,48
 658.767 804 658.767 804 735.96 893 c 128,-1,49
 813.153 982 813.153 982 835.018 1106 c 256,50,51
 857.234 1232 857.234 1232 811.252 1320 c 128,-1,52
 765.269 1408 765.269 1408 678.269 1408 c 256,53,54
 591.269 1408 591.269 1408 514.252 1320 c 128,-1,55
 437.234 1232 437.234 1232 415.018 1106 c 256,44,45
1130.19 347 m 0,56,-1
1509.73 1490 m 1,57,-1
 1634.73 1490 l 1,58,-1
 612.413 -9 l 1,59,-1
 486.413 -9 l 1,60,-1
 1509.73 1490 l 1,57,-1
EndSplineSet
EndChar
StartChar: ampersand
Encoding: 38 38 10
Width: 1364
VWidth: 2045
Flags: W
HStem: -24 119<352.2 677.2> 1381 110<473.6 751.8>
VStem: 271 131<1071.8 1261.6>
Fore
584.291 841 m 1,0,1
 549.107 891 549.107 891 503.948 978 c 128,-1,2
 458.788 1065 458.788 1065 476.068 1163 c 0,3,4
 499.52 1296 499.52 1296 620.623 1393 c 0,5,6
 741.903 1491 741.903 1491 899.903 1491 c 0,7,8
 1043.9 1491 1043.9 1491 1125.27 1399.5 c 128,-1,9
 1206.64 1308 1206.64 1308 1183.71 1178 c 0,10,11
 1148.27 977 1148.27 977 780.709 798 c 1,12,-1
 1042.77 373 l 1,13,14
 1151.69 520 1151.69 520 1205.49 689 c 1,15,-1
 1334.44 649 l 1,16,17
 1263.41 456 1263.41 456 1114.43 269 c 1,18,19
 1185.04 159 1185.04 159 1326.87 56 c 1,20,-1
 1207.24 -27 l 1,21,22
 1078.99 51 1078.99 51 1008.09 165 c 1,23,24
 812.769 -24 812.769 -24 547.769 -24 c 0,25,26
 321.769 -24 321.769 -24 222.071 119.5 c 128,-1,27
 122.374 263 122.374 263 158.884 402 c 0,28,29
 236.25 716 236.25 716 584.291 841 c 1,0,1
725.165 897 m 1,30,31
 784.221 920 784.221 920 906.298 997 c 128,-1,32
 1028.38 1074 1028.38 1074 1052.01 1174 c 0,33,34
 1072.64 1257 1072.64 1257 1019.58 1319 c 128,-1,35
 966.508 1381 966.508 1381 870.508 1381 c 0,36,37
 752.508 1381 752.508 1381 686.841 1312 c 128,-1,38
 621.175 1243 621.175 1243 610.242 1181 c 0,39,40
 595.431 1097 595.431 1097 646.854 1020 c 2,41,-1
 725.165 897 l 1,30,31
935.903 266 m 1,42,-1
 656.306 739 l 1,43,44
 478.079 681 478.079 681 396.387 583.5 c 128,-1,45
 314.695 486 314.695 486 302.528 417 c 0,46,47
 281.722 299 281.722 299 348.736 197 c 128,-1,48
 415.751 95 415.751 95 571.751 95 c 0,49,50
 665.751 95 665.751 95 771.155 145.5 c 128,-1,51
 876.561 196 876.561 196 935.903 266 c 1,42,-1
EndSplineSet
EndChar
StartChar: quotesingle
Encoding: 39 39 11
Width: 454
VWidth: 2045
Flags: W
HStem: 1445 20G<136 296>
VStem: 136 160<1170.49 1465>
Fore
332.806 946 m 1,0,-1
 351.119 1220 l 1,1,-1
 394.319 1465 l 1,2,-1
 554.319 1465 l 1,3,-1
 511.119 1220 l 1,4,-1
 428.806 946 l 1,5,-1
 332.806 946 l 1,0,-1
EndSplineSet
EndChar
StartChar: parenleft
Encoding: 40 40 12
Width: 681
VWidth: 2045
Flags: W
VStem: 125 131<268.1 905.4>
Fore
403.18 -430 m 1,0,1
 245.143 -175 245.143 -175 214.077 77 c 128,-1,2
 183.012 329 183.012 329 218.806 532 c 0,3,4
 271.173 846 271.173 846 429.813 1093.5 c 128,-1,5
 588.454 1341 588.454 1341 741.551 1489 c 1,6,-1
 817.551 1489 l 1,7,8
 662.752 1320 662.752 1320 530.346 1071 c 128,-1,9
 397.94 822 397.94 822 351.922 544 c 0,10,11
 296.734 214 296.734 214 346.974 -20 c 128,-1,12
 397.213 -254 397.213 -254 479.18 -430 c 1,13,-1
 403.18 -430 l 1,0,1
EndSplineSet
EndChar
StartChar: parenright
Encoding: 41 41 13
Width: 681
VWidth: 2045
Flags: W
VStem: 450 132<268.1 905.4>
Fore
151.18 -430 m 1,0,1
 399.143 -175 399.143 -175 518.077 77 c 128,-1,2
 637.012 329 637.012 329 675.806 532 c 0,3,4
 733.173 846 733.173 846 661.813 1093.5 c 128,-1,5
 590.454 1341 590.454 1341 489.551 1489 c 1,6,-1
 414.551 1489 l 1,7,8
 506.752 1320 506.752 1320 552.346 1071 c 128,-1,9
 597.94 822 597.94 822 545.922 544 c 0,10,11
 482.734 214 482.734 214 351.474 -20 c 128,-1,12
 220.213 -254 220.213 -254 76.1797 -430 c 1,13,-1
 151.18 -430 l 1,0,1
EndSplineSet
EndChar
StartChar: asterisk
Encoding: 42 42 14
Width: 795
VWidth: 2045
Flags: W
HStem: 873 616<335 538>
VStem: 335 116<1352.94 1489>
Fore
283.003 1208 m 1,0,-1
 338.633 1325 l 1,1,2
 460.464 1273 460.464 1273 566.647 1223 c 1,3,4
 585.095 1390 585.095 1390 597.551 1489 c 1,5,-1
 713.551 1489 l 1,6,7
 692.8 1394 692.8 1394 649.529 1228 c 1,8,9
 768.875 1281 768.875 1281 916.81 1326 c 1,10,-1
 933.355 1210 l 1,11,12
 780.598 1166 780.598 1166 658.542 1143 c 1,13,14
 713.549 1092 713.549 1092 802.1 942 c 1,15,-1
 691.934 873 l 1,16,17
 619.975 998 619.975 998 582.431 1097 c 1,18,19
 502.388 989 502.388 989 399.815 878 c 1,20,-1
 321.924 941 l 1,21,22
 446.08 1078 446.08 1078 527.365 1142 c 1,23,24
 415.479 1171 415.479 1171 283.003 1208 c 1,0,-1
EndSplineSet
EndChar
StartChar: plus
Encoding: 43 43 15
Width: 1350
VWidth: 2045
Flags: W
HStem: 662 122<189 611 735 1157>
VStem: 611 124<237 662 784 1205>
Fore
652.789 237 m 5,0,-1
 727.729 662 l 5,1,-1
 305.729 662 l 5,2,-1
 327.24 784 l 5,3,-1
 749.24 784 l 5,4,-1
 823.474 1205 l 5,5,-1
 947.474 1205 l 5,6,-1
 873.24 784 l 5,7,-1
 1295.24 784 l 5,8,-1
 1273.73 662 l 5,9,-1
 851.729 662 l 5,10,-1
 776.789 237 l 5,11,-1
 652.789 237 l 5,0,-1
EndSplineSet
EndChar
StartChar: comma
Encoding: 44 44 16
Width: 568
VWidth: 2045
Flags: W
HStem: -20 20G<204 299>
VStem: 204 183<0 205> 299 88<-118.3 0>
Fore
204 0 m 1,0,-1
 240.147 205 l 1,1,-1
 423.147 205 l 1,2,-1
 387 0 l 2,3,4
 367.075 -113 367.075 -113 316.085 -181 c 0,5,6
 260.213 -254 260.213 -254 168.865 -290 c 1,7,-1
 148.442 -213 l 1,8,9
 211.203 -186 211.203 -186 243.49 -139 c 0,10,11
 279.954 -91 279.954 -91 299 0 c 1,12,-1
 204 0 l 1,0,-1
EndSplineSet
EndChar
StartChar: hyphen
Encoding: 45 45 17
Width: 681
VWidth: 2045
Flags: W
HStem: 462 136<64 617>
Fore
145.463 462 m 1,0,-1
 169.443 598 l 1,1,-1
 722.443 598 l 1,2,-1
 698.463 462 l 1,3,-1
 145.463 462 l 1,0,-1
EndSplineSet
EndChar
StartChar: period
Encoding: 46 46 18
Width: 568
VWidth: 2045
Flags: W
HStem: 0 196<186 369>
VStem: 186 183<0 196>
Fore
186 0 m 1,0,-1
 220.561 196 l 1,1,-1
 403.561 196 l 1,2,-1
 369 0 l 1,3,-1
 186 0 l 1,0,-1
EndSplineSet
EndChar
StartChar: slash
Encoding: 47 47 19
Width: 568
VWidth: 2045
Flags: W
HStem: -9 21G<-81 49> 1448 20G<506 634>
VStem: -81 715<-9 1468>
Fore
-82.5869 -9 m 5,0,-1
 764.848 1468 l 5,1,-1
 892.848 1468 l 5,2,-1
 47.4131 -9 l 5,3,-1
 -82.5869 -9 l 5,0,-1
EndSplineSet
EndChar
StartChar: zero
Encoding: 48 48 20
Width: 1137
VWidth: 2045
Flags: W
HStem: -15 112<112.5 1005.6> 1347 112<112.5 1009.5>
VStem: 85 131<-90.5 1534.5> 904 130<-90.5 1534.5>
Fore
1031.31 722 m 24,0,1
 1143.51 1347 1143.51 1347 798.513 1347 c 152,-1,2
 453.513 1347 453.513 1347 343.308 722 c 152,-1,3
 233.104 97 233.104 97 578.104 97 c 24,4,5
 920.104 97 920.104 97 1031.31 722 c 24,0,1
1161.31 722 m 24,6,7
 1031.36 -15 1031.36 -15 555.355 -15 c 16,8,9
 85.3555 -15 85.3555 -15 212.308 722 c 0,10,11
 341.261 1459 341.261 1459 816.761 1459 c 152,-1,12
 1292.26 1459 1292.26 1459 1161.31 722 c 24,6,7
EndSplineSet
EndChar
StartChar: one
Encoding: 49 49 21
Width: 1137
VWidth: 2045
Flags: W
HStem: 0 21G<636 763> 1451 20G<582 763>
VStem: 636 127<0 1300>
Fore
763 0 m 1,0,-1
 636 0 l 1,1,-1
 865.225 1300 l 1,2,3
 729.424 1148 729.424 1148 631.461 1091.5 c 128,-1,4
 533.498 1035 533.498 1035 398.798 997 c 1,5,-1
 417.488 1103 l 1,6,7
 585.185 1175 585.185 1175 695.64 1282.5 c 128,-1,8
 806.095 1390 806.095 1390 841.377 1471 c 1,9,-1
 1022.38 1471 l 1,10,-1
 763 0 l 1,0,-1
EndSplineSet
EndChar
StartChar: two
Encoding: 50 50 22
Width: 1137
VWidth: 2045
Flags: W
HStem: 0 136<259 1031> 1370 110<316.1 725.6>
VStem: 61 198<0 221.8> 96 131<1039 1188.5> 896 131<873.9 1262.6>
Fore
419.957 297.5 m 144,-1,1
 291.618 202 291.618 202 282.98 136 c 1,2,-1
 1054.98 136 l 1,3,-1
 1031 0 l 1,4,-1
 61 0 l 1,5,6
 95.5605 196 95.5605 196 258.601 321 c 128,-1,7
 421.642 446 421.642 446 639.443 598 c 0,8,9
 763.96 686 763.96 686 911.179 803.5 c 128,-1,10
 1058.4 921 1058.4 921 1086.08 1078 c 0,11,12
 1111.12 1220 1111.12 1220 1020.84 1295 c 128,-1,13
 930.568 1370 930.568 1370 808.568 1370 c 0,14,15
 615.568 1370 615.568 1370 524.024 1262 c 128,-1,16
 432.481 1154 432.481 1154 410.204 1039 c 1,17,-1
 279.204 1039 l 1,18,19
 313.234 1232 313.234 1232 465.775 1357 c 128,-1,20
 618.316 1482 618.316 1482 832.964 1480 c 0,21,22
 1044.96 1480 1044.96 1480 1146.77 1365.5 c 128,-1,23
 1248.58 1251 1248.58 1251 1216.55 1075 c 0,24,25
 1183.05 885 1183.05 885 1052.12 772 c 128,-1,26
 921.199 659 921.199 659 742.806 532 c 8,27,0
 548.297 393 548.297 393 419.957 297.5 c 144,-1,1
EndSplineSet
EndChar
StartChar: three
Encoding: 51 51 23
Width: 1137
VWidth: 2045
Flags: W
HStem: -9 127<353.1 726.2> 713 131<441 763.4> 1069 21G<104 231> 1353 127<350.1 720.6>
VStem: 85 128<294.7 426> 104 127<1069 1213.3> 842 131<999.4 1262> 892 152<247.7 606.5>
Fore
160.115 426 m 1,0,-1
 288.115 426 l 1,1,2
 270.307 325 270.307 325 345.057 221.5 c 128,-1,3
 419.807 118 419.807 118 572.807 118 c 0,4,5
 706.807 118 706.807 118 825.735 205.5 c 128,-1,6
 944.664 293 944.664 293 970.289 444 c 0,7,8
 990.33 569 990.33 569 919.761 639.5 c 128,-1,9
 849.192 710 849.192 710 695.721 713 c 0,10,11
 628.897 714 628.897 714 563.194 693 c 1,12,-1
 589.82 844 l 1,13,14
 837.467 842 837.467 842 930.013 933 c 128,-1,15
 1022.56 1024 1022.56 1024 1037.02 1106 c 0,16,17
 1058.18 1226 1058.18 1226 988.874 1289.5 c 128,-1,18
 919.57 1353 919.57 1353 787.57 1353 c 0,19,20
 634.923 1355 634.923 1355 537.494 1267.5 c 128,-1,21
 440.065 1180 440.065 1180 419.493 1069 c 9,22,-1
 292.493 1069 l 1,23,24
 319.059 1231 319.059 1231 469.511 1355.5 c 128,-1,25
 619.964 1480 619.964 1480 804.964 1480 c 24,26,27
 999.316 1482 999.316 1482 1095.45 1366.5 c 128,-1,28
 1191.58 1251 1191.58 1251 1166.96 1100 c 0,29,30
 1146.04 970 1146.04 970 1054.43 890 c 128,-1,31
 962.825 810 962.825 810 911.004 794 c 1,32,33
 1028.6 769 1028.6 769 1088.4 680 c 128,-1,34
 1148.21 591 1148.21 591 1123.17 449 c 0,35,36
 1087.2 245 1087.2 245 920.807 118 c 144,-1,37
 754.413 -9 754.413 -9 550.413 -9 c 128,-1,38
 346.413 -9 346.413 -9 239.6 122.5 c 136,-1,39
 132.787 254 132.787 254 160.115 426 c 1,0,-1
EndSplineSet
EndChar
StartChar: four
Encoding: 52 52 24
Width: 1137
VWidth: 2045
Flags: W
HStem: 0 21G<715 842> 347 121<159 715 842 1040> 1451 20G<692 842>
VStem: 715 127<0 347 468 1282>
Fore
715 0 m 1,0,-1
 776.186 347 l 1,1,-1
 87.1855 347 l 1,2,-1
 110.108 477 l 1,3,-1
 951.377 1471 l 1,4,-1
 1101.38 1471 l 1,5,-1
 924.521 468 l 1,6,-1
 1122.52 468 l 1,7,-1
 1101.19 347 l 1,8,-1
 903.186 347 l 1,9,-1
 842 0 l 1,10,-1
 715 0 l 1,0,-1
797.521 468 m 1,11,-1
 941.051 1282 l 1,12,-1
 241.521 468 l 1,13,-1
 797.521 468 l 1,11,-1
EndSplineSet
EndChar
StartChar: five
Encoding: 53 53 25
Width: 1137
VWidth: 2045
Flags: W
HStem: -9 124<348.3 769.5> 855 131<298.5 793.8> 1344 127<369 988>
VStem: 85 135<322.147 414> 916 139<290 703.4>
Fore
553.413 -9 m 0,0,1
 331.884 -12 331.884 -12 232.954 116 c 128,-1,2
 134.023 244 134.023 244 157.999 414 c 1,3,-1
 292.999 414 l 1,4,5
 280.666 276 280.666 276 348.472 195.5 c 128,-1,6
 416.277 115 416.277 115 575.277 115 c 0,7,8
 740.807 118 740.807 118 857.967 229.5 c 128,-1,9
 975.128 341 975.128 341 1006.1 511 c 256,10,11
 1034.2 659 1034.2 659 961.479 757 c 128,-1,12
 888.76 855 888.76 855 702.76 855 c 0,13,14
 507.407 853 507.407 853 379.96 686 c 1,15,-1
 240.663 707 l 1,16,-1
 518.377 1471 l 1,17,-1
 1247.38 1471 l 1,18,-1
 1224.98 1344 l 1,19,-1
 605.983 1344 l 1,20,-1
 418.23 852 l 1,21,22
 536.682 985 536.682 985 774.858 986 c 0,23,24
 962.211 988 962.211 988 1072.79 858 c 128,-1,25
 1183.37 728 1183.37 728 1145.28 512 c 152,-1,26
 1107.19 296 1107.19 296 946.891 144 c 128,-1,27
 786.59 -8 786.59 -8 553.413 -9 c 0,0,1
EndSplineSet
EndChar
StartChar: six
Encoding: 54 54 26
Width: 1137
VWidth: 2045
Flags: W
HStem: -9 127<392.2 800.4> 844 132<386.2 782.7> 1341 139<367.1 777.9>
VStem: 76 140<701 997.979> 893 125<1103 1170.09> 913 130<291.5 680.2>
Fore
583.413 -9 m 0,0,1
 329.884 -12 329.884 -12 233.532 184.5 c 128,-1,2
 137.181 381 137.181 381 199.605 701 c 0,3,4
 282.723 1110 282.723 1110 444.344 1295 c 128,-1,5
 605.964 1480 605.964 1480 862.964 1480 c 0,6,7
 1031.96 1480 1031.96 1480 1135.63 1376 c 128,-1,8
 1239.29 1272 1239.29 1272 1212.49 1103 c 1,9,-1
 1087.49 1103 l 1,10,11
 1092.3 1187 1092.3 1187 1031.88 1264 c 128,-1,12
 971.454 1341 971.454 1341 828.454 1341 c 0,13,14
 655.454 1341 655.454 1341 533.65 1206 c 128,-1,15
 411.846 1071 411.846 1071 351.066 766 c 1,16,17
 382.999 828 382.999 828 491.282 900.5 c 128,-1,18
 599.566 973 599.566 973 765.095 976 c 0,19,20
 938.153 982 938.153 982 1053.17 846 c 128,-1,21
 1168.19 710 1168.19 710 1129.58 491 c 24,22,23
 1094.13 290 1094.13 290 947.362 141 c 128,-1,24
 800.59 -8 800.59 -8 583.413 -9 c 0,0,1
339.224 489 m 0,25,26
 311.012 329 311.012 329 383.909 223.5 c 128,-1,27
 456.807 118 456.807 118 602.807 118 c 0,28,29
 770.807 118 770.807 118 871.438 226.5 c 128,-1,30
 972.069 335 972.069 335 997.637 480 c 0,31,32
 1024.79 634 1024.79 634 954.306 739 c 128,-1,33
 883.82 844 883.82 844 724.82 844 c 0,34,35
 578.82 844 578.82 844 472.863 745 c 128,-1,36
 366.907 646 366.907 646 339.224 489 c 0,25,26
EndSplineSet
EndChar
StartChar: seven
Encoding: 55 55 27
Width: 1137
VWidth: 2045
Flags: W
HStem: 0 21G<361 510> 1329 142<98 886>
VStem: 361 149<0 419.9>
Fore
332.339 1329 m 1,0,-1
 357.377 1471 l 1,1,-1
 1305.38 1471 l 1,2,-1
 1280.34 1329 l 1,3,4
 960.972 1015 960.972 1015 764.463 669 c 128,-1,5
 567.953 323 567.953 323 510 0 c 1,6,-1
 361 0 l 1,7,8
 422.069 335 422.069 335 616.228 670.5 c 128,-1,9
 810.385 1006 810.385 1006 1120.34 1329 c 1,10,-1
 332.339 1329 l 1,0,-1
EndSplineSet
EndChar
StartChar: eight
Encoding: 56 56 28
Width: 1137
VWidth: 2045
Flags: W
HStem: -9 119<377.5 753.2> 727 131<408.7 722> 1365 115<408.7 722>
VStem: 82 134<272.044 581.155> 142 131<974.2 1247.2> 858 130<974.2 1247.2> 915 134<343.571 521.983>
Fore
469.075 1112 m 256,0,1
 487.414 1216 487.414 1216 586.55 1290.5 c 128,-1,2
 685.687 1365 685.687 1365 806.687 1365 c 256,3,4
 926.687 1365 926.687 1365 999.55 1290.5 c 128,-1,5
 1072.41 1216 1072.41 1216 1054.08 1112 c 256,6,7
 1035.38 1006 1035.38 1006 936.337 932 c 128,-1,8
 837.289 858 837.289 858 717.289 858 c 256,9,10
 596.289 858 596.289 858 523.337 932 c 128,-1,11
 450.385 1006 450.385 1006 469.075 1112 c 256,0,1
289.705 418 m 256,12,13
 312.451 547 312.451 547 430.82 637 c 128,-1,14
 549.189 727 549.189 727 694.189 727 c 256,15,16
 838.189 727 838.189 727 924.82 637 c 128,-1,17
 1011.45 547 1011.45 547 988.705 418 c 256,18,19
 966.135 290 966.135 290 847.766 200 c 128,-1,20
 729.396 110 729.396 110 585.396 110 c 256,21,22
 440.396 110 440.396 110 353.766 200 c 128,-1,23
 267.135 290 267.135 290 289.705 418 c 256,12,13
239.925 113 m 16,24,25
 350.413 -9 350.413 -9 564.413 -9 c 0,26,27
 736.413 -9 736.413 -9 869.461 65 c 0,28,29
 1061.15 171 1061.15 171 1108.06 369 c 2,30,-1
 1125.35 433 l 2,31,32
 1137.52 485 1137.52 485 1129.04 556 c 0,33,34
 1105.95 737 1105.95 737 912.767 804 c 1,35,-1
 942.883 816 l 2,36,37
 1146.52 899 1146.52 899 1181.96 1100 c 0,38,39
 1211.23 1266 1211.23 1266 1113.74 1371 c 0,40,41
 1010.96 1480 1010.96 1480 823.964 1480 c 0,42,43
 642.316 1482 642.316 1482 507.508 1381 c 0,44,45
 366.816 1275 366.816 1275 336.488 1103 c 0,46,47
 298.05 885 298.05 885 502.767 804 c 1,48,49
 438.945 788 438.945 788 389.185 761 c 0,50,51
 213.315 671 213.315 671 159.231 438 c 0,52,53
 117.258 251 117.258 251 239.925 113 c 16,24,25
EndSplineSet
EndChar
StartChar: nine
Encoding: 57 57 29
Width: 1137
VWidth: 2045
Flags: W
HStem: -9 139<419.1 729.8> 495 133<458.6 692.6> 1347 133<458.6 692.6>
VStem: 113 128<861.9 1112.8> 939 140<277.3 770>
Fore
415.211 988 m 256,0,1
 398.107 891 398.107 891 428.473 808 c 128,-1,2
 458.837 725 458.837 725 527.285 676.5 c 128,-1,3
 595.733 628 595.733 628 683.733 628 c 256,4,5
 775.733 628 775.733 628 860.285 676.5 c 128,-1,6
 944.837 725 944.837 725 1003.97 808 c 128,-1,7
 1063.11 891 1063.11 891 1080.21 988 c 256,8,9
 1097.14 1084 1097.14 1084 1067.36 1167.5 c 128,-1,10
 1037.58 1251 1037.58 1251 970.049 1299 c 128,-1,11
 902.513 1347 902.513 1347 810.513 1347 c 256,12,13
 722.513 1347 722.513 1347 637.049 1299 c 128,-1,14
 551.585 1251 551.585 1251 491.861 1167.5 c 128,-1,15
 432.139 1084 432.139 1084 415.211 988 c 256,0,1
204.064 369 m 9,16,-1
 336.064 369 l 1,17,18
 333.903 266 333.903 266 404.736 197 c 128,-1,19
 475.57 128 475.57 128 588.923 130 c 0,20,21
 714.923 130 714.923 130 851.645 222 c 128,-1,22
 988.367 314 988.367 314 1064.72 713 c 1,23,24
 1001.62 616 1001.62 616 904.449 555.5 c 128,-1,25
 807.282 495 807.282 495 651.282 495 c 0,26,27
 474.105 494 474.105 494 360.646 627.5 c 128,-1,28
 247.185 761 247.185 761 285.801 980 c 0,29,30
 321.065 1180 321.065 1180 468.191 1331 c 128,-1,31
 615.316 1482 615.316 1482 832.964 1480 c 0,32,33
 1095.96 1480 1095.96 1480 1183.99 1293 c 0,34,35
 1270.55 1109 1270.55 1109 1214.77 770 c 0,36,37
 1152.94 391 1152.94 391 989.472 195.5 c 128,-1,38
 826 0 826 0 553.413 -9 c 0,39,40
 386.355 -15 386.355 -15 287.251 95 c 128,-1,41
 188.147 205 188.147 205 204.064 369 c 9,16,-1
EndSplineSet
EndChar
StartChar: colon
Encoding: 58 58 30
Width: 568
VWidth: 2045
Flags: W
HStem: 0 205<238 390> 856 204<238 390>
VStem: 238 152<0 205 856 1060>
Fore
388.936 856 m 1,0,-1
 424.906 1060 l 1,1,-1
 576.906 1060 l 1,2,-1
 540.936 856 l 1,3,-1
 388.936 856 l 1,0,-1
238 0 m 1,4,-1
 274.147 205 l 1,5,-1
 426.147 205 l 1,6,-1
 390 0 l 1,7,-1
 238 0 l 1,4,-1
EndSplineSet
EndChar
StartChar: semicolon
Encoding: 59 59 31
Width: 568
VWidth: 2045
Flags: W
HStem: -20 20G<220 291> 856 204<220 388>
VStem: 220 168<0 205 856 1060> 291 97<-90.708 0>
Fore
370.936 856 m 1,0,-1
 406.906 1060 l 1,1,-1
 574.906 1060 l 1,2,-1
 538.936 856 l 1,3,-1
 370.936 856 l 1,0,-1
220 0 m 1,4,-1
 256.147 205 l 1,5,-1
 424.147 205 l 1,6,-1
 388 0 l 2,7,8
 356.261 -180 356.261 -180 231.684 -257 c 0,9,10
 195.805 -279 195.805 -279 168.865 -290 c 1,11,-1
 138.031 -221 l 1,12,13
 222.203 -186 222.203 -186 265.483 -88 c 0,14,15
 282.713 -47 282.713 -47 291 0 c 1,16,-1
 220 0 l 1,4,-1
EndSplineSet
EndChar
StartChar: less
Encoding: 60 60 32
Width: 1350
VWidth: 2045
Flags: W
HStem: 227 990<1144 1144>
VStem: 174 970<663 1217>
Fore
290.904 663 m 5,0,-1
 312.417 785 l 5,1,-1
 1358.59 1217 l 5,2,-1
 1334.61 1081 l 5,3,-1
 447.484 723 l 5,4,-1
 1206.77 356 l 5,5,-1
 1184.03 227 l 5,6,-1
 290.904 663 l 5,0,-1
EndSplineSet
EndChar
StartChar: equal
Encoding: 61 61 33
Width: 1350
VWidth: 2045
Flags: W
HStem: 440 130<189 1157> 885 121<189 1157>
Fore
1313.05 885 m 5,0,-1
 345.05 885 l 5,1,-1
 366.385 1006 l 5,2,-1
 1334.38 1006 l 5,3,-1
 1313.05 885 l 5,0,-1
1234.58 440 m 5,4,-1
 266.584 440 l 5,5,-1
 289.507 570 l 5,6,-1
 1257.51 570 l 5,7,-1
 1234.58 440 l 5,4,-1
EndSplineSet
EndChar
StartChar: greater
Encoding: 62 62 34
Width: 1350
VWidth: 2045
Flags: W
HStem: 227 990<189 189>
VStem: 188 971<663 1081>
Fore
1275.9 663 m 1,0,-1
 1297.42 785 l 1,1,-1
 403.59 1217 l 1,2,-1
 378.609 1081 l 1,3,-1
 1138.48 723 l 1,4,-1
 250.772 356 l 1,5,-1
 229.026 227 l 1,6,-1
 1275.9 663 l 1,0,-1
EndSplineSet
EndChar
StartChar: question
Encoding: 63 63 35
Width: 1022
VWidth: 2045
Flags: W
HStem: 0 205<430 589> 1378 126<299.5 698.6>
VStem: 37 131<1045 1215.39> 430 159<0 205> 442 125<361 432.825> 852 130<989.2 1231>
Fore
1173.14 1084 m 4,0,1
 1151.1 959 1151.1 959 1069.02 873.5 c 132,-1,2
 986.945 788 986.945 788 842.194 693 c 4,3,4
 722.089 613 722.089 613 679.722 506 c 132,-1,5
 637.354 399 637.354 399 630.654 361 c 13,6,-1
 505.654 361 l 21,7,8
 513.999 414 513.999 414 568.01 544.5 c 132,-1,9
 622.021 675 622.021 675 770.83 776 c 4,10,11
 907.875 867 907.875 867 969.159 939.5 c 132,-1,12
 1030.44 1012 1030.44 1012 1043.84 1088 c 4,13,14
 1062.24 1198 1062.24 1198 980.874 1289.5 c 132,-1,15
 899.508 1381 899.508 1381 756.979 1378 c 28,16,17
 591.979 1378 591.979 1378 485.14 1282.5 c 132,-1,18
 378.3 1187 378.3 1187 352.262 1045 c 5,19,-1
 221.262 1045 l 5,20,21
 264.116 1237 264.116 1237 415.656 1370.5 c 132,-1,22
 567.195 1504 567.195 1504 776.195 1504 c 4,23,24
 977.195 1504 977.195 1504 1091.48 1386.5 c 132,-1,25
 1205.76 1269 1205.76 1269 1173.14 1084 c 4,0,1
430 0 m 5,26,-1
 466.147 205 l 5,27,-1
 625.147 205 l 5,28,-1
 589 0 l 5,29,-1
 430 0 l 5,26,-1
EndSplineSet
EndChar
StartChar: at
Encoding: 64 64 36
Width: 1635
VWidth: 2045
Flags: W
HStem: -430 112<432.6 1292.8> -33 145<1154 1302.2> -3 115<546.9 884.8> 967 116<668 962.1> 1384 109<563.7 1080.2>
VStem: -88 113<206.7 852.8> 303 123<244.9 670.3> 1645 111.074<627.429 862.5>
Fore
1176.33 172 m 0,0,1
 1172.62 151 1172.62 151 1192.19 131.5 c 128,-1,2
 1211.75 112 1211.75 112 1242.75 112 c 0,3,4
 1391.81 118 1391.81 118 1519.34 260 c 128,-1,5
 1646.88 402 1646.88 402 1704.78 529 c 128,-1,6
 1762.67 656 1762.67 656 1771.25 716 c 0,7,8
 1806.98 947 1806.98 947 1704.14 1101 c 128,-1,9
 1601.29 1255 1601.29 1255 1441.25 1320 c 128,-1,10
 1281.21 1385 1281.21 1385 1137.04 1384 c 0,11,12
 763.979 1378 763.979 1378 472.221 1127 c 128,-1,13
 180.463 876 180.463 876 110.519 485 c 24,14,15
 36.9297 79 36.9297 79 256.018 -119 c 128,-1,16
 475.104 -317 475.104 -317 864.928 -318 c 0,17,18
 1150.58 -320 1150.58 -320 1362.03 -229.5 c 128,-1,19
 1573.49 -139 1573.49 -139 1672.17 18 c 1,20,-1
 1808.17 18 l 1,21,22
 1677.61 -178 1677.61 -178 1421.22 -305 c 128,-1,23
 1164.83 -432 1164.83 -432 848.18 -430 c 0,24,25
 470.355 -429 470.355 -429 266.836 -293 c 128,-1,26
 63.3164 -157 63.3164 -157 11.1982 55 c 128,-1,27
 -40.9209 267 -40.9209 267 -5.47852 468 c 0,28,29
 47.7139 764 47.7139 764 219.649 1007.5 c 128,-1,30
 391.585 1251 391.585 1251 648.068 1370 c 128,-1,31
 904.551 1489 904.551 1489 1166.26 1493 c 0,32,33
 1506.79 1496 1506.79 1496 1683.1 1330.5 c 128,-1,34
 1859.42 1165 1859.42 1165 1881.71 996.5 c 128,-1,35
 1904 828 1904 828 1881.72 713 c 0,36,37
 1841.87 504 1841.87 504 1699.84 311 c 128,-1,38
 1557.81 118 1557.81 118 1409.99 42.5 c 128,-1,39
 1262.18 -33 1262.18 -33 1148.18 -33 c 0,40,41
 1116.18 -33 1116.18 -33 1075.09 -16.5 c 128,-1,42
 1034 0 1034 0 1015.76 44 c 128,-1,43
 997.517 88 997.517 88 1007.57 145 c 1,44,45
 831.471 -3 831.471 -3 655.471 -3 c 0,46,47
 496.471 -3 496.471 -3 423.451 133 c 128,-1,48
 350.432 269 350.432 269 384.287 461 c 0,49,50
 412.676 622 412.676 622 516.301 773 c 128,-1,51
 619.926 924 619.926 924 756.032 1004 c 128,-1,52
 892.139 1084 892.139 1084 1001.96 1083 c 0,53,54
 1236.08 1078 1236.08 1078 1318.39 938 c 1,55,-1
 1376.08 1078 l 1,56,-1
 1516.08 1078 l 1,57,-1
 1204.32 257 l 10,58,59
 1179.03 193 1179.03 193 1176.33 172 c 0,0,1
507.463 462 m 0,60,61
 478.017 295 478.017 295 538.383 203.5 c 128,-1,62
 598.749 112 598.749 112 705.749 112 c 0,63,64
 880.749 112 880.749 112 1028.13 290 c 128,-1,65
 1175.52 468 1175.52 468 1214.91 646 c 0,66,67
 1231.84 725 1231.84 725 1226.91 802 c 128,-1,68
 1221.99 879 1221.99 879 1161.25 923 c 128,-1,69
 1100.51 967 1100.51 967 993.508 967 c 0,70,71
 829.155 965 829.155 965 683.649 800.5 c 128,-1,72
 538.144 636 538.144 636 507.463 462 c 0,60,61
EndSplineSet
EndChar
StartChar: A
Encoding: 65 65 37
Width: 1364
VWidth: 2045
Flags: W
HStem: 0 21G<-3 149 1201 1366> 471 129<381 954> 1430 20G<582 744>
Fore
837.674 1450 m 1,0,-1
 999.674 1450 l 1,1,-1
 1366 0 l 1,2,-1
 1201 0 l 1,3,-1
 1083.05 471 l 1,4,-1
 421.05 471 l 1,5,-1
 149 0 l 1,6,-1
 -3 0 l 1,7,-1
 837.674 1450 l 1,0,-1
1059.8 600 m 1,8,-1
 886.462 1290 l 1,9,-1
 486.796 600 l 1,10,-1
 1059.8 600 l 1,8,-1
EndSplineSet
EndChar
StartChar: B
Encoding: 66 66 38
Width: 1364
VWidth: 2045
Flags: W
HStem: 0 136<290 904.1> 692 127<290 851> 1314 136<290 827.5>
VStem: 165 125<136 692 819 1314> 1047 137.5<960.85 1196.15> 1108 148<343.98 534.4>
Fore
165 0 m 5,0,-1
 420.674 1450 l 5,1,-1
 953.674 1450 l 6,2,3
 1122.67 1450 1122.67 1450 1220.39 1403 c 132,-1,4
 1318.1 1356 1318.1 1356 1354.61 1262.5 c 132,-1,5
 1391.13 1169 1391.13 1169 1374.67 1078.5 c 132,-1,6
 1358.21 988 1358.21 988 1292.58 905 c 132,-1,7
 1226.94 822 1226.94 822 1116.12 772 c 5,8,9
 1244.89 731 1244.89 731 1299.38 634.5 c 132,-1,10
 1353.86 538 1353.86 538 1330.06 420 c 4,11,12
 1301.66 293 1301.66 293 1240.29 211.5 c 132,-1,13
 1178.92 130 1178.92 130 1113.69 89 c 132,-1,14
 1048.46 48 1048.46 48 960.231 24 c 132,-1,15
 872 0 872 0 753 0 c 6,16,-1
 165 0 l 5,0,-1
434.412 819 m 5,17,-1
 873.412 819 l 6,18,19
 1004.41 819 1004.41 819 1109.23 877.5 c 132,-1,20
 1214.04 936 1214.04 936 1233.2 1056 c 4,21,22
 1252.66 1172 1252.66 1172 1208.97 1222 c 132,-1,23
 1165.29 1272 1165.29 1272 1097.99 1293 c 132,-1,24
 1030.69 1314 1030.69 1314 935.693 1314 c 6,25,-1
 521.693 1314 l 5,26,-1
 434.412 819 l 5,17,-1
313.98 136 m 5,27,-1
 801.98 136 l 6,28,29
 898.98 136 898.98 136 961.712 160 c 132,-1,30
 1024.44 184 1024.44 184 1076.5 232.5 c 132,-1,31
 1128.55 281 1128.55 281 1151.33 328 c 132,-1,32
 1174.12 375 1174.12 375 1182.06 420 c 4,33,34
 1199.57 508 1199.57 508 1160.65 568 c 132,-1,35
 1121.73 628 1121.73 628 1047.38 660 c 132,-1,36
 973.019 692 973.019 692 872.019 692 c 6,37,-1
 412.019 692 l 5,38,-1
 313.98 136 l 5,27,-1
EndSplineSet
EndChar
StartChar: C
Encoding: 67 67 39
Width: 1477
VWidth: 2045
Flags: W
HStem: -9 142<599.8 989.68> 1335 142<543.4 994.1>
VStem: 102 143<491.5 1023.2>
Fore
1346.64 480 m 1,0,-1
 1480.64 480 l 1,1,2
 1396.32 257 1396.32 257 1204.07 119.5 c 128,-1,3
 1011.83 -18 1011.83 -18 788.413 -9 c 0,4,5
 537.647 -2 537.647 -2 413.046 91 c 128,-1,6
 288.444 184 288.444 184 243.712 367 c 128,-1,7
 198.979 550 198.979 550 233.363 745 c 0,8,9
 271.098 959 271.098 959 388.573 1129 c 128,-1,10
 506.049 1299 506.049 1299 683.742 1388 c 128,-1,11
 861.435 1477 861.435 1477 1053.43 1477 c 0,12,13
 1272.43 1477 1272.43 1477 1403.51 1364 c 128,-1,14
 1534.58 1251 1534.58 1251 1557.14 1050 c 1,15,-1
 1423.14 1050 l 1,16,17
 1402.36 1193 1402.36 1193 1292.38 1264 c 128,-1,18
 1182.4 1335 1182.4 1335 1025.4 1335 c 0,19,20
 805.396 1335 805.396 1335 619.329 1190 c 128,-1,21
 433.262 1045 433.262 1045 376.54 746 c 0,22,23
 339.451 547 339.451 547 390.119 400.5 c 128,-1,24
 440.787 254 440.787 254 553.443 192.5 c 128,-1,25
 666.099 131 666.099 131 810.451 133 c 0,26,27
 1014.45 133 1014.45 133 1147.03 218.5 c 128,-1,28
 1279.6 304 1279.6 304 1346.64 480 c 1,0,-1
EndSplineSet
EndChar
StartChar: D
Encoding: 68 68 40
Width: 1477
VWidth: 2045
Flags: W
HStem: 0 136<296 1055.6> 1314 136<296 984>
VStem: 168 128<136 1314> 1235 143<387.6 1180.6>
Fore
168 0 m 1,0,-1
 423.674 1450 l 1,1,-1
 927.674 1450 l 2,2,3
 1286.67 1450 1286.67 1450 1432.14 1282.5 c 128,-1,4
 1577.6 1115 1577.6 1115 1507.25 733 c 0,5,6
 1432.48 326 1432.48 326 1214.74 163 c 128,-1,7
 997 0 997 0 695 0 c 2,8,-1
 168 0 l 1,0,-1
319.98 136 m 1,9,-1
 712.98 136 l 2,10,11
 994.98 136 994.98 136 1156.25 302 c 128,-1,12
 1317.52 468 1317.52 468 1364.78 736 c 0,13,14
 1425.08 1078 1425.08 1078 1285.89 1196 c 128,-1,15
 1146.69 1314 1146.69 1314 916.693 1314 c 2,16,-1
 527.693 1314 l 1,17,-1
 319.98 136 l 1,9,-1
EndSplineSet
EndChar
StartChar: E
Encoding: 69 69 41
Width: 1248
VWidth: 2045
Flags: W
HStem: 0 142<235 1168> 668 136<235 967> 1305 145<235 1168>
VStem: 108 127<142 668 804 1305>
Fore
108 0 m 5,0,-1
 363.674 1450 l 5,1,-1
 1423.67 1450 l 5,2,-1
 1398.11 1305 l 5,3,-1
 465.106 1305 l 5,4,-1
 376.767 804 l 5,5,-1
 1108.77 804 l 5,6,-1
 1084.79 668 l 5,7,-1
 352.786 668 l 5,8,-1
 260.038 142 l 5,9,-1
 1193.04 142 l 5,10,-1
 1168 0 l 5,11,-1
 108 0 l 5,0,-1
EndSplineSet
EndChar
StartChar: F
Encoding: 70 70 42
Width: 1137
VWidth: 2045
Flags: W
HStem: 0 21G<91 216> 663 135<216 932> 1323 127<216 1079>
VStem: 91 125<0 663 798 1323>
Fore
91 0 m 5,0,-1
 346.674 1450 l 5,1,-1
 1334.67 1450 l 5,2,-1
 1312.28 1323 l 5,3,-1
 449.28 1323 l 5,4,-1
 356.709 798 l 5,5,-1
 1072.71 798 l 5,6,-1
 1048.9 663 l 5,7,-1
 332.904 663 l 5,8,-1
 216 0 l 5,9,-1
 91 0 l 5,0,-1
EndSplineSet
EndChar
StartChar: G
Encoding: 71 71 43
Width: 1590
VWidth: 2045
Flags: W
HStem: -9 142<566.8 1133.6> 541 142<950 1310> 1335 142<588.1 1113.2>
VStem: 148 143<526.3 1023.2> 1310 138<349.9 541>
Fore
1305.75 137.5 m 128,-1,1
 1495.08 284 1495.08 284 1543.04 539 c 2,2,-1
 1568.43 683 l 1,3,-1
 1070.43 683 l 1,4,-1
 1045.39 541 l 1,5,-1
 1405.39 541 l 1,6,7
 1382.47 394 1382.47 394 1235.05 264 c 128,-1,8
 1087.63 134 1087.63 134 855.451 133 c 0,9,10
 650.923 130 650.923 130 544.789 237 c 128,-1,11
 438.656 344 438.656 344 416.698 460.5 c 128,-1,12
 394.74 577 394.74 577 422.54 746 c 0,13,14
 466.914 1009 466.914 1009 641.92 1173.5 c 128,-1,15
 816.926 1338 816.926 1338 1070.4 1335 c 0,16,17
 1283.87 1332 1283.87 1332 1373.18 1234.5 c 128,-1,18
 1462.48 1137 1462.48 1137 1469.14 1050 c 1,19,-1
 1603.14 1050 l 1,20,21
 1580.58 1251 1580.58 1251 1449.51 1364 c 128,-1,22
 1318.43 1477 1318.43 1477 1099.43 1477 c 0,23,24
 906.435 1477 906.435 1477 729.242 1388 c 128,-1,25
 552.049 1299 552.049 1299 434.573 1129 c 128,-1,26
 317.098 959 317.098 959 279.363 745 c 0,27,28
 244.979 550 244.979 550 289.712 367 c 128,-1,29
 334.444 184 334.444 184 468.252 86.5 c 128,-1,30
 602.061 -11 602.061 -11 833.413 -9 c 0,31,0
 1116.41 -9 1116.41 -9 1305.75 137.5 c 128,-1,1
EndSplineSet
EndChar
StartChar: H
Encoding: 72 72 44
Width: 1477
VWidth: 2045
Flags: W
HStem: 0 21G<165 290 1186 1313> 690 134<290 1186> 1430 20G<165 290 1186 1313>
VStem: 165 125<0 690 824 1450> 1186 127<0 690 824 1450>
Fore
165 0 m 1,0,-1
 420.674 1450 l 1,1,-1
 545.674 1450 l 1,2,-1
 435.293 824 l 1,3,-1
 1331.29 824 l 1,4,-1
 1441.67 1450 l 1,5,-1
 1568.67 1450 l 1,6,-1
 1313 0 l 1,7,-1
 1186 0 l 1,8,-1
 1307.67 690 l 1,9,-1
 411.666 690 l 1,10,-1
 290 0 l 1,11,-1
 165 0 l 1,0,-1
EndSplineSet
EndChar
StartChar: I
Encoding: 73 73 45
Width: 568
VWidth: 2045
Flags: W
HStem: 0 21G<235 369> 1430 20G<235 369>
VStem: 235 134<0 1450>
Fore
235 0 m 1,0,-1
 490.674 1450 l 1,1,-1
 624.674 1450 l 1,2,-1
 369 0 l 1,3,-1
 235 0 l 1,0,-1
EndSplineSet
EndChar
StartChar: J
Encoding: 74 74 46
Width: 1022
VWidth: 2045
Flags: W
HStem: -9 126.852<329.1 560.542> 1430 20G<730 864>
VStem: 64 127<272.552 455> 730 134<296 1450>
Fore
985.674 1450 m 17,0,-1
 1119.67 1450 l 1,1,-1
 944.405 456 l 2,2,3
 913.548 281 913.548 281 859.178 199.5 c 128,-1,4
 804.807 118 804.807 118 713.846 53 c 128,-1,5
 622.884 -12 622.884 -12 461.413 -9 c 0,6,7
 358.413 -9 358.413 -9 277.761 27 c 128,-1,8
 197.108 63 197.108 63 159.128 134 c 128,-1,9
 121.147 205 121.147 205 122.46 280.5 c 128,-1,10
 123.772 356 123.772 356 144.229 455 c 1,11,-1
 271.229 455 l 17,12,13
 237.49 275 237.49 275 291.648 196.5 c 128,-1,14
 345.807 118 345.807 118 480.807 118 c 0,15,16
 557.454 116 557.454 116 615.862 141 c 128,-1,17
 674.271 166 674.271 166 728.231 231 c 128,-1,18
 782.192 296 782.192 296 801.941 408 c 10,19,-1
 985.674 1450 l 17,0,-1
EndSplineSet
EndChar
StartChar: K
Encoding: 75 75 47
Width: 1364
VWidth: 2045
Flags: W
HStem: 0 21G<149 277 1165 1345> 1430 20G<149 277 1125 1314>
VStem: 149 128<0 553 716 1450>
Fore
149 0 m 1,0,-1
 404.674 1450 l 1,1,-1
 532.674 1450 l 1,2,-1
 403.25 716 l 1,3,-1
 1380.67 1450 l 1,4,-1
 1569.67 1450 l 1,5,-1
 735.117 823 l 1,6,-1
 1345 0 l 1,7,-1
 1165 0 l 1,8,-1
 619.011 743 l 1,9,-1
 374.509 553 l 1,10,-1
 277 0 l 1,11,-1
 149 0 l 1,0,-1
EndSplineSet
EndChar
StartChar: L
Encoding: 76 76 48
Width: 1137
VWidth: 2045
Flags: W
HStem: 0 133<277 1058> 1430 20G<149 277>
VStem: 149 128<133 1450>
Fore
149 0 m 1,0,-1
 404.674 1450 l 1,1,-1
 532.674 1450 l 1,2,-1
 300.451 133 l 1,3,-1
 1081.45 133 l 1,4,-1
 1058 0 l 1,5,-1
 149 0 l 1,0,-1
EndSplineSet
EndChar
StartChar: M
Encoding: 77 77 49
Width: 1702
VWidth: 2045
Flags: W
HStem: 0 21G<152 277 796 903 1415 1549> 1430 20G<152 277 1415 1549>
VStem: 152 125<0 1145> 1415 134<0 1145>
Fore
152 0 m 1,0,-1
 407.674 1450 l 1,1,-1
 532.674 1450 l 1,2,-1
 878.507 156 l 1,3,-1
 1670.67 1450 l 1,4,-1
 1804.67 1450 l 1,5,-1
 1549 0 l 1,6,-1
 1415 0 l 1,7,-1
 1616.89 1145 l 1,8,-1
 903 0 l 1,9,-1
 796 0 l 1,10,-1
 478.895 1145 l 1,11,-1
 277 0 l 1,12,-1
 152 0 l 1,0,-1
EndSplineSet
EndChar
StartChar: N
Encoding: 78 78 50
Width: 1477
VWidth: 2045
Flags: W
HStem: 0 21G<156 283 1175 1309> 1430 20G<156 283 1175 1309>
VStem: 156 127<0 1242> 1175 134<208 1450>
Fore
156 0 m 1,0,-1
 411.674 1450 l 1,1,-1
 538.674 1450 l 1,2,-1
 1211.68 208 l 1,3,-1
 1430.67 1450 l 1,4,-1
 1564.67 1450 l 1,5,-1
 1309 0 l 1,6,-1
 1175 0 l 1,7,-1
 501.998 1242 l 1,8,-1
 283 0 l 1,9,-1
 156 0 l 1,0,-1
EndSplineSet
EndChar
StartChar: O
Encoding: 79 79 51
Width: 1590
VWidth: 2045
Flags: W
HStem: -12 119<672.85 921.2> 1349 125<668.332 928.471>
VStem: 99 145<601 947.7> 1342 157<597.629 864.9>
Fore
227.895 731 m 256,0,1
 265.806 946 265.806 946 352.846 1071 c 128,-1,2
 439.887 1196 439.887 1196 518.318 1266.5 c 128,-1,3
 596.749 1337 596.749 1337 683.125 1384.5 c 128,-1,4
 769.5 1432 769.5 1432 866.703 1453 c 128,-1,5
 963.906 1474 963.906 1474 1058.91 1474 c 256,6,7
 1152.91 1474 1152.91 1474 1242.2 1453 c 128,-1,8
 1331.5 1432 1331.5 1432 1403.48 1386.5 c 128,-1,9
 1475.45 1341 1475.45 1341 1533.32 1266.5 c 128,-1,10
 1591.18 1192 1591.18 1192 1610.05 1109 c 128,-1,11
 1628.91 1026 1628.91 1026 1637.48 930 c 128,-1,12
 1646.06 834 1646.06 834 1627.89 731 c 256,13,14
 1610.26 631 1610.26 631 1570.48 533 c 128,-1,15
 1530.7 435 1530.7 435 1469.6 346.5 c 128,-1,16
 1408.49 258 1408.49 258 1332.5 190 c 128,-1,17
 1256.51 122 1256.51 122 1173.87 81.5 c 128,-1,18
 1091.23 41 1091.23 41 991.057 14.5 c 128,-1,19
 890.884 -12 890.884 -12 796.884 -12 c 256,20,21
 701.884 -12 701.884 -12 614.264 10 c 128,-1,22
 526.643 32 526.643 32 455.018 79.5 c 128,-1,23
 383.394 127 383.394 127 327.678 199.5 c 128,-1,24
 271.961 272 271.961 272 249.096 355 c 128,-1,25
 226.231 438 226.231 438 218.247 534.5 c 128,-1,26
 210.263 631 210.263 631 227.895 731 c 256,0,1
372.366 728 m 256,27,28
 342.566 559 342.566 559 391.352 416 c 128,-1,29
 440.138 273 440.138 273 552.002 190 c 128,-1,30
 663.867 107 663.867 107 811.867 107 c 256,31,32
 960.867 107 960.867 107 1102 190 c 128,-1,33
 1243.14 273 1243.14 273 1341.85 416 c 128,-1,34
 1440.57 559 1440.57 559 1470.37 728 c 256,35,36
 1500.17 897 1500.17 897 1451.88 1040 c 128,-1,37
 1403.59 1183 1403.59 1183 1291.73 1266 c 128,-1,38
 1179.87 1349 1179.87 1349 1030.87 1349 c 256,39,40
 882.865 1349 882.865 1349 741.73 1266 c 128,-1,41
 600.595 1183 600.595 1183 501.38 1040 c 128,-1,42
 402.165 897 402.165 897 372.366 728 c 256,27,28
EndSplineSet
EndChar
StartChar: P
Encoding: 80 80 52
Width: 1248
VWidth: 2045
Flags: W
HStem: 0 21G<88 216> 580 127<216 920.7> 1314 136<216 907.2>
VStem: 88 128<0 580 707 1314>
Fore
88 0 m 5,0,-1
 343.674 1450 l 5,1,-1
 897.674 1450 l 6,2,3
 1101.67 1450 1101.67 1450 1172.94 1426 c 132,-1,4
 1244.21 1402 1244.21 1402 1307.1 1347.5 c 132,-1,5
 1369.99 1293 1369.99 1293 1385.48 1196.5 c 132,-1,6
 1400.96 1100 1400.96 1100 1387.91 1026 c 4,7,8
 1355.11 840 1355.11 840 1213.69 710 c 132,-1,9
 1072.27 580 1072.27 580 761.27 580 c 6,10,-1
 318.27 580 l 5,11,-1
 216 0 l 5,12,-1
 88 0 l 5,0,-1
1240.85 1020 m 28,13,14
 1268.72 1127 1268.72 1127 1199.21 1220.5 c 132,-1,15
 1129.69 1314 1129.69 1314 890.693 1314 c 6,16,-1
 447.693 1314 l 5,17,-1
 340.663 707 l 5,18,-1
 786.663 707 l 6,19,20
 985.663 707 985.663 707 1094.47 791 c 132,-1,21
 1203.29 875 1203.29 875 1240.85 1020 c 28,13,14
EndSplineSet
EndChar
StartChar: Q
Encoding: 81 81 53
Width: 1590
VWidth: 2045
Flags: W
HStem: -9 139<598.3 927.791> 0 116<1275.3 1465.61> 347 123<708.6 932.2> 1335 142<390.6 1090>
VStem: 81 146<551.8 1028.5> 1325 146.089<534.7 901.3>
Fore
870.874 470 m 0,0,1
 1009.87 470 1009.87 470 1105.35 416 c 128,-1,2
 1200.83 362 1200.83 362 1237.66 293 c 1,3,4
 1327.59 372 1327.59 372 1377.93 476 c 128,-1,5
 1428.27 580 1428.27 580 1453.89 731 c 0,6,7
 1500.91 1009 1500.91 1009 1377.16 1172 c 128,-1,8
 1253.4 1335 1253.4 1335 1013.4 1335 c 0,9,10
 715.396 1335 715.396 1335 553.395 1145 c 128,-1,11
 391.393 955 391.393 955 352.192 710 c 0,12,13
 328.272 563 328.272 563 365.38 427.5 c 128,-1,14
 402.487 292 402.487 292 473.905 249 c 1,15,16
 558.186 347 558.186 347 665.029 408.5 c 128,-1,17
 771.874 470 771.874 470 870.874 470 c 0,0,1
774.413 -9 m 0,18,19
 510.413 -9 510.413 -9 366.188 131.5 c 128,-1,20
 221.961 272 221.961 272 203.409 430.5 c 128,-1,21
 184.856 589 184.856 589 206.721 713 c 0,22,23
 268.375 1074 268.375 1074 496.17 1277 c 128,-1,24
 723.964 1480 723.964 1480 1038.43 1477 c 0,25,26
 1326.91 1474 1326.91 1474 1461.25 1320 c 128,-1,27
 1595.6 1166 1595.6 1166 1609.32 1017 c 0,28,29
 1624.99 862 1624.99 862 1599.89 731 c 0,30,31
 1551.93 476 1551.93 476 1467.51 354.5 c 128,-1,32
 1383.08 233 1383.08 233 1289.33 172 c 1,33,34
 1320.34 121 1320.34 121 1398.45 116 c 0,35,36
 1452.92 113 1452.92 113 1504.04 133.5 c 128,-1,37
 1555.15 154 1555.15 154 1584.8 186 c 1,38,-1
 1650.05 91 l 1,39,40
 1552 0 1552 0 1387 0 c 0,41,42
 1290 0 1290 0 1234.73 41 c 128,-1,43
 1179.46 82 1179.46 82 1171.34 104 c 1,44,45
 995.061 -11 995.061 -11 774.413 -9 c 0,18,19
845.186 347 m 16,46,47
 786.656 344 786.656 344 691.342 285.5 c 128,-1,48
 596.026 227 596.026 227 576.857 175 c 1,49,50
 662.923 130 662.923 130 801.923 130 c 0,51,52
 885.57 128 885.57 128 976.155 145.5 c 128,-1,53
 1066.74 163 1066.74 163 1120.97 204 c 1,54,55
 1098.37 263 1098.37 263 1029.04 306.5 c 128,-1,56
 959.715 350 959.715 350 845.186 347 c 16,46,47
EndSplineSet
EndChar
StartChar: R
Encoding: 82 82 54
Width: 1364
VWidth: 2045
Flags: W
HStem: 0 21G<98 223 1168 1325> 580 127<223 713> 1314 136<223 915.5>
VStem: 98 125<0 580 707 1314> 1052 162<828.9 1124.91>
Fore
815.27 580 m 5,0,-1
 325.27 580 l 5,1,-1
 223 0 l 5,2,-1
 98 0 l 5,3,-1
 353.674 1450 l 5,4,-1
 904.674 1450 l 6,5,6
 1109.67 1450 1109.67 1450 1179.94 1426 c 132,-1,7
 1250.21 1402 1250.21 1402 1312.37 1349 c 132,-1,8
 1374.52 1296 1374.52 1296 1392.56 1197 c 132,-1,9
 1410.61 1098 1410.61 1098 1394.91 1026 c 4,10,11
 1361.94 856 1361.94 856 1253.07 740.5 c 132,-1,12
 1144.2 625 1144.2 625 967.914 595 c 5,13,-1
 1325 0 l 5,14,-1
 1168 0 l 5,15,-1
 815.27 580 l 5,0,-1
1231.85 1020 m 4,16,17
 1256.54 1160 1256.54 1160 1180.12 1237 c 132,-1,18
 1103.69 1314 1103.69 1314 926.693 1314 c 6,19,-1
 454.693 1314 l 5,20,-1
 347.663 707 l 5,21,-1
 824.663 707 l 6,22,23
 1011.66 707 1011.66 707 1108.8 790 c 132,-1,24
 1205.93 873 1205.93 873 1231.85 1020 c 4,16,17
EndSplineSet
EndChar
StartChar: S
Encoding: 83 83 55
Width: 1248
VWidth: 2045
Flags: W
HStem: -9 136<330.5 938.9> 1338 133<366.1 835.6>
VStem: 46 145<304.7 501> 102 142<957.1 1219.7> 1020 148<1001.97 1150.96> 1070 142<268.4 555.7>
Fore
289.965 1066 m 4,0,1
 264.397 921 264.397 921 372.41 827.5 c 132,-1,2
 480.424 734 480.424 734 713.489 689 c 4,3,4
 933.437 649 933.437 649 1047.83 586 c 132,-1,5
 1162.22 523 1162.22 523 1143 414 c 4,6,7
 1123.25 302 1123.25 302 1010.41 215 c 132,-1,8
 897.57 128 897.57 128 684.394 127 c 4,9,10
 428.864 124 428.864 124 340.789 237 c 132,-1,11
 252.715 350 252.715 350 279.34 501 c 13,12,-1
 134.34 501 l 21,13,14
 96.6055 287 96.6055 287 217.038 142 c 132,-1,15
 337.471 -3 337.471 -3 669.413 -9 c 4,16,17
 893.531 -14 893.531 -14 1074.04 108 c 132,-1,18
 1254.55 230 1254.55 230 1287.64 429 c 4,19,20
 1311.62 565 1311.62 565 1180.02 675 c 132,-1,21
 1048.42 785 1048.42 785 764.233 835 c 4,22,23
 594.347 864 594.347 864 506.015 924.5 c 132,-1,24
 417.682 985 417.682 985 434.08 1078 c 4,25,26
 453.3 1187 453.3 1187 556.613 1262.5 c 132,-1,27
 659.926 1338 659.926 1338 860.926 1338 c 4,28,29
 1022.75 1337 1022.75 1337 1116.38 1255.5 c 132,-1,30
 1210.01 1174 1210.01 1174 1199.5 1018 c 13,31,-1
 1347.5 1018 l 4,32,33
 1373.94 1236 1373.94 1236 1244.54 1350 c 132,-1,34
 1115.14 1464 1115.14 1464 876.377 1471 c 4,35,36
 683.906 1474 683.906 1474 504.656 1370.5 c 132,-1,37
 325.406 1267 325.406 1267 289.965 1066 c 4,0,1
EndSplineSet
EndChar
StartChar: T
Encoding: 84 84 56
Width: 1137
VWidth: 2045
Flags: W
HStem: 0 21G<500 634> 1317 133<18 500 634 1119>
VStem: 500 134<0 1317>
Fore
500 0 m 1,0,-1
 732.223 1317 l 1,1,-1
 250.223 1317 l 1,2,-1
 273.674 1450 l 1,3,-1
 1374.67 1450 l 5,4,-1
 1351.22 1317 l 5,5,-1
 866.223 1317 l 1,6,-1
 634 0 l 1,7,-1
 500 0 l 1,0,-1
EndSplineSet
EndChar
StartChar: U
Encoding: 85 85 57
Width: 1477
VWidth: 2045
Flags: W
HStem: -9 127<477.3 1051.9> 1430 20G<162 287 1186 1313>
VStem: 162 125<269 1450> 1186 127<367 1450>
Fore
1441.67 1450 m 1,0,-1
 1568.67 1450 l 1,1,-1
 1412.8 566 l 2,2,3
 1360.96 272 1360.96 272 1185.51 130.5 c 128,-1,4
 1010.06 -11 1010.06 -11 739.413 -9 c 0,5,6
 422.413 -9 422.413 -9 318.744 146 c 128,-1,7
 215.074 301 215.074 301 261.801 566 c 2,8,-1
 417.674 1450 l 1,9,-1
 542.674 1450 l 1,10,-1
 387.153 568 l 2,11,12
 346.599 338 346.599 338 451.674 225 c 128,-1,13
 556.749 112 556.749 112 756.807 118 c 0,14,15
 1000.69 123 1000.69 123 1125.7 245 c 128,-1,16
 1250.71 367 1250.71 367 1286.15 568 c 2,17,-1
 1441.67 1450 l 1,0,-1
EndSplineSet
EndChar
StartChar: V
Encoding: 86 86 58
Width: 1248
VWidth: 2045
Flags: W
HStem: 0 21G<561 683> 1430 20G<9 165 1098 1241>
Fore
561 0 m 1,0,-1
 264.674 1450 l 1,1,-1
 420.674 1450 l 1,2,-1
 660.439 218 l 1,3,-1
 1353.67 1450 l 1,4,-1
 1496.67 1450 l 1,5,-1
 683 0 l 1,6,-1
 561 0 l 1,0,-1
EndSplineSet
EndChar
StartChar: W
Encoding: 87 87 59
Width: 1818
VWidth: 2045
Flags: W
HStem: 0 21G<436 573 1262 1400> 1430 20G<24 171 857 996 1650 1796>
Fore
436 0 m 1,0,-1
 279.674 1450 l 1,1,-1
 426.674 1450 l 1,2,-1
 551.497 224 l 1,3,-1
 1112.67 1450 l 1,4,-1
 1251.67 1450 l 1,5,-1
 1378.5 224 l 1,6,-1
 1905.67 1450 l 1,7,-1
 2051.67 1450 l 1,8,-1
 1400 0 l 1,9,-1
 1262 0 l 1,10,-1
 1137.71 1229 l 1,11,-1
 573 0 l 1,12,-1
 436 0 l 1,0,-1
EndSplineSet
EndChar
StartChar: X
Encoding: 88 88 60
Width: 1248
VWidth: 2045
Flags: W
HStem: 0 21G<9 186 1069 1244> 1430 20G<76 253 1028 1204>
Fore
9 0 m 1,0,-1
 670.482 740 l 1,1,-1
 331.674 1450 l 1,2,-1
 508.674 1450 l 1,3,-1
 777.936 856 l 1,4,-1
 1283.67 1450 l 1,5,-1
 1459.67 1450 l 1,6,-1
 843.482 740 l 1,7,-1
 1244 0 l 1,8,-1
 1069 0 l 1,9,-1
 738.791 634 l 1,10,-1
 186 0 l 1,11,-1
 9 0 l 1,0,-1
EndSplineSet
EndChar
StartChar: Y
Encoding: 89 89 61
Width: 1248
VWidth: 2045
Flags: W
HStem: 0 21G<540 688> 1430 20G<6 183 1066 1241>
VStem: 540 148<0 621>
Fore
540 0 m 1,0,-1
 649.499 621 l 1,1,-1
 261.674 1450 l 1,2,-1
 438.674 1450 l 1,3,-1
 758.479 757 l 1,4,-1
 1321.67 1450 l 1,5,-1
 1496.67 1450 l 1,6,-1
 797.499 621 l 1,7,-1
 688 0 l 1,8,-1
 540 0 l 1,0,-1
EndSplineSet
EndChar
StartChar: Z
Encoding: 90 90 62
Width: 1248
VWidth: 2045
Flags: W
HStem: 0 142<233 1198> 1308 142<46 1035>
Fore
41 0 m 1,0,-1
 67.4492 150 l 1,1,-1
 1265.64 1308 l 1,2,-1
 276.636 1308 l 1,3,-1
 301.674 1450 l 1,4,-1
 1467.67 1450 l 1,5,-1
 1442.64 1308 l 1,6,-1
 258.038 142 l 1,7,-1
 1223.04 142 l 1,8,-1
 1198 0 l 1,9,-1
 41 0 l 1,0,-1
EndSplineSet
EndChar
StartChar: bracketleft
Encoding: 91 91 63
Width: 681
VWidth: 2045
Flags: W
HStem: -408 112<266 535> 1353 112<266 535>
VStem: 139 127<-296 1353>
Fore
67.0586 -408 m 1,0,-1
 397.319 1465 l 1,1,-1
 793.319 1465 l 1,2,-1
 773.57 1353 l 1,3,-1
 504.57 1353 l 1,4,-1
 213.808 -296 l 1,5,-1
 482.808 -296 l 1,6,-1
 463.059 -408 l 1,7,-1
 67.0586 -408 l 1,0,-1
EndSplineSet
EndChar
StartChar: backslash
Encoding: 92 92 64
Width: 568
VWidth: 2045
Flags: W
VStem: 0 531<-24 1489>
Fore
419.769 -24 m 1,0,-1
 262.551 1489 l 1,1,-1
 369.551 1489 l 1,2,-1
 526.769 -24 l 1,3,-1
 419.769 -24 l 1,0,-1
EndSplineSet
EndChar
StartChar: bracketright
Encoding: 93 93 65
Width: 681
VWidth: 2045
Flags: W
HStem: -408 112<104 374> 1353 112<104 374>
VStem: 374 127<-296 1353>
Fore
429.059 -408 m 5,0,-1
 759.319 1465 l 5,1,-1
 362.319 1465 l 5,2,-1
 342.57 1353 l 5,3,-1
 612.57 1353 l 5,4,-1
 321.808 -296 l 5,5,-1
 51.8076 -296 l 5,6,-1
 32.0586 -408 l 5,7,-1
 429.059 -408 l 5,0,-1
EndSplineSet
EndChar
StartChar: asciicircum
Encoding: 94 94 66
Width: 1350
VWidth: 2045
Flags: W
HStem: 689 801<375 588>
VStem: 238 851<689 689>
Fore
496.489 689 m 5,0,-1
 359.489 689 l 5,1,-1
 850.728 1490 l 5,2,-1
 997.728 1490 l 5,3,-1
 1210.49 689 l 5,4,-1
 1066.49 689 l 5,5,-1
 902.157 1362 l 5,6,-1
 496.489 689 l 5,0,-1
EndSplineSet
EndChar
StartChar: underscore
Encoding: 95 95 67
Width: 1022
VWidth: 2045
Flags: W
HStem: -408 94<-30 1055>
Fore
-101.941 -408 m 1,0,-1
 -85.3662 -314 l 1,1,-1
 999.633 -314 l 5,2,-1
 983.059 -408 l 5,3,-1
 -101.941 -408 l 1,0,-1
EndSplineSet
EndChar
StartChar: grave
Encoding: 96 96 68
Width: 681
VWidth: 2045
Flags: W
HStem: 1193 281<134 473>
VStem: 134 339<1193 1474>
Fore
683.358 1193 m 5,0,-1
 576.358 1193 l 5,1,-1
 393.906 1474 l 5,2,-1
 596.906 1474 l 5,3,-1
 683.358 1193 l 5,0,-1
EndSplineSet
EndChar
StartChar: a
Encoding: 97 97 69
Width: 1137
VWidth: 2045
Flags: W
HStem: -24 103<336.4 605> 505.914 102.086<308.798 762.927> 982 102<406.35 758.65>
VStem: 75 138<143.2 403.2> 866 128<287.6 565 629.8 823.057>
Fore
125.077 284 m 128,-1,1
 99.5098 139 99.5098 139 183.139 57.5 c 128,-1,2
 266.769 -24 266.769 -24 431.769 -24 c 0,3,4
 561.769 -24 561.769 -24 686.438 19.5 c 128,-1,5
 811.108 63 811.108 63 903.923 130 c 1,6,7
 898.521 54 898.521 54 916 0 c 1,8,-1
 1052 0 l 1,9,10
 1026.11 63 1026.11 63 1026.81 126.5 c 128,-1,11
 1027.5 190 1027.5 190 1072.29 444 c 2,12,-1
 1114.96 686 l 2,13,14
 1136.83 810 1136.83 810 1134.14 868.5 c 128,-1,15
 1131.46 927 1131.46 927 1100.42 975 c 128,-1,16
 1069.38 1023 1069.38 1023 989.261 1053.5 c 128,-1,17
 909.139 1084 909.139 1084 773.639 1084 c 128,-1,18
 638.139 1084 638.139 1084 527.026 1046.5 c 128,-1,19
 415.914 1009 415.914 1009 350.1 942 c 128,-1,20
 284.286 875 284.286 875 238.656 758 c 1,21,-1
 354.482 740 l 1,22,23
 404.817 861 404.817 861 495.485 921.5 c 128,-1,24
 586.153 982 586.153 982 728.153 982 c 0,25,26
 909.153 982 909.153 982 962.428 915.5 c 128,-1,27
 1015.7 849 1015.7 849 1003.18 778 c 128,-1,28
 990.663 707 990.663 707 984.845 674 c 1,29,30
 983.85 640 983.85 640 656.207 608 c 16,31,32
 402.446 581 402.446 581 276.545 505 c 128,-1,0
 150.645 429 150.645 429 125.077 284 c 128,-1,1
641.692 503 m 24,33,34
 788.809 515 788.809 515 963.625 565 c 1,35,-1
 948.345 467 l 2,36,37
 924.012 329 924.012 329 869.435 252 c 128,-1,38
 814.857 175 814.857 175 710.394 127 c 128,-1,39
 605.93 79 605.93 79 495.93 79 c 0,40,41
 383.93 79 383.93 79 313.394 127 c 128,-1,42
 242.857 175 242.857 175 262.548 281 c 0,43,44
 279.123 375 279.123 375 365.409 430.5 c 128,-1,45
 451.695 486 451.695 486 641.692 503 c 24,33,34
EndSplineSet
EndChar
StartChar: b
Encoding: 98 98 70
Width: 1248
VWidth: 2045
Flags: W
HStem: -12 121<509.7 748.9> 955 130<509.7 748.9> 1444 20G<171 297>
VStem: 171 126<918 1464> 171 119<-2 163 382.5 680.2> 967 125<382.5 680.2>
Fore
383.806 532 m 260,0,1
 363.528 417 363.528 417 384.514 312 c 132,-1,2
 405.5 207 405.5 207 480.859 158 c 132,-1,3
 556.22 109 556.22 109 647.22 109 c 260,4,5
 740.22 109 740.22 109 832.653 162.5 c 132,-1,6
 925.087 216 925.087 216 982.808 316.5 c 132,-1,7
 1040.53 417 1040.53 417 1060.81 532 c 260,8,9
 1080.91 646 1080.91 646 1056.95 754 c 132,-1,10
 1032.99 862 1032.99 862 961.193 908.5 c 132,-1,11
 889.393 955 889.393 955 796.393 955 c 260,12,13
 705.393 955 705.393 955 612.135 902.5 c 132,-1,14
 518.878 850 518.878 850 461.393 748 c 132,-1,15
 403.907 646 403.907 646 383.806 532 c 260,0,1
283.647 -2 m 5,16,-1
 170.647 -2 l 5,17,-1
 429.143 1464 l 5,18,-1
 555.143 1464 l 5,19,-1
 458.868 918 l 5,20,21
 605.609 1081 605.609 1081 833.314 1085 c 4,22,23
 1045.31 1085 1045.31 1085 1136.81 929 c 132,-1,24
 1228.3 773 1228.3 773 1188.1 545 c 4,25,26
 1142.08 284 1142.08 284 990.01 139 c 132,-1,27
 837.942 -6 837.942 -6 630.884 -12 c 4,28,29
 491.355 -15 491.355 -15 410.876 47.5 c 132,-1,30
 330.396 110 330.396 110 312.741 163 c 5,31,-1
 283.647 -2 l 5,16,-1
EndSplineSet
EndChar
StartChar: c
Encoding: 99 99 71
Width: 1137
VWidth: 2045
Flags: W
HStem: -9 131<366.7 778.8> 953 131<369.2 745.4>
VStem: 95 131<426.964 812.8> 896 122<205.081 411.665>
Fore
319.806 532 m 4,0,1
 283.482 326 283.482 326 359.909 223.5 c 132,-1,2
 436.336 121 436.336 121 597.512 122 c 4,3,4
 753.864 124 753.864 124 841.062 187.5 c 132,-1,5
 928.258 251 928.258 251 966.884 402 c 5,6,-1
 1088.88 402 l 5,7,8
 1041.44 184 1041.44 184 892.488 85 c 132,-1,9
 743.531 -14 743.531 -14 576.413 -9 c 4,10,11
 379.942 -6 379.942 -6 273.364 124 c 132,-1,12
 166.787 254 166.787 254 175.328 379 c 132,-1,13
 183.869 504 183.869 504 187.924 527 c 4,14,15
 237.825 810 237.825 810 400.658 948 c 132,-1,16
 563.491 1086 563.491 1086 770.139 1084 c 4,17,18
 898.139 1084 898.139 1084 1001.91 1034.5 c 132,-1,19
 1105.68 985 1105.68 985 1131.93 873 c 132,-1,20
 1158.18 761 1158.18 761 1139.55 695 c 5,21,-1
 1018.55 695 l 5,22,23
 1024.24 801 1024.24 801 965.315 878 c 132,-1,24
 906.393 955 906.393 955 753.04 953 c 4,25,26
 586.863 952 586.863 952 473.378 850 c 132,-1,27
 359.893 748 359.893 748 319.806 532 c 4,0,1
EndSplineSet
EndChar
StartChar: d
Encoding: 100 100 72
Width: 1248
VWidth: 2045
Flags: W
HStem: -9 119<496.4 736.9> 956 128<496.4 736.9> 1445 20G<948 1073>
VStem: 156 121<383.5 682.5> 954 119<0 165 383.5 682.5 920 1465>
Fore
1047.98 533 m 260,0,1
 1027.71 418 1027.71 418 971.19 313 c 132,-1,2
 914.676 208 914.676 208 821.536 159 c 132,-1,3
 728.396 110 728.396 110 635.396 110 c 260,4,5
 543.396 110 543.396 110 470.918 164 c 132,-1,6
 398.439 218 398.439 218 374.572 318 c 132,-1,7
 350.705 418 350.705 418 370.982 533 c 260,8,9
 391.26 648 391.26 648 454.803 756 c 132,-1,10
 518.347 864 518.347 864 605.457 910 c 132,-1,11
 692.568 956 692.568 956 784.568 956 c 260,12,13
 877.568 956 877.568 956 952.899 904 c 132,-1,14
 1028.23 852 1028.23 852 1048.25 750 c 132,-1,15
 1068.26 648 1068.26 648 1047.98 533 c 260,0,1
960 0 m 5,16,-1
 1073 0 l 5,17,-1
 1331.32 1465 l 5,18,-1
 1206.32 1465 l 5,19,-1
 1110.22 920 l 5,20,21
 1023.14 1084 1023.14 1084 795.139 1084 c 4,22,23
 583.491 1086 583.491 1086 437.072 930.5 c 132,-1,24
 290.653 775 290.653 775 252.451 547 c 4,25,26
 206.077 284 206.077 284 305.598 139.5 c 132,-1,27
 405.118 -5 405.118 -5 611.413 -9 c 4,28,29
 747.531 -14 747.531 -14 850.14 49 c 132,-1,30
 952.749 112 952.749 112 989.094 165 c 5,31,-1
 960 0 l 5,16,-1
EndSplineSet
EndChar
StartChar: e
Encoding: 101 101 73
Width: 1137
VWidth: 2045
Flags: W
HStem: -9 124<328.734 674.916> 500 119<216 915> 952 134<383.2 797.9>
VStem: 75 138<299.8 500 619 825.7>
Fore
973.541 332 m 0,0,-1
 1104.54 332 l 1,1,2
 1039.74 163 1039.74 163 915.929 87.5 c 128,-1,3
 792.116 12 792.116 12 695.765 1.5 c 128,-1,4
 599.413 -9 599.413 -9 577.413 -9 c 0,5,6
 297 0 297 0 211.361 149.5 c 128,-1,7
 125.722 299 125.722 299 167.219 523 c 0,8,9
 216.356 796 216.356 796 380.747 940 c 128,-1,10
 545.139 1084 545.139 1084 761.491 1086 c 0,11,12
 1011.49 1086 1011.49 1086 1101.93 915.5 c 128,-1,13
 1192.36 745 1192.36 745 1143.69 520 c 0,14,-1
 1140.16 500 l 1,15,-1
 301.163 500 l 1,16,17
 274.009 346 274.009 346 331.644 230.5 c 128,-1,18
 389.277 115 389.277 115 602.277 115 c 0,19,20
 733.277 115 733.277 115 824.505 173 c 128,-1,21
 915.731 231 915.731 231 973.541 332 c 0,0,-1
325.146 619 m 1,22,-1
 1024.15 619 l 1,23,24
 1039.65 775 1039.65 775 976.759 863.5 c 128,-1,25
 913.863 952 913.863 952 740.863 952 c 0,26,27
 594.863 952 594.863 952 476.022 865 c 128,-1,28
 357.183 778 357.183 778 325.146 619 c 1,22,-1
EndSplineSet
EndChar
StartChar: f
Encoding: 102 102 74
Width: 568
VWidth: 2045
Flags: W
HStem: 0 21G<177 303> 822 103<18 177 303 535> 1381 134<441.189 579.3>
VStem: 177 126<0 822 925 1329>
Fore
177 0 m 1,0,-1
 321.94 822 l 1,1,-1
 162.94 822 l 1,2,-1
 181.103 925 l 1,3,-1
 340.103 925 l 1,4,-1
 384.185 1175 l 2,5,6
 422.095 1390 422.095 1390 581.906 1474 c 0,7,8
 659.783 1513 659.783 1513 753.136 1515 c 0,9,10
 830.136 1515 830.136 1515 902.375 1488 c 1,11,-1
 878.57 1353 l 1,12,13
 804.508 1381 804.508 1381 743.508 1381 c 0,14,15
 716.508 1381 716.508 1381 682.744 1371 c 0,16,17
 537.339 1329 537.339 1329 507.539 1160 c 2,18,-1
 466.103 925 l 1,19,-1
 698.103 925 l 1,20,-1
 679.94 822 l 1,21,-1
 447.94 822 l 1,22,-1
 303 0 l 1,23,-1
 177 0 l 1,0,-1
EndSplineSet
EndChar
StartChar: g
Encoding: 103 103 75
Width: 1248
VWidth: 2045
Flags: W
HStem: -435 130<427.2 750.6> 0 134<493.1 734.9> 959 127<493.1 734.9>
VStem: 149 127<401.4 692.6> 186 122<-141.432 -74> 954 132<-181 199> 973 113<912 1062>
Fore
372.451 547 m 260,0,1
 392.199 659 392.199 659 451.744 758.5 c 132,-1,2
 511.288 858 511.288 858 600.693 908.5 c 132,-1,3
 690.098 959 690.098 959 783.098 959 c 260,4,5
 876.098 959 876.098 959 948.017 907.5 c 132,-1,6
 1019.94 856 1019.94 856 1040.57 757.5 c 132,-1,7
 1061.2 659 1061.2 659 1041.45 547 c 260,8,9
 1018.53 417 1018.53 417 963.307 325 c 132,-1,10
 908.084 233 908.084 233 819.356 183.5 c 132,-1,11
 730.628 134 730.628 134 637.628 134 c 260,12,13
 544.628 134 544.628 134 470.356 183.5 c 132,-1,14
 396.084 233 396.084 233 374.394 334 c 132,-1,15
 352.702 435 352.702 435 372.451 547 c 260,0,1
528.298 -435 m 4,16,17
 639.945 -437 639.945 -437 762.705 -401.5 c 132,-1,18
 885.465 -366 885.465 -366 973.771 -248 c 132,-1,19
 1062.08 -130 1062.08 -130 1111.57 145 c 6,20,-1
 1273.26 1062 l 5,21,-1
 1160.26 1062 l 5,22,-1
 1133.81 912 l 5,23,24
 1051.84 1088 1051.84 1088 801.491 1086 c 4,25,26
 583.139 1084 583.139 1084 434.22 928.5 c 132,-1,27
 285.301 773 285.301 773 243.864 538 c 4,28,29
 203.661 310 203.661 310 299.302 152 c 132,-1,30
 394.942 -6 394.942 -6 608 0 c 4,31,32
 844.41 8 844.41 8 989.089 199 c 5,33,-1
 981.684 157 l 6,34,35
 935.838 -103 935.838 -103 836.029 -204 c 132,-1,36
 736.221 -305 736.221 -305 550.221 -305 c 4,37,38
 413.867 -307 413.867 -307 349.478 -252.5 c 132,-1,39
 285.087 -198 285.087 -198 294.952 -74 c 13,40,-1
 172.952 -74 l 5,41,42
 145.266 -214 145.266 -214 228.047 -323 c 132,-1,43
 310.827 -432 310.827 -432 528.298 -435 c 4,16,17
EndSplineSet
EndChar
StartChar: h
Encoding: 104 104 76
Width: 1137
VWidth: 2045
Flags: W
HStem: 0 21G<134 262 872 1000> 933 160<488.5 777> 1445 20G<134 262>
VStem: 134 128<0 698 909 1465> 872 128<0 828.8>
Fore
134 0 m 1,0,-1
 392.319 1465 l 1,1,-1
 520.319 1465 l 1,2,-1
 422.281 909 l 1,3,4
 502.914 1009 502.914 1009 604.908 1051.5 c 128,-1,5
 706.901 1094 706.901 1094 791.726 1093 c 0,6,7
 1003.73 1093 1003.73 1093 1076.45 969.5 c 128,-1,8
 1149.17 846 1149.17 846 1118.84 674 c 2,9,-1
 1000 0 l 1,10,-1
 872 0 l 1,11,-1
 984.673 639 l 2,12,13
 1010.42 785 1010.42 785 954.965 859 c 128,-1,14
 899.513 933 899.513 933 759.513 933 c 0,15,16
 588.865 935 588.865 935 486.971 816.5 c 128,-1,17
 385.076 698 385.076 698 369.03 607 c 2,18,-1
 262 0 l 1,19,-1
 134 0 l 1,0,-1
EndSplineSet
EndChar
StartChar: i
Encoding: 105 105 77
Width: 454
VWidth: 2045
Flags: W
HStem: 0 21G<159 286> 1258 207<159 286>
VStem: 159 127<0 1060 1258 1465>
Fore
380.819 1258 m 1,0,-1
 417.319 1465 l 1,1,-1
 544.319 1465 l 1,2,-1
 507.819 1258 l 1,3,-1
 380.819 1258 l 1,0,-1
159 0 m 1,4,-1
 345.906 1060 l 1,5,-1
 472.906 1060 l 1,6,-1
 286 0 l 1,7,-1
 159 0 l 1,4,-1
EndSplineSet
EndChar
StartChar: j
Encoding: 106 106 78
Width: 454
VWidth: 2045
Flags: W
HStem: -429 124<-57.3391 128.4> 1257 208<188 315>
VStem: 188 127<-174.9 1060 1257 1465>
Fore
409.643 1257 m 1,0,-1
 446.319 1465 l 1,1,-1
 573.319 1465 l 1,2,-1
 536.643 1257 l 1,3,-1
 409.643 1257 l 1,0,-1
-167.471 -411 m 1,4,-1
 -147.192 -296 l 1,5,6
 -93.7793 -305 -93.7793 -305 -59.7793 -305 c 0,7,8
 65.2207 -305 65.2207 -305 103.329 -242 c 0,9,10
 162.08 -147 162.08 -147 178.479 -54 c 2,11,-1
 374.906 1060 l 1,12,-1
 501.906 1060 l 1,13,-1
 304.949 -57 l 2,14,15
 255.401 -338 255.401 -338 88.5879 -405 c 0,16,17
 32.3555 -429 32.3555 -429 -35.6445 -429 c 0,18,19
 -96.6445 -429 -96.6445 -429 -167.471 -411 c 1,4,-1
EndSplineSet
EndChar
StartChar: k
Encoding: 107 107 79
Width: 1022
VWidth: 2045
Flags: W
HStem: 0 21G<136 263 869 1015> 1445 20G<136 263>
VStem: 136 127<0 378 533 1465>
Fore
136 0 m 1,0,-1
 394.319 1465 l 1,1,-1
 521.319 1465 l 1,2,-1
 356.982 533 l 1,3,-1
 1008.91 1060 l 1,4,-1
 1160.91 1060 l 1,5,-1
 668.318 654 l 1,6,-1
 1015 0 l 1,7,-1
 869 0 l 1,8,-1
 569.212 574 l 1,9,-1
 329.651 378 l 1,10,-1
 263 0 l 1,11,-1
 136 0 l 1,0,-1
EndSplineSet
EndChar
StartChar: l
Encoding: 108 108 80
Width: 454
VWidth: 2045
Flags: W
HStem: 0 21G<162 289> 1445 20G<162 289>
VStem: 162 127<0 1465>
Fore
162 0 m 5,0,-1
 420.319 1465 l 5,1,-1
 547.319 1465 l 5,2,-1
 289 0 l 5,3,-1
 162 0 l 5,0,-1
EndSplineSet
EndChar
StartChar: m
Encoding: 109 109 81
Width: 1702
VWidth: 2045
Flags: W
HStem: 0 21G<134 262 788 915 1447 1573> 967 118<449.3 730.7 1074 1375.6>
VStem: 134 128<0 704> 134 108<849 1062> 788 127<0 839.6> 1447 126<0 891.6>
Fore
1564.79 668 m 2,0,-1
 1447 0 l 1,1,-1
 1573 0 l 1,2,-1
 1701.37 728 l 2,3,4
 1733.63 911 1733.63 911 1662.74 999.5 c 128,-1,5
 1591.84 1088 1591.84 1088 1435.31 1085 c 0,6,7
 1304.31 1085 1304.31 1085 1212.47 1023.5 c 128,-1,8
 1120.63 962 1120.63 962 1057.46 876 c 1,9,10
 1043.57 973 1043.57 973 980.353 1028.5 c 128,-1,11
 917.139 1084 917.139 1084 808.314 1085 c 0,12,13
 679.314 1085 679.314 1085 586.676 1027.5 c 128,-1,14
 494.037 970 494.037 970 391.701 849 c 1,15,-1
 429.259 1062 l 1,16,-1
 321.259 1062 l 1,17,-1
 134 0 l 1,18,-1
 262 0 l 1,19,-1
 358.979 550 l 2,20,21
 386.134 704 386.134 704 424.714 764 c 0,22,23
 485.936 856 485.936 856 566.222 911.5 c 128,-1,24
 646.508 967 646.508 967 746.508 967 c 0,25,26
 865.508 967 865.508 967 900.018 899 c 128,-1,27
 934.527 831 934.527 831 909.489 689 c 2,28,-1
 788 0 l 1,29,-1
 915 0 l 1,30,-1
 1023.62 616 l 2,31,32
 1053.95 788 1053.95 788 1164.23 877.5 c 128,-1,33
 1274.51 967 1274.51 967 1374.51 967 c 0,34,35
 1506.51 967 1506.51 967 1550.81 903.5 c 128,-1,36
 1595.11 840 1595.11 840 1564.79 668 c 2,0,-1
EndSplineSet
EndChar
StartChar: n
Encoding: 110 110 82
Width: 1137
VWidth: 2045
Flags: W
HStem: 0 21G<134 262 872 1000> 949 145<431.3 769.2>
VStem: 134 128<0 701 894 1063> 872 128<0 843.7>
Fore
134 0 m 1,0,-1
 321.436 1063 l 1,1,-1
 449.436 1063 l 1,2,-1
 419.637 894 l 1,3,4
 489.269 994 489.269 994 576.174 1044.5 c 128,-1,5
 663.078 1095 663.078 1095 791.901 1094 c 0,6,7
 1020.9 1094 1020.9 1094 1083.45 961 c 128,-1,8
 1146 828 1146 828 1118.84 674 c 2,9,-1
 1000 0 l 1,10,-1
 872 0 l 1,11,-1
 982.028 624 l 2,12,13
 1011.83 793 1011.83 793 954.081 871 c 128,-1,14
 896.334 949 896.334 949 762.334 949 c 0,15,16
 585.334 949 585.334 949 485.47 825 c 128,-1,17
 385.605 701 385.605 701 355.806 532 c 2,18,-1
 262 0 l 1,19,-1
 134 0 l 1,0,-1
EndSplineSet
EndChar
StartChar: o
Encoding: 111 111 83
Width: 1137
VWidth: 2045
Flags: W
HStem: -12 121<433 691.7> 961 124<433 691.7>
VStem: 67 130<385.5 683.2> 928 133<385.5 683.2>
Fore
291.335 535 m 256,0,1
 271.058 420 271.058 420 292.366 314 c 128,-1,2
 313.676 208 313.676 208 397.948 158.5 c 128,-1,3
 482.22 109 482.22 109 582.22 109 c 256,4,5
 681.22 109 681.22 109 776.302 152 c 128,-1,6
 871.384 195 871.384 195 936.721 307.5 c 128,-1,7
 1002.06 420 1002.06 420 1022.33 535 c 256,8,9
 1042.44 649 1042.44 649 1018.39 756.5 c 128,-1,10
 994.347 864 994.347 864 912.898 912.5 c 128,-1,11
 831.45 961 831.45 961 732.45 961 c 256,12,13
 632.45 961 632.45 961 532.691 917 c 128,-1,14
 432.934 873 432.934 873 372.185 761 c 128,-1,15
 311.437 649 311.437 649 291.335 535 c 256,0,1
160.806 532 m 0,16,17
 210.238 801 210.238 801 371.688 942.5 c 128,-1,18
 533.139 1084 533.139 1084 757.314 1085 c 0,19,20
 990.314 1085 990.314 1085 1093.63 936.5 c 128,-1,21
 1196.95 788 1196.95 788 1157.45 547 c 0,22,23
 1113.96 272 1113.96 272 959.923 130 c 128,-1,24
 805.884 -12 805.884 -12 563.884 -12 c 0,25,26
 303.061 -11 303.061 -11 211.391 144 c 128,-1,27
 119.722 299 119.722 299 160.806 532 c 0,16,17
EndSplineSet
EndChar
StartChar: p
Encoding: 112 112 84
Width: 1248
VWidth: 2045
Flags: W
HStem: -9 128<499.4 737.3> 965 119<499.4 737.3>
VStem: 162 112<911 1075> 162 119<-390 156 392.5 691.5> 957 123<392.5 691.5>
Fore
376.569 542 m 260,0,1
 396.847 657 396.847 657 453.861 762 c 132,-1,2
 510.875 867 510.875 867 604.016 916 c 132,-1,3
 697.155 965 697.155 965 789.155 965 c 260,4,5
 880.155 965 880.155 965 954.222 911.5 c 132,-1,6
 1028.29 858 1028.29 858 1050.57 757.5 c 132,-1,7
 1072.85 657 1072.85 657 1052.57 542 c 260,8,9
 1032.29 427 1032.29 427 970.248 319 c 132,-1,10
 908.205 211 908.205 211 819.594 165 c 132,-1,11
 730.982 119 730.982 119 639.982 119 c 260,12,13
 547.982 119 547.982 119 472.74 171.5 c 132,-1,14
 397.497 224 397.497 224 376.895 325.5 c 132,-1,15
 356.292 427 356.292 427 376.569 542 c 260,0,1
463.552 1075 m 5,16,-1
 351.552 1075 l 5,17,-1
 93.2324 -390 l 5,18,-1
 218.232 -390 l 5,19,-1
 314.507 156 l 5,20,21
 402.413 -9 402.413 -9 629.413 -9 c 4,22,23
 843.061 -11 843.061 -11 989.067 145 c 132,-1,24
 1135.07 301 1135.07 301 1173.28 529 c 4,25,26
 1219.47 791 1219.47 791 1119.45 935.5 c 132,-1,27
 1019.43 1080 1019.43 1080 813.139 1084 c 4,28,29
 677.021 1089 677.021 1089 574.5 1026.5 c 132,-1,30
 471.979 964 471.979 964 434.634 911 c 5,31,-1
 463.552 1075 l 5,16,-1
EndSplineSet
EndChar
StartChar: q
Encoding: 113 113 85
Width: 1248
VWidth: 2045
Flags: W
HStem: -9 128<506.7 744.6> 965 119<506.7 744.6>
VStem: 163 123<392.5 691.5> 957 126<-390 156> 964 119<392.5 691.5 911 1075>
Fore
1059.57 542 m 260,0,1
 1079.85 657 1079.85 657 1059.36 762 c 132,-1,2
 1038.88 867 1038.88 867 963.016 916 c 132,-1,3
 887.155 965 887.155 965 795.155 965 c 260,4,5
 704.155 965 704.155 965 611.222 911.5 c 132,-1,6
 518.289 858 518.289 858 460.567 757.5 c 132,-1,7
 402.847 657 402.847 657 381.569 542 c 260,8,9
 361.292 427 361.292 427 386.248 319 c 132,-1,10
 411.205 211 411.205 211 483.094 165 c 132,-1,11
 554.982 119 554.982 119 645.982 119 c 260,12,13
 737.982 119 737.982 119 831.74 171.5 c 132,-1,14
 925.497 224 925.497 224 982.395 325.5 c 132,-1,15
 1039.29 427 1039.29 427 1059.57 542 c 260,0,1
1159.55 1075 m 5,16,-1
 1272.55 1075 l 5,17,-1
 1014.23 -390 l 5,18,-1
 888.232 -390 l 5,19,-1
 984.507 156 l 5,20,21
 838.413 -9 838.413 -9 611.413 -9 c 4,22,23
 397.061 -11 397.061 -11 306.067 145 c 132,-1,24
 215.074 301 215.074 301 256.277 529 c 4,25,26
 302.475 791 302.475 791 453.954 935.5 c 132,-1,27
 605.434 1080 605.434 1080 813.139 1084 c 4,28,29
 951.021 1089 951.021 1089 1031.5 1026.5 c 132,-1,30
 1111.98 964 1111.98 964 1130.63 911 c 5,31,-1
 1159.55 1075 l 5,16,-1
EndSplineSet
EndChar
StartChar: r
Encoding: 114 114 86
Width: 681
VWidth: 2045
Flags: W
HStem: 0 21G<133 260> 952 124<311 580.4>
VStem: 133 116<900 1062> 133 127<0 1062>
Fore
358.038 556 m 2,0,-1
 260 0 l 1,1,-1
 133 0 l 1,2,-1
 320.259 1062 l 1,3,-1
 436.259 1062 l 1,4,-1
 407.694 900 l 1,5,6
 551.552 1075 551.552 1075 721.728 1076 c 16,7,8
 820.08 1078 820.08 1078 890.088 1027 c 1,9,-1
 818.752 906 l 1,10,11
 733.863 952 733.863 952 685.863 952 c 0,12,13
 427.863 952 427.863 952 358.038 556 c 2,0,-1
EndSplineSet
EndChar
StartChar: s
Encoding: 115 115 87
Width: 1022
VWidth: 2045
Flags: W
HStem: -12 124<325.2 698.3> 492 129<310.3 692.6> 961 124<308.7 684.4>
VStem: 64 124<211.1 358> 93 134<710.8 888.9> 781 123<764 862.8> 813 131<201 412.9>
Fore
915.714 764 m 257,0,-1
 1038.71 764 l 257,1,2
 1057.05 868 1057.05 868 988.566 973 c 128,-1,3
 920.08 1078 920.08 1078 674.314 1085 c 256,4,5
 516.844 1088 516.844 1088 387.12 1004.5 c 128,-1,6
 257.397 921 257.397 921 230.358 779 c 256,7,8
 203.85 640 203.85 640 293.83 569 c 128,-1,9
 383.811 498 383.811 498 607.753 492 c 256,10,11
 739.576 491 739.576 491 810.496 439.5 c 128,-1,12
 881.415 388 881.415 388 866.779 305 c 256,13,14
 852.674 225 852.674 225 764.74 171.5 c 128,-1,15
 676.807 118 676.807 118 534.749 112 c 256,16,17
 387.867 107 387.867 107 311.533 176 c 128,-1,18
 235.2 245 235.2 245 251.125 358 c 257,19,-1
 127.125 358 l 257,20,21
 99.4414 201 99.4414 201 192.956 99 c 128,-1,22
 286.471 -3 286.471 -3 514.884 -12 c 256,23,24
 683.002 -17 683.002 -17 828.665 77.5 c 128,-1,25
 974.328 172 974.328 172 1001.31 325 c 256,26,27
 1030.11 477 1030.11 477 922.099 545 c 128,-1,28
 814.089 613 814.089 613 626.499 621 c 256,29,30
 468.557 627 468.557 627 412.402 680 c 128,-1,31
 356.248 733 356.248 733 369.296 807 c 256,32,33
 380.404 870 380.404 870 451.928 915.5 c 128,-1,34
 523.45 961 523.45 961 674.45 961 c 256,35,36
 812.45 961 812.45 961 870.782 900.5 c 128,-1,37
 929.114 840 929.114 840 915.714 764 c 257,0,-1
EndSplineSet
EndChar
StartChar: t
Encoding: 116 116 88
Width: 568
VWidth: 2045
Flags: W
HStem: -12 112<359.015 517.57> 959 101<18 168 293 497>
VStem: 168 125<149.8 959 1060 1432>
Fore
556.749 112 m 1,0,-1
 553.529 3 l 1,1,2
 479.884 -12 479.884 -12 409.884 -12 c 0,3,4
 311.884 -12 311.884 -12 262.968 22.5 c 128,-1,5
 214.051 57 214.051 57 207.512 122 c 128,-1,6
 200.973 187 200.973 187 222.838 311 c 2,7,-1
 337.098 959 l 1,8,-1
 187.098 959 l 1,9,-1
 204.906 1060 l 1,10,-1
 354.906 1060 l 1,11,-1
 420.5 1432 l 1,12,-1
 545.5 1432 l 1,13,-1
 479.906 1060 l 1,14,-1
 683.906 1060 l 1,15,-1
 666.098 959 l 1,16,-1
 462.098 959 l 1,17,-1
 346.074 301 l 2,18,19
 326.854 192 326.854 192 330.653 162.5 c 128,-1,20
 334.451 133 334.451 133 367.542 116.5 c 128,-1,21
 400.633 100 400.633 100 465.633 100 c 0,22,23
 506.162 103 506.162 103 556.749 112 c 1,0,-1
EndSplineSet
EndChar
StartChar: u
Encoding: 117 117 89
Width: 1137
VWidth: 2045
Flags: W
HStem: -9 142<371.5 712.1> 1064 20G<104 230 842 969>
VStem: 104 126<234.5 1084> 842 127<0 121 265.9 1084>
Fore
178.586 423 m 2,0,-1
 295.139 1084 l 1,1,-1
 421.139 1084 l 1,2,-1
 304.586 423 l 2,3,4
 279.019 278 279.019 278 355.735 205.5 c 128,-1,5
 432.451 133 432.451 133 557.451 133 c 0,6,7
 694.451 133 694.451 133 794.763 217 c 128,-1,8
 895.074 301 895.074 301 915.705 418 c 2,9,-1
 1033.14 1084 l 1,10,-1
 1160.14 1084 l 1,11,-1
 969 0 l 1,12,-1
 842 0 l 1,13,-1
 863.336 121 l 1,14,15
 791.874 56 791.874 56 735.644 23.5 c 128,-1,16
 679.413 -9 679.413 -9 535.413 -9 c 0,17,18
 292.413 -9 292.413 -9 220.159 120 c 128,-1,19
 147.905 249 147.905 249 178.586 423 c 2,0,-1
EndSplineSet
EndChar
StartChar: v
Encoding: 118 118 90
Width: 1022
VWidth: 2045
Flags: W
HStem: 0 21G<451 576>
VStem: 26 973<1060 1060>
Fore
451 0 m 1,0,-1
 212.906 1060 l 1,1,-1
 348.906 1060 l 1,2,-1
 546.741 163 l 1,3,-1
 1049.91 1060 l 1,4,-1
 1185.91 1060 l 1,5,-1
 576 0 l 1,6,-1
 451 0 l 1,0,-1
EndSplineSet
EndChar
StartChar: w
Encoding: 119 119 91
Width: 1477
VWidth: 2045
Flags: W
HStem: 0 21G<331 473 974 1116>
Fore
870.404 870 m 17,0,-1
 473 0 l 1,1,-1
 331 0 l 1,2,-1
 192.906 1060 l 1,3,-1
 325.906 1060 l 1,4,-1
 429.741 163 l 1,5,-1
 832.906 1060 l 1,6,-1
 964.906 1060 l 1,7,-1
 1074.74 163 l 1,8,-1
 1473.91 1060 l 1,9,-1
 1595.91 1060 l 1,10,-1
 1116 0 l 1,11,-1
 974 0 l 9,12,-1
 870.404 870 l 17,0,-1
EndSplineSet
EndChar
StartChar: x
Encoding: 120 120 92
Width: 1022
VWidth: 2045
Flags: W
HStem: 0 21G<15 165 857 1007>
VStem: 15 992<0 0>
Fore
15 0 m 1,0,-1
 530.509 553 l 1,1,-1
 230.906 1060 l 1,2,-1
 387.906 1060 l 1,3,-1
 613.437 649 l 1,4,-1
 1020.91 1060 l 1,5,-1
 1166.91 1060 l 1,6,-1
 666.096 562 l 1,7,-1
 1007 0 l 1,8,-1
 857 0 l 1,9,-1
 586.992 465 l 1,10,-1
 165 0 l 1,11,-1
 15 0 l 1,0,-1
EndSplineSet
EndChar
StartChar: y
Encoding: 121 121 93
Width: 1022
VWidth: 2045
Flags: W
VStem: 34 971<1060 1060>
Fore
55.0586 -408 m 0,0,-1
 61.3359 -293 l 1,1,2
 110.867 -307 110.867 -307 158.691 -308 c 0,3,4
 232.691 -308 232.691 -308 319.008 -258 c 128,-1,5
 405.324 -208 405.324 -208 433.42 -60 c 0,6,7
 439.239 -27 439.239 -27 422.051 57 c 2,8,-1
 220.906 1060 l 1,9,-1
 360.906 1060 l 1,10,-1
 548.751 95 l 1,11,-1
 1064.91 1060 l 1,12,-1
 1191.91 1060 l 1,13,-1
 575.249 -95 l 2,14,15
 483.039 -272 483.039 -272 375.991 -346 c 128,-1,16
 268.942 -420 268.942 -420 145.414 -423 c 0,17,18
 101.885 -426 101.885 -426 55.0586 -408 c 0,0,-1
EndSplineSet
EndChar
StartChar: z
Encoding: 122 122 94
Width: 1022
VWidth: 2045
Flags: W
HStem: 0 118<186 979> 953 107<61 791>
Fore
40 0 m 1,0,-1
 60.8066 118 l 1,1,-1
 959.04 953 l 1,2,-1
 229.04 953 l 1,3,-1
 247.906 1060 l 1,4,-1
 1133.91 1060 l 1,5,-1
 1115.04 953 l 1,6,-1
 206.807 118 l 1,7,-1
 999.807 118 l 1,8,-1
 979 0 l 1,9,-1
 40 0 l 1,0,-1
EndSplineSet
EndChar
StartChar: braceleft
Encoding: 123 123 95
Width: 681
VWidth: 2045
Flags: W
HStem: -430 119<452.758 634> 449 163<58 152.9> 1371 119<448.106 634>
VStem: 259.924 118.076<-210.333 117.937> 264 114<-206.125 297.6 773.4 1281.45>
Fore
165.912 612 m 1,0,1
 239.089 613 239.089 613 298.317 654 c 0,2,3
 354.194 693 354.194 693 381.185 761 c 0,4,5
 407.47 825 407.47 825 439.798 997 c 0,6,7
 473.065 1180 473.065 1180 484.59 1217 c 0,8,9
 506.049 1299 506.049 1299 541.57 1353 c 0,10,11
 572.682 1399 572.682 1399 615.677 1433 c 0,12,13
 657.319 1465 657.319 1465 716.964 1480 c 0,14,15
 757.903 1491 757.903 1491 841.728 1490 c 2,16,-1
 896.728 1490 l 1,17,-1
 875.744 1371 l 1,18,-1
 793.744 1371 l 2,19,20
 708.744 1371 708.744 1371 648.575 1319 c 0,21,22
 603.522 1279 603.522 1279 576.896 1128 c 0,23,24
 530.347 864 530.347 864 509.709 798 c 0,25,26
 473.194 693 473.194 693 417.615 633 c 0,27,28
 363.212 574 363.212 574 264.453 530 c 1,29,30
 367.166 483 367.166 483 397.768 390 c 0,31,32
 430.192 296 430.192 296 392.106 80 c 0,33,34
 356.136 -124 356.136 -124 357.375 -151 c 0,35,36
 354.037 -255 354.037 -255 376.334 -276 c 0,37,38
 412.162 -311 412.162 -311 497.162 -311 c 2,39,-1
 579.162 -311 l 1,40,-1
 558.18 -430 l 1,41,-1
 503.18 -430 l 2,42,43
 409.18 -430 409.18 -430 365.001 -414 c 0,44,45
 305.703 -393 305.703 -393 272.049 -340 c 0,46,47
 238.865 -290 238.865 -290 239.972 -210 c 0,48,49
 240.49 -139 240.49 -139 272.464 48 c 0,50,51
 304.318 240 304.318 240 299.546 298 c 0,52,53
 293.712 367 293.712 367 254.941 408 c 0,54,55
 212.818 447 212.818 447 137.171 449 c 1,56,-1
 165.912 612 l 1,0,1
EndSplineSet
EndChar
StartChar: bar
Encoding: 124 124 96
Width: 454
VWidth: 2045
Flags: W
VStem: 172 104<-430 1489>
Fore
96.1797 -430 m 5,0,-1
 434.551 1489 l 5,1,-1
 538.551 1489 l 5,2,-1
 200.18 -430 l 5,3,-1
 96.1797 -430 l 5,0,-1
EndSplineSet
EndChar
StartChar: braceright
Encoding: 125 125 97
Width: 681
VWidth: 2045
Flags: W
HStem: -430 119<49 232.963> 449 163<529.2 628> 1371 119<49 236.625>
VStem: 305 116<-195.1 297.6 773.4 1298.87>
Fore
735.912 612 m 1,0,1
 660.265 614 660.265 614 618.318 654 c 0,2,3
 576.194 693 576.194 693 572.185 761 c 0,4,5
 569.47 825 569.47 825 596.798 997 c 0,6,7
 626.065 1180 626.065 1180 629.59 1217 c 0,8,9
 636.049 1299 636.049 1299 619.57 1353 c 0,10,11
 604.682 1399 604.682 1399 572.677 1433 c 0,12,13
 545.319 1465 545.319 1465 489.964 1480 c 0,14,15
 451.903 1491 451.903 1491 367.728 1490 c 2,16,-1
 311.728 1490 l 1,17,-1
 290.744 1371 l 1,18,-1
 375.744 1371 l 2,19,20
 459.744 1371 459.744 1371 500.575 1319 c 0,21,22
 530.522 1279 530.522 1279 503.896 1128 c 0,23,24
 457.347 864 457.347 864 457.709 798 c 0,25,26
 454.194 693 454.194 693 489.615 633 c 0,27,28
 523.212 574 523.212 574 607.453 530 c 1,29,30
 487.166 483 487.166 483 422.768 390 c 0,31,32
 357.192 296 357.192 296 319.106 80 c 0,33,34
 283.136 -124 283.136 -124 275.375 -151 c 0,35,36
 239.037 -255 239.037 -255 210.334 -276 c 0,37,38
 163.162 -311 163.162 -311 79.1621 -311 c 2,39,-1
 -5.83789 -311 l 1,40,-1
 -26.8203 -430 l 1,41,-1
 29.1797 -430 l 2,42,43
 125.18 -430 125.18 -430 174.001 -414 c 0,44,45
 238.703 -393 238.703 -393 294.049 -340 c 0,46,47
 343.865 -290 343.865 -290 369.972 -210 c 0,48,49
 393.49 -139 393.49 -139 429.464 48 c 0,50,51
 466.318 240 466.318 240 490.546 298 c 0,52,53
 518.712 367 518.712 367 574.941 408 c 0,54,55
 628.818 447 628.818 447 707.171 449 c 1,56,-1
 735.912 612 l 1,0,1
EndSplineSet
EndChar
StartChar: asciitilde
Encoding: 126 126 98
Width: 1350
VWidth: 2045
Flags: W
HStem: 559 136<861.27 1015.3> 692 136<346.5 532.4>
VStem: 171 1021<556 831>
Fore
269.038 556 m 5,0,-1
 296.192 710 l 5,1,2
 422.999 828 422.999 828 593.999 828 c 4,3,4
 654.999 828 654.999 828 716.001 811 c 4,5,6
 765.709 798 765.709 798 892.835 742 c 4,7,8
 957.721 713 957.721 713 990.134 704 c 4,9,10
 1021.55 695 1021.55 695 1058.55 695 c 4,11,12
 1119.55 695 1119.55 695 1198.42 734 c 4,13,14
 1275.3 773 1275.3 773 1338.53 831 c 5,15,-1
 1310.84 674 l 5,16,17
 1237.44 615 1237.44 615 1166.33 586 c 4,18,19
 1097.57 559 1097.57 559 1014.57 559 c 4,20,21
 952.566 559 952.566 559 902.859 572 c 4,22,23
 856.151 585 856.151 585 742.85 640 c 4,24,25
 631.019 692 631.019 692 553.019 692 c 4,26,27
 488.019 692 488.019 692 428.434 666 c 4,28,29
 367.32 637 367.32 637 269.038 556 c 5,0,-1
EndSplineSet
EndChar
StartChar: exclamdown
Encoding: 161 161 100
Width: 705
VWidth: 2045
Flags: W
HStem: 0 21G<250 421> 1058 20G<277 390> 1278 211<238 442>
VStem: 238 204<1278 1489> 250 171<0 213.653> 277 113<864.347 1078>
Fore
667.346 1278 m 1,0,-1
 463.346 1278 l 1,1,-1
 500.551 1489 l 1,2,-1
 704.551 1489 l 1,3,-1
 667.346 1278 l 1,0,-1
421 0 m 1,4,-1
 250 0 l 1,5,-1
 467.08 1078 l 1,6,-1
 580.08 1078 l 1,7,-1
 421 0 l 1,4,-1
EndSplineSet
EndChar
StartChar: cent
Encoding: 162 162 101
Width: 1178
VWidth: 2045
Flags: W
HStem: 1454 20G<564 655>
VStem: 113 140<312.9 799.1> 564 91<-361 0 109 1009 1115 1474>
Fore
673.162 103 m 17,0,1
 876.451 133 876.451 133 1006.85 243 c 1,2,-1
 1016.85 243 l 1,3,-1
 988.635 83 l 1,4,5
 921.521 54 921.521 54 844.29 30 c 0,6,7
 762.882 5 762.882 5 655 0 c 1,8,-1
 591.346 -361 l 1,9,-1
 500.346 -361 l 1,10,-1
 564.529 3 l 1,11,12
 347.113 29 347.113 29 257.328 172 c 0,13,14
 168.366 314 168.366 314 211.038 556 c 0,15,16
 253.004 794 253.004 794 398.1 942 c 0,17,18
 541.373 1091 541.373 1091 760.604 1115 c 1,19,-1
 823.906 1474 l 1,20,-1
 914.906 1474 l 1,21,-1
 851.604 1115 l 1,22,23
 959.075 1112 959.075 1112 1029.37 1091 c 0,24,25
 1105.96 1066 1105.96 1066 1156.67 1036 c 1,26,-1
 1128.29 875 l 1,27,-1
 1118.29 875 l 1,28,29
 1083.51 933 1083.51 933 992.095 976 c 0,30,31
 921.914 1009 921.914 1009 833.972 1015 c 1,32,-1
 673.162 103 l 17,0,1
583.22 109 m 1,33,-1
 741.914 1009 l 1,34,35
 583.211 988 583.211 988 484.522 865 c 0,36,37
 384.011 743 384.011 743 351.038 556 c 128,-1,38
 318.064 369 318.064 369 373.316 257 c 0,39,40
 426.567 145 426.567 145 583.22 109 c 1,33,-1
EndSplineSet
EndChar
StartChar: sterling
Encoding: 163 163 102
Width: 1115
VWidth: 2045
Flags: W
HStem: 0 171<261 1031> 613 138<130 290 482 846> 1350 166<567.4 814.219>
VStem: 290 192<432 613 751 1198>
Fore
1031 0 m 1,0,-1
 88 0 l 1,1,-1
 124.5 207 l 1,2,3
 240.318 240 240.318 240 304.069 335 c 0,4,5
 365.645 429 365.645 429 398.089 613 c 1,6,-1
 238.089 613 l 1,7,-1
 262.422 751 l 1,8,-1
 422.422 751 l 1,9,-1
 478.846 1071 l 2,10,11
 514.288 1272 514.288 1272 651.8 1394 c 0,12,13
 788.312 1516 788.312 1516 974.312 1516 c 0,14,15
 1072.31 1516 1072.31 1516 1136.67 1501 c 0,16,17
 1183.9 1491 1183.9 1491 1259.2 1470 c 1,18,-1
 1222.7 1263 l 1,19,-1
 1213.7 1263 l 1,20,21
 1158.11 1305 1158.11 1305 1095.16 1328 c 0,22,23
 1028.04 1350 1028.04 1350 964.041 1350 c 0,24,25
 842.041 1350 842.041 1350 767.464 1273 c 0,26,27
 693.24 1198 693.24 1198 667.319 1051 c 2,28,-1
 614.422 751 l 1,29,-1
 978.422 751 l 1,30,-1
 954.089 613 l 1,31,-1
 590.089 613 l 1,32,-1
 579.509 553 l 2,33,34
 558.173 432 558.173 432 483.951 340 c 0,35,36
 410.2 245 410.2 245 292.915 181 c 1,37,-1
 291.152 171 l 1,38,-1
 1061.15 171 l 1,39,-1
 1031 0 l 1,0,-1
EndSplineSet
EndChar
StartChar: currency
Encoding: 164 164 103
Width: 1115
VWidth: 2045
Flags: W
HStem: 326 138<483.523 644.955> 858 139<492.359 635.755>
VStem: 226 141<583.433 739.081> 750 145<582.953 744.635>
Fore
1102.96 272 m 1,0,-1
 979.271 166 l 1,1,-1
 802.651 378 l 1,2,3
 757.243 353 757.243 353 712.599 338 c 0,4,5
 670.482 326 670.482 326 617.482 326 c 0,6,7
 569.482 326 569.482 326 527.128 341 c 0,8,9
 486.772 356 486.772 356 450.828 379 c 1,10,-1
 199.741 163 l 1,11,-1
 111.961 272 l 1,12,-1
 362.695 486 l 1,13,14
 346.866 521 346.866 521 338.683 571 c 0,15,16
 336.204 625 336.204 625 342.729 662 c 0,17,18
 349.605 701 349.605 701 370.069 749 c 0,19,20
 393.004 794 393.004 794 424.057 834 c 1,21,-1
 249.319 1051 l 1,22,-1
 375.011 1157 l 1,23,-1
 552.1 942 l 1,24,25
 598.037 970 598.037 970 643.153 982 c 0,26,27
 690.445 995 690.445 995 735.798 997 c 0,28,29
 788.798 997 788.798 997 829.624 979 c 0,30,31
 871.155 965 871.155 965 901.806 946 c 1,32,-1
 1151.01 1157 l 1,33,-1
 1240.32 1051 l 1,34,-1
 989.586 837 l 1,35,36
 1008.83 793 1008.83 793 1014.77 753 c 128,-1,37
 1020.72 713 1020.72 713 1011.73 662 c 0,38,39
 1003.62 616 1003.62 616 981.33 569 c 0,40,41
 958.748 526 958.748 526 927.695 486 c 1,42,-1
 1102.96 272 l 1,0,-1
866.729 662 m 0,43,44
 880.482 740 880.482 740 836.238 801 c 0,45,46
 788.289 858 788.289 858 711.289 858 c 0,47,48
 633.289 858 633.289 858 566.238 801 c 0,49,50
 498.011 743 498.011 743 483.729 662 c 0,51,52
 469.799 583 469.799 583 516.219 523 c 0,53,54
 563.815 464 563.815 464 641.815 464 c 0,55,56
 718.815 464 718.815 464 784.219 523 c 0,57,58
 851.917 578 851.917 578 866.729 662 c 0,43,44
EndSplineSet
EndChar
StartChar: yen
Encoding: 165 165 104
Width: 1115
VWidth: 2045
Flags: W
HStem: 0 21G<463 653> 440 137<125 463 653 991>
VStem: 467 183<0 440 577 657>
Fore
1320.55 1489 m 1,0,-1
 769.373 677 l 1,1,-1
 751.74 577 l 1,2,-1
 1092.74 577 l 1,3,-1
 1068.58 440 l 1,4,-1
 730.584 440 l 1,5,-1
 653 0 l 1,6,-1
 463 0 l 1,7,-1
 540.584 440 l 1,8,-1
 202.584 440 l 1,9,-1
 226.74 577 l 1,10,-1
 568.74 577 l 1,11,-1
 582.847 657 l 1,12,-1
 317.551 1489 l 1,13,-1
 527.551 1489 l 1,14,-1
 709.701 849 l 1,15,-1
 1119.55 1489 l 1,16,-1
 1320.55 1489 l 1,0,-1
EndSplineSet
EndChar
StartChar: brokenbar
Encoding: 166 166 105
Width: 780
VWidth: 2045
Flags: W
VStem: 308 168<-393 405 758 1556>
Fore
609.656 758 m 1,0,-1
 441.656 758 l 1,1,-1
 582.365 1556 l 1,2,-1
 750.365 1556 l 1,3,-1
 609.656 758 l 1,0,-1
406.703 -393 m 1,4,-1
 238.703 -393 l 1,5,-1
 379.412 405 l 1,6,-1
 547.412 405 l 1,7,-1
 406.703 -393 l 1,4,-1
EndSplineSet
EndChar
StartChar: section
Encoding: 167 167 106
Width: 1115
VWidth: 2045
Flags: W
HStem: -385 165<393.485 646.3> 1353 165<460.1 727.199>
VStem: 119 189<474 637.679> 148 192<1102.2 1289.4> 774 194<-103.9 36.0443> 810 188<480.6 631.182>
Fore
829.884 402 m 0,0,1
 861.231 438 861.231 438 878.521 468 c 0,2,3
 897.811 498 897.811 498 908.038 556 c 0,4,5
 916.502 604 916.502 604 908.85 640 c 0,6,7
 898.373 677 898.373 677 878.664 698.5 c 128,-1,8
 858.955 720 858.955 720 827.953 737 c 0,9,10
 803.598 752 803.598 752 760.066 766 c 0,11,12
 716.358 779 716.358 779 687.945 788 c 2,13,-1
 594.412 819 l 1,14,15
 572.296 807 572.296 807 547.945 788 c 0,16,17
 519.596 769 519.596 769 489.953 737 c 0,18,19
 467.721 713 467.721 713 440.786 668 c 0,20,21
 417.676 622 417.676 622 409.917 578 c 0,22,23
 395.811 498 395.811 498 424.347 450 c 0,24,25
 451.884 402 451.884 402 556.064 369 c 2,26,-1
 631.009 346 l 1,27,-1
 721.367 314 l 1,28,29
 740.482 326 740.482 326 771.186 347 c 0,30,31
 800.064 369 800.064 369 829.884 402 c 0,0,1
159.549 -133 m 1,32,33
 165.02 -136 165.02 -136 216.435 -162 c 0,34,35
 242.319 -174 242.319 -174 286.498 -190 c 0,36,37
 332.853 -205 332.853 -205 371.795 -211 c 0,38,39
 403.031 -221 403.031 -221 470.208 -220 c 0,40,41
 580.208 -220 580.208 -220 667.319 -174 c 0,42,43
 752.136 -124 752.136 -124 767.652 -36 c 0,44,45
 777.174 18 777.174 18 764.992 51 c 0,46,47
 751.164 86 751.164 86 717.749 112 c 0,48,49
 679.98 136 679.98 136 620.154 154 c 2,50,-1
 493.854 192 l 2,51,52
 408.439 218 408.439 218 356.848 243 c 0,53,54
 303.079 267 303.079 267 261.838 311 c 0,55,56
 226.715 350 226.715 350 211.941 408 c 0,57,58
 200.287 461 200.287 461 212.806 532 c 0,59,60
 229.557 627 229.557 627 293.368 711 c 0,61,62
 358.709 798 358.709 798 468.288 858 c 1,63,-1
 469.347 864 l 1,64,65
 390.163 914 390.163 914 361.682 985 c 0,66,67
 334.201 1056 334.201 1056 350.07 1146 c 0,68,69
 379.693 1314 379.693 1314 525.855 1417 c 0,70,71
 669.841 1519 669.841 1519 895.664 1518 c 0,72,73
 980.664 1518 980.664 1518 1049.2 1504 c 0,74,75
 1128.55 1489 1128.55 1489 1202.79 1462 c 1,76,-1
 1168.41 1267 l 1,77,-1
 1159.41 1267 l 1,78,79
 1076.52 1313 1076.52 1313 1002.22 1334 c 0,80,81
 930.57 1353 930.57 1353 845.57 1353 c 0,82,83
 732.57 1353 732.57 1353 648.988 1310 c 0,84,85
 562.701 1263 562.701 1263 547.185 1175 c 0,86,87
 537.31 1119 537.31 1119 550.609 1081 c 0,88,89
 565.262 1045 565.262 1045 599.559 1024 c 0,90,91
 633.503 1001 633.503 1001 690.801 980 c 0,92,93
 745.979 964 745.979 964 822.1 942 c 0,94,95
 994.637 894 994.637 894 1062.35 813 c 0,96,97
 1126.42 734 1126.42 734 1103.97 601 c 0,98,99
 1084.75 492 1084.75 492 1014.47 411 c 0,100,101
 945.012 329 945.012 329 848.019 278 c 1,102,-1
 846.432 269 l 1,103,104
 925.497 224 925.497 224 954.154 154 c 0,105,106
 982.635 83 982.635 83 966.413 -9 c 0,107,108
 953.541 -82 953.541 -82 908.846 -154 c 0,109,110
 862.798 -228 862.798 -228 799.51 -275 c 0,111,112
 725.988 -329 725.988 -329 635.228 -356 c 0,113,114
 542.114 -385 542.114 -385 421.114 -385 c 0,115,116
 344.114 -385 344.114 -385 266.406 -372 c 0,117,118
 195.698 -359 195.698 -359 113.518 -326 c 1,119,-1
 147.549 -133 l 1,120,-1
 159.549 -133 l 1,32,33
EndSplineSet
EndChar
StartChar: dieresis
Encoding: 168 168 107
Width: 1115
VWidth: 2045
Flags: W
HStem: 1303 195<253 454 665 866>
VStem: 253 201<1303 1498> 665 201<1303 1498>
Fore
1095.75 1303 m 1,0,-1
 894.754 1303 l 1,1,-1
 929.138 1498 l 1,2,-1
 1130.14 1498 l 1,3,-1
 1095.75 1303 l 1,0,-1
683.754 1303 m 1,4,-1
 482.754 1303 l 1,5,-1
 517.138 1498 l 1,6,-1
 718.138 1498 l 1,7,-1
 683.754 1303 l 1,4,-1
EndSplineSet
EndChar
StartChar: copyright
Encoding: 169 169 108
Width: 1898
VWidth: 2045
Flags: W
HStem: -210 110<550.6 1351.4> 180 146<818.6 1092.5> 995 147<823.8 1079.9> 1408 111<546.7 1355.3>
VStem: 85 118<246.5 1064.2> 531 184<449.4 886.2> 1698 116<246.5 1064.2>
Fore
1929.67 656 m 0,0,1
 1866.02 295 1866.02 295 1568.76 44 c 0,2,3
 1272.97 -210 1272.97 -210 912.972 -210 c 0,4,5
 554.972 -210 554.972 -210 347.759 44 c 0,6,7
 137.017 295 137.017 295 200.671 656 c 0,8,9
 263.443 1012 263.443 1012 563.23 1266 c 0,10,11
 859.841 1519 859.841 1519 1217.84 1519 c 128,-1,12
 1575.84 1519 1575.84 1519 1784.23 1266 c 0,13,14
 1992.44 1012 1992.44 1012 1929.67 656 c 0,0,1
1813.67 656 m 0,15,16
 1869.04 970 1869.04 970 1689.3 1187 c 0,17,18
 1510.27 1408 1510.27 1408 1199.27 1408 c 128,-1,19
 888.269 1408 888.269 1408 630.3 1187 c 0,20,21
 374.037 970 374.037 970 318.671 656 c 0,22,23
 263.128 341 263.128 341 442.336 121 c 0,24,25
 625.367 -100 625.367 -100 933.367 -100 c 128,-1,26
 1241.37 -100 1241.37 -100 1501.34 121 c 0,27,28
 1758.13 341 1758.13 341 1813.67 656 c 0,15,16
1317.96 255 m 1,29,30
 1254.55 230 1254.55 230 1174.62 202 c 0,31,32
 1098.74 180 1098.74 180 1013.74 180 c 0,33,34
 802.739 180 802.739 180 704.604 304 c 0,35,36
 606.115 426 606.115 426 647.376 660 c 0,37,38
 687.578 888 687.578 888 834.972 1015 c 0,39,40
 980.365 1142 980.365 1142 1183.37 1142 c 0,41,42
 1265.37 1142 1265.37 1142 1337.16 1121 c 128,-1,43
 1408.96 1100 1408.96 1100 1461.49 1069 c 1,44,-1
 1429.58 888 l 1,45,-1
 1412.58 888 l 1,46,47
 1377.28 926 1377.28 926 1306.45 961 c 0,48,49
 1233.45 995 1233.45 995 1160.45 995 c 0,50,51
 1036.45 995 1036.45 995 951.163 914 c 0,52,53
 862.057 834 862.057 834 831.376 660 c 0,54,55
 802.811 498 802.811 498 857.471 411 c 0,56,57
 914.482 326 914.482 326 1042.48 326 c 0,58,59
 1126.48 326 1126.48 326 1207.18 364 c 0,60,61
 1290.35 399 1290.35 399 1332.35 433 c 1,62,-1
 1349.35 433 l 1,63,-1
 1317.96 255 l 1,29,30
EndSplineSet
EndChar
StartChar: ordfeminine
Encoding: 170 170 109
Width: 1007
VWidth: 2045
Flags: W
HStem: 541 154<348.2 514.687> 1029.92 133.077<392.671 707.527> 1365 154<378 594.533>
VStem: 113 172<750.2 937.4> 707 166<565 657 802 1045 1184 1258.64>
Fore
972.625 565 m 1,0,-1
 806.625 565 l 1,1,-1
 822.847 657 l 1,2,-1
 764.97 618 l 2,3,4
 724.386 592 724.386 592 695.27 580 c 0,5,6
 651.096 562 651.096 562 611.509 553 c 0,7,8
 572.393 541 572.393 541 497.393 541 c 0,9,10
 376.393 541 376.393 541 307.028 624 c 0,11,12
 237.84 708 237.84 708 261.114 840 c 0,13,14
 279.1 942 279.1 942 334.562 1007 c 0,15,16
 390.552 1075 390.552 1075 477.075 1112 c 0,17,18
 556.424 1148 556.424 1148 675.068 1163 c 0,19,20
 789.713 1178 789.713 1178 915.771 1184 c 1,21,-1
 918.945 1202 l 2,22,23
 927.762 1252 927.762 1252 918.933 1287 c 0,24,25
 906.575 1319 906.575 1319 878.749 1337 c 0,26,27
 851.57 1353 851.57 1353 809.628 1359 c 0,28,29
 764.687 1365 764.687 1365 722.687 1365 c 0,30,31
 642.687 1365 642.687 1365 559.454 1341 c 0,32,33
 481.752 1320 481.752 1320 433.754 1303 c 1,34,-1
 418.754 1303 l 1,35,-1
 448.906 1474 l 1,36,37
 481.493 1483 481.493 1483 584.667 1501 c 0,38,39
 674.841 1519 674.841 1519 749.841 1519 c 0,40,41
 942.841 1519 942.841 1519 1027.09 1441 c 0,42,43
 1112.69 1365 1112.69 1365 1083.36 1193 c 2,44,-1
 972.625 565 l 1,0,-1
848.414 802 m 1,45,-1
 891.262 1045 l 1,46,-1
 738.146 1033 l 2,47,48
 657.088 1027 657.088 1027 596.914 1009 c 0,49,50
 536.27 994 536.27 994 491.393 955 c 0,51,52
 448.691 917 448.691 917 434.701 849 c 0,53,54
 421.301 773 421.301 773 458.424 734 c 0,55,56
 496.547 695 496.547 695 582.547 695 c 0,57,58
 657.547 695 657.547 695 726.366 728 c 0,59,60
 796.714 764 796.714 764 848.414 802 c 1,45,-1
EndSplineSet
EndChar
StartChar: guillemotleft
Encoding: 171 171 110
Width: 1170
VWidth: 2045
Flags: W
HStem: 162 980<613 613>
VStem: 104 939<190 607>
Fore
1076.5 190 m 1,0,-1
 662.56 610 l 1,1,-1
 677.547 695 l 1,2,-1
 1239.08 1112 l 1,3,-1
 1205.93 924 l 1,4,-1
 840.965 652 l 1,5,-1
 1109.83 379 l 1,6,-1
 1076.5 190 l 1,0,-1
641.564 162 m 1,7,-1
 211.03 607 l 1,8,-1
 227.076 698 l 1,9,-1
 814.365 1142 l 1,10,-1
 779.806 946 l 1,11,-1
 396.965 652 l 1,12,-1
 676.125 358 l 1,13,-1
 641.564 162 l 1,7,-1
EndSplineSet
EndChar
StartChar: logicalnot
Encoding: 172 172 111
Width: 1486
VWidth: 2045
Flags: W
HStem: 601 160<157 1151>
VStem: 1151 171<57 601>
Fore
1332.05 57 m 1,0,-1
 1161.05 57 l 1,1,-1
 1256.97 601 l 1,2,-1
 262.973 601 l 1,3,-1
 291.185 761 l 1,4,-1
 1456.18 761 l 1,5,-1
 1332.05 57 l 1,0,-1
EndSplineSet
EndChar
StartChar: registered
Encoding: 174 174 113
Width: 1898
VWidth: 2045
Flags: W
HStem: -210 110<550.6 1351.4> 569 126<814 936> 1004 126<814 1031.36> 1408 111<546.7 1355.3>
VStem: 85 118<246.5 1064.2> 649 165<214 569 695 1004> 1119 183<793.732 929.399> 1698 116<246.5 1064.2>
Fore
1929.67 656 m 0,0,1
 1866.02 295 1866.02 295 1568.76 44 c 0,2,3
 1272.97 -210 1272.97 -210 912.972 -210 c 0,4,5
 554.972 -210 554.972 -210 347.759 44 c 0,6,7
 137.017 295 137.017 295 200.671 656 c 0,8,9
 263.443 1012 263.443 1012 563.23 1266 c 0,10,11
 859.841 1519 859.841 1519 1217.84 1519 c 128,-1,12
 1575.84 1519 1575.84 1519 1784.23 1266 c 0,13,14
 1992.44 1012 1992.44 1012 1929.67 656 c 0,0,1
1813.67 656 m 0,15,16
 1869.04 970 1869.04 970 1689.3 1187 c 0,17,18
 1510.27 1408 1510.27 1408 1199.27 1408 c 128,-1,19
 888.269 1408 888.269 1408 630.3 1187 c 0,20,21
 374.037 970 374.037 970 318.671 656 c 0,22,23
 263.128 341 263.128 341 442.336 121 c 0,24,25
 625.367 -100 625.367 -100 933.367 -100 c 128,-1,26
 1241.37 -100 1241.37 -100 1501.34 121 c 0,27,28
 1758.13 341 1758.13 341 1813.67 656 c 0,15,16
1484.73 214 m 1,29,-1
 1257.73 214 l 1,30,-1
 1036.33 569 l 1,31,-1
 914.33 569 l 1,32,-1
 851.734 214 l 1,33,-1
 686.734 214 l 1,34,-1
 848.25 1130 l 1,35,-1
 1126.25 1130 l 2,36,37
 1223.25 1130 1223.25 1130 1273.84 1122 c 0,38,39
 1327.6 1115 1327.6 1115 1377.14 1084 c 0,40,41
 1431.79 1048 1431.79 1048 1451.5 1001 c 0,42,43
 1468.39 955 1468.39 955 1456.99 879 c 0,44,45
 1438.83 776 1438.83 776 1369.9 714 c 0,46,47
 1306.79 651 1306.79 651 1209.44 615 c 1,48,-1
 1484.73 214 l 1,29,-1
1271.88 867 m 0,49,50
 1278.58 905 1278.58 905 1271.34 932 c 0,51,52
 1263.92 958 1263.92 958 1236.27 977 c 0,53,54
 1215.27 994 1215.27 994 1185.33 1000 c 0,55,56
 1153.03 1004 1153.03 1004 1107.03 1004 c 2,57,-1
 991.032 1004 l 1,58,-1
 936.547 695 l 1,59,-1
 1034.55 695 l 2,60,61
 1082.55 695 1082.55 695 1126.31 705 c 0,62,63
 1168.9 714 1168.9 714 1199.95 737 c 0,64,65
 1232.18 761 1232.18 761 1246.47 791 c 0,66,67
 1263.94 822 1263.94 822 1271.88 867 c 0,49,50
EndSplineSet
EndChar
StartChar: macron
Encoding: 175 175 114
Width: 1115
VWidth: 2045
Flags: W
HStem: 1658 130<-15 1133>
Fore
1425.35 1658 m 1,0,-1
 277.351 1658 l 1,1,-1
 300.272 1788 l 1,2,-1
 1448.27 1788 l 1,3,-1
 1425.35 1658 l 1,0,-1
EndSplineSet
EndChar
StartChar: degree
Encoding: 176 176 115
Width: 961
VWidth: 2045
Flags: W
HStem: 755 151<361.1 604.2> 1362 151<357.2 604.2>
VStem: 101 157<1006.6 1260.1> 704 159<1010.5 1260.1>
Fore
1062.96 1134 m 0,0,1
 1035.09 976 1035.09 976 905.611 865.5 c 128,-1,2
 776.127 755 776.127 755 615.127 755 c 0,3,4
 456.127 755 456.127 755 364.347 864 c 128,-1,5
 272.566 973 272.566 973 300.955 1134 c 0,6,7
 329.167 1294 329.167 1294 457.739 1405 c 0,8,9
 586.783 1513 586.783 1513 748.283 1513 c 128,-1,10
 909.783 1513 909.783 1513 1000.74 1405 c 0,11,12
 1091.17 1294 1091.17 1294 1062.96 1134 c 0,0,1
903.955 1134 m 0,13,14
 921.059 1231 921.059 1231 868.607 1296.5 c 128,-1,15
 816.157 1362 816.157 1362 722.157 1362 c 0,16,17
 626.157 1362 626.157 1362 550.607 1296.5 c 128,-1,18
 475.059 1231 475.059 1231 457.955 1134 c 0,19,20
 440.675 1036 440.675 1036 494.566 973 c 0,21,22
 548.752 906 548.752 906 641.752 906 c 0,23,24
 735.752 906 735.752 906 811.566 973 c 0,25,26
 887.204 1039 887.204 1039 903.955 1134 c 0,13,14
EndSplineSet
EndChar
StartChar: plusminus
Encoding: 177 177 116
Width: 1486
VWidth: 2045
Flags: W
HStem: 159 158<162 662 828 1326> 739 158<162 662 828 1326>
VStem: 662 166<317 739 897 1402>
Fore
1354.04 159 m 1,0,-1
 190.036 159 l 1,1,-1
 217.896 317 l 1,2,-1
 717.896 317 l 1,3,-1
 792.306 739 l 1,4,-1
 292.306 739 l 1,5,-1
 320.165 897 l 1,6,-1
 820.165 897 l 1,7,-1
 909.211 1402 l 1,8,-1
 1075.21 1402 l 1,9,-1
 986.165 897 l 1,10,-1
 1484.17 897 l 1,11,-1
 1456.31 739 l 1,12,-1
 958.306 739 l 1,13,-1
 883.896 317 l 1,14,-1
 1381.9 317 l 1,15,-1
 1354.04 159 l 1,0,-1
EndSplineSet
EndChar
StartChar: uni00B2
Encoding: 178 178 117
Width: 1007
VWidth: 2045
Flags: W
HStem: 565 145<372 866> 1371 148<369.368 553.2>
VStem: 619 183<1128.5 1314.4>
Fore
965.625 565 m 1,0,-1
 283.625 565 l 1,1,-1
 310.427 717 l 1,2,-1
 478.527 831 l 2,3,4
 558.05 885 558.05 885 610.808 929 c 0,5,6
 733.617 1030 733.617 1030 776.844 1088 c 0,7,8
 820.895 1145 820.895 1145 835.177 1226 c 0,9,10
 847.167 1294 847.167 1294 811.221 1334 c 0,11,12
 772.744 1371 772.744 1371 698.744 1371 c 0,13,14
 628.744 1371 628.744 1371 553.454 1341 c 128,-1,15
 478.165 1311 478.165 1311 431.346 1278 c 1,16,-1
 416.346 1278 l 1,17,-1
 448.085 1458 l 1,18,19
 518.021 1486 518.021 1486 593.667 1501 c 0,20,21
 676.841 1519 676.841 1519 747.841 1519 c 0,22,23
 904.841 1519 904.841 1519 973.734 1439 c 0,24,25
 1043.16 1362 1043.16 1362 1020.47 1239 c 0,26,27
 1005.48 1154 1005.48 1154 951.552 1075 c 0,28,29
 901.975 998 901.975 998 774.694 900 c 0,30,31
 724.817 861 724.817 861 636.414 802 c 2,32,-1
 497.192 710 l 1,33,-1
 991.192 710 l 1,34,-1
 965.625 565 l 1,0,-1
EndSplineSet
EndChar
StartChar: uni00B3
Encoding: 179 179 118
Width: 1007
VWidth: 2045
Flags: W
HStem: 541 139<368.6 580.5> 967 139<334 546> 1381 139<385.9 586.1>
VStem: 640 174<1166.6 1326> 665 171<735.7 918.45>
Fore
981.999 828 m 0,0,1
 969.479 757 969.479 757 929.605 701 c 0,2,3
 889.378 643 889.378 643 836.56 610 c 0,4,5
 778.388 575 778.388 575 711.566 559 c 0,6,7
 650.393 541 650.393 541 568.893 541 c 128,-1,8
 487.393 541 487.393 541 418.038 556 c 0,9,10
 345.859 572 345.859 572 288.796 600 c 1,11,-1
 319.653 775 l 1,12,-1
 337.653 775 l 1,13,14
 368.482 740 368.482 740 439.192 710 c 0,15,16
 511.902 680 511.902 680 589.902 680 c 0,17,18
 674.902 680 674.902 680 736.427 717 c 128,-1,19
 797.95 754 797.95 754 810.558 825.5 c 128,-1,20
 823.165 897 823.165 897 786.513 933 c 0,21,22
 746.508 967 746.508 967 643.508 967 c 2,23,-1
 504.508 967 l 1,24,-1
 529.018 1106 l 1,25,-1
 654.018 1106 l 2,26,27
 741.018 1106 741.018 1106 794.895 1145 c 0,28,29
 848.595 1183 848.595 1183 860.056 1248 c 0,30,31
 870.636 1308 870.636 1308 835.983 1344 c 0,32,33
 803.508 1381 803.508 1381 716.508 1381 c 0,34,35
 649.508 1381 649.508 1381 566.865 1349 c 0,36,37
 487.575 1319 487.575 1319 442.051 1282 c 1,38,-1
 424.051 1282 l 1,39,-1
 455.085 1458 l 1,40,41
 532.021 1486 532.021 1486 602.667 1501 c 0,42,43
 682.841 1519 682.841 1519 759.017 1520 c 0,44,45
 911.017 1520 911.017 1520 984.321 1448 c 0,46,47
 1056.98 1378 1056.98 1378 1039.88 1281 c 0,48,49
 1024.36 1193 1024.36 1193 965.483 1137 c 0,50,51
 903.08 1078 903.08 1078 825.849 1054 c 1,52,-1
 824.614 1047 l 1,53,54
 904.617 1030 904.617 1030 950.095 976 c 0,55,56
 998.75 923 998.75 923 981.999 828 c 0,0,1
EndSplineSet
EndChar
StartChar: acute
Encoding: 180 180 119
Width: 1115
VWidth: 2045
Flags: W
HStem: 1302 373<598 869>
VStem: 448 421<1302 1675>
Fore
1164.35 1675 m 1,0,-1
 827.578 1302 l 1,1,-1
 677.578 1302 l 1,2,-1
 923.348 1675 l 1,3,-1
 1164.35 1675 l 1,0,-1
EndSplineSet
EndChar
StartChar: mu
Encoding: 181 181 120
Width: 1160
VWidth: 2045
Flags: W
HStem: -18 181<465.5 693>
VStem: 136 188<-411 115 275 1116> 839 186<275 1116> 854 171<0 116>
Fore
1025 0 m 1,0,-1
 854 0 l 1,1,-1
 874.454 116 l 1,2,-1
 868.454 116 l 1,3,4
 795.992 51 795.992 51 730.174 18 c 0,5,6
 664.826 -18 664.826 -18 572.826 -18 c 0,7,8
 481.826 -18 481.826 -18 436.174 18 c 0,9,10
 389.346 53 389.346 53 344.277 115 c 1,11,-1
 251.529 -411 l 1,12,-1
 63.5293 -411 l 1,13,-1
 332.781 1116 l 1,14,-1
 520.781 1116 l 1,15,-1
 372.49 275 l 1,16,17
 406.674 225 406.674 225 462.031 193 c 0,18,19
 519.741 163 519.741 163 604.741 163 c 0,20,21
 694.741 163 694.741 163 763.031 193 c 0,22,23
 829.497 224 829.497 224 887.49 275 c 1,24,-1
 1035.78 1116 l 1,25,-1
 1221.78 1116 l 1,26,-1
 1025 0 l 1,0,-1
EndSplineSet
EndChar
StartChar: paragraph
Encoding: 182 182 121
Width: 1115
VWidth: 2045
Flags: W
HStem: 1359 130<654 842>
VStem: 515 139<-362 592> 842 138<-362 1359>
Fore
916.17 -362 m 1,0,-1
 778.17 -362 l 1,1,-1
 1081.63 1359 l 1,2,-1
 893.628 1359 l 1,3,-1
 590.17 -362 l 1,4,-1
 451.17 -362 l 1,5,-1
 619.386 592 l 1,6,7
 413.443 598 413.443 598 310.308 722 c 128,-1,8
 207.173 846 207.173 846 243.144 1050 c 0,9,10
 279.643 1257 279.643 1257 427.744 1371 c 0,11,12
 579.551 1489 579.551 1489 822.551 1489 c 2,13,-1
 1242.55 1489 l 1,14,-1
 916.17 -362 l 1,0,-1
EndSplineSet
EndChar
StartChar: periodcentered
Encoding: 183 183 122
Width: 722
VWidth: 2045
Flags: W
HStem: 831 285<242 482>
VStem: 242 240<831 1116>
Fore
628.527 831 m 1,0,-1
 388.527 831 l 1,1,-1
 438.781 1116 l 1,2,-1
 678.781 1116 l 1,3,-1
 628.527 831 l 1,0,-1
EndSplineSet
EndChar
StartChar: cedilla
Encoding: 184 184 123
Width: 1115
VWidth: 2045
Flags: W
HStem: -423 151<356.15 562.5>
VStem: 610 155<-102.602 15.1272> 613 158<-218.8 -8.19973>
Fore
768.526 20 m 1,0,1
 768.353 2 768.353 2 763.416 -26 c 0,2,3
 761.654 -53 761.654 -53 755.307 -89 c 0,4,5
 726.565 -252 726.565 -252 626.578 -337 c 0,6,7
 523.414 -423 523.414 -423 392.414 -423 c 0,8,9
 353.414 -423 353.414 -423 304.972 -417 c 128,-1,10
 256.529 -411 256.529 -411 219.646 -399 c 1,11,-1
 247.857 -239 l 1,12,-1
 256.857 -239 l 1,13,14
 278.742 -251 278.742 -251 313.626 -263 c 0,15,16
 353.039 -272 353.039 -272 391.039 -272 c 0,17,18
 486.039 -272 486.039 -272 531.739 -234 c 0,19,20
 578.969 -193 578.969 -193 594.133 -107 c 0,21,22
 599.07 -79 599.07 -79 604.184 -50 c 0,23,24
 607.002 -17 607.002 -17 613.526 20 c 1,25,-1
 768.526 20 l 1,0,1
EndSplineSet
EndChar
StartChar: uni0E01
Encoding: 3585 3585 124
Width: 1248
VWidth: 2045
Flags: W
HStem: 0 21G<250 363 985 1098> 764 112<239 250 363 476> 1142 112<468.8 737.9>
VStem: 250 113<0 764> 985 113<0 897.9>
Fore
363 0 m 17,0,-1
 250 0 l 9,1,-1
 384.714 764 l 9,2,-1
 244.714 764 l 1,3,4
 268.165 897 268.165 897 353.914 1009 c 128,-1,5
 439.662 1121 439.662 1121 565.389 1187.5 c 128,-1,6
 691.114 1254 691.114 1254 825.114 1254 c 256,7,8
 959.114 1254 959.114 1254 1060.89 1187.5 c 128,-1,9
 1162.66 1121 1162.66 1121 1209.41 1009 c 128,-1,10
 1256.17 897 1256.17 897 1232.71 764 c 2,11,-1
 1098 0 l 1,12,-1
 985 0 l 1,13,-1
 1119.71 764 l 2,14,15
 1137.88 867 1137.88 867 1102.04 953 c 128,-1,16
 1066.2 1039 1066.2 1039 987.284 1090.5 c 128,-1,17
 908.365 1142 908.365 1142 805.365 1142 c 256,18,19
 701.365 1142 701.365 1142 603.784 1090.5 c 128,-1,20
 506.204 1039 506.204 1039 460.271 977 c 128,-1,21
 414.339 915 414.339 915 393.463 876 c 9,22,-1
 630.463 876 l 1,23,-1
 610.714 764 l 1,24,-1
 497.714 764 l 17,25,-1
 363 0 l 17,0,-1
EndSplineSet
EndChar
StartChar: uni0E02
Encoding: 3586 3586 125
Width: 1173
VWidth: 2045
Flags: W
HStem: 0 112<348 460 573 912> 749 112<253.5 344.5> 1142 112<347.371 518.6>
VStem: 102 111<900.65 990.35> 383 114<900.65 990.35> 462 111<112 651.4> 610 114<812.1 1051.3> 912 113<112 1254>
Fore
550.778 1133 m 1,0,1
 598.662 1121 598.662 1121 629.609 1081 c 0,2,3
 677.559 1024 677.559 1024 663.453 944 c 128,-1,4
 649.347 864 649.347 864 581.208 806.5 c 128,-1,5
 513.069 749 513.069 749 431.569 749 c 128,-1,6
 350.069 749 350.069 749 302.208 806.5 c 128,-1,7
 254.347 864 254.347 864 268.453 944 c 0,8,9
 291.022 1072 291.022 1072 398.068 1163 c 128,-1,10
 505.114 1254 505.114 1254 633.614 1254 c 128,-1,11
 762.114 1254 762.114 1254 837.568 1163 c 128,-1,12
 913.022 1072 913.022 1072 890.1 942 c 0,13,14
 867.883 816 867.883 816 774.75 716 c 128,-1,15
 681.617 616 681.617 616 660.811 498 c 2,16,-1
 592.749 112 l 17,17,-1
 931.749 112 l 25,18,-1
 1133.11 1254 l 1,19,-1
 1246.11 1254 l 1,20,-1
 1025 0 l 9,21,-1
 348 0 l 1,22,-1
 367.749 112 l 1,23,-1
 479.749 112 l 25,24,-1
 549.811 498 l 2,25,26
 577.437 649 577.437 649 668.04 746 c 152,-1,27
 758.644 843 758.644 843 776.806 946 c 0,28,29
 791.088 1027 791.088 1027 743.227 1084.5 c 128,-1,30
 695.365 1142 695.365 1142 613.365 1142 c 0,31,32
 582.365 1142 582.365 1142 550.778 1133 c 1,0,1
379.717 945.5 m 128,-1,34
 373.634 911 373.634 911 394.726 886 c 128,-1,35
 415.817 861 415.817 861 450.817 861 c 128,-1,36
 485.817 861 485.817 861 514.726 886 c 128,-1,37
 543.634 911 543.634 911 549.717 945.5 c 128,-1,38
 555.801 980 555.801 980 535.709 1005 c 128,-1,39
 515.617 1030 515.617 1030 480.617 1030 c 128,-1,40
 445.617 1030 445.617 1030 415.709 1005 c 128,-1,33
 385.801 980 385.801 980 379.717 945.5 c 128,-1,34
EndSplineSet
EndChar
StartChar: uni0E03
Encoding: 3587 3587 126
Width: 1248
VWidth: 2045
Flags: W
HStem: 0 112<421 534 647 985> 633 113<279.5 370.5> 914 110<279.5 370.5>
VStem: 85 154<783.5 922.5> 409 112.5<783.5 874.5> 534 113<112 651.4> 690.576 113.424<824.8 1043.2> 985 113<112 1254>
Fore
970.981 947 m 140,-1,1
 948.47 825 948.47 825 851.544 720.5 c 132,-1,2
 754.617 616 754.617 616 734.811 498 c 6,3,-1
 666.749 112 l 1,4,-1
 1004.75 112 l 1,5,-1
 1206.11 1254 l 25,6,-1
 1319.11 1254 l 17,7,-1
 1098 0 l 1,8,-1
 421 0 l 1,9,-1
 440.749 112 l 1,10,-1
 553.749 112 l 1,11,-1
 621.811 498 l 6,12,13
 648.437 649 648.437 649 743.657 749.5 c 156,-1,14
 838.878 850 838.878 850 855.189 934 c 148,-1,15
 871.501 1018 871.501 1018 852.141 1067 c 132,-1,16
 832.781 1116 832.781 1116 811.191 1124 c 5,17,-1
 659.204 1039 l 5,18,-1
 525.25 1130 l 21,19,20
 498.191 1124 498.191 1124 446.609 1081 c 132,-1,21
 395.027 1038 395.027 1038 370.095 976 c 5,22,23
 451.559 1024 451.559 1024 505.559 1024 c 4,24,25
 586.559 1024 586.559 1024 633.92 966.5 c 132,-1,26
 681.281 909 681.281 909 667.587 828.5 c 132,-1,27
 653.893 748 653.893 748 585.754 690.5 c 132,-1,28
 517.615 633 517.615 633 436.615 633 c 4,29,30
 335.615 633 335.615 633 278.987 706 c 132,-1,31
 222.358 779 222.358 779 247.662 922.5 c 132,-1,32
 272.965 1066 272.965 1066 371.6 1149 c 132,-1,33
 470.234 1232 470.234 1232 561.114 1254 c 5,34,-1
 682.479 1171 l 5,35,-1
 831.114 1254 l 5,36,37
 882.588 1234 882.588 1234 938.041 1151.5 c 132,-1,0
 993.493 1069 993.493 1069 970.981 947 c 140,-1,1
385.175 829 m 132,-1,39
 379.004 794 379.004 794 400.271 770 c 132,-1,40
 421.54 746 421.54 746 456.54 746 c 132,-1,41
 491.54 746 491.54 746 520.271 770 c 132,-1,42
 549.004 794 549.004 794 555.175 829 c 132,-1,43
 561.347 864 561.347 864 541.255 889 c 132,-1,44
 521.163 914 521.163 914 486.163 914 c 132,-1,45
 451.163 914 451.163 914 421.255 889 c 132,-1,38
 391.347 864 391.347 864 385.175 829 c 132,-1,39
EndSplineSet
EndChar
StartChar: uni0E04
Encoding: 3588 3588 127
Width: 1301
VWidth: 2045
Flags: W
HStem: 0 21G<171 284 1018 1131> 547 115<602.5 693.5> 828 111<602.5 693.5> 1142 112<522.3 779.7>
VStem: 171 113<290 906> 733 112<699.65 789.35> 1018 113<0 906>
Fore
1154.83 776 m 6,0,1
 1172.46 876 1172.46 876 1138.77 960 c 132,-1,2
 1105.08 1044 1105.08 1044 1028.23 1093 c 132,-1,3
 951.365 1142 951.365 1142 852.365 1142 c 132,-1,4
 753.365 1142 753.365 1142 659.226 1093 c 132,-1,5
 565.085 1044 565.085 1044 501.773 960 c 132,-1,6
 438.463 876 438.463 876 420.83 776 c 6,7,-1
 335.135 290 l 21,8,-1
 606.883 816 l 22,9,10
 625.701 849 625.701 849 664.521 882 c 4,11,12
 732.571 939 732.571 939 813.571 939 c 132,-1,13
 894.571 939 894.571 939 942.521 882 c 132,-1,14
 990.47 825 990.47 825 976.1 743.5 c 132,-1,15
 961.729 662 961.729 662 893.59 604.5 c 132,-1,16
 825.451 547 825.451 547 744.451 547 c 132,-1,17
 663.451 547 663.451 547 615.502 604 c 4,18,19
 610.56 610 610.56 610 607.441 615 c 13,20,-1
 284 0 l 13,21,-1
 171 0 l 21,22,-1
 307.83 776 l 6,23,24
 330.752 906 330.752 906 414.061 1015.5 c 132,-1,25
 497.368 1125 497.368 1125 619.741 1189.5 c 132,-1,26
 742.114 1254 742.114 1254 872.114 1254 c 132,-1,27
 1002.11 1254 1002.11 1254 1101.74 1189.5 c 132,-1,28
 1201.37 1125 1201.37 1125 1246.06 1015.5 c 132,-1,29
 1290.75 906 1290.75 906 1267.83 776 c 6,30,-1
 1131 0 l 5,31,-1
 1018 0 l 5,32,-1
 1154.83 776 l 6,0,1
695.275 744.5 m 132,-1,34
 689.192 710 689.192 710 709.46 686 c 132,-1,35
 729.729 662 729.729 662 764.729 662 c 132,-1,36
 799.729 662 799.729 662 828.96 686 c 132,-1,37
 858.192 710 858.192 710 864.275 744.5 c 132,-1,38
 870.358 779 870.358 779 849.679 803.5 c 132,-1,39
 828.999 828 828.999 828 793.999 828 c 132,-1,40
 758.999 828 758.999 828 730.179 803.5 c 132,-1,33
 701.358 779 701.358 779 695.275 744.5 c 132,-1,34
EndSplineSet
EndChar
StartChar: uni0E05
Encoding: 3589 3589 128
Width: 1301
VWidth: 2045
Flags: W
HStem: 0 21G<175 288 1018 1131> 526 111<606.5 697.5> 807 108<606.5 697.5>
VStem: 175 113<290 1024> 736 113<676.5 767.5> 1018 113<0 1051.8>
Fore
339.135 290 m 21,0,-1
 606.475 791 l 22,1,2
 623.646 826 623.646 826 663.289 858 c 4,3,4
 731.339 915 731.339 915 812.839 915 c 132,-1,5
 894.339 915 894.339 915 942.289 858 c 132,-1,6
 990.238 801 990.238 801 976.044 720.5 c 132,-1,7
 961.85 640 961.85 640 893.799 583 c 132,-1,8
 825.748 526 825.748 526 744.248 526 c 132,-1,9
 662.748 526 662.748 526 614.799 583 c 4,10,11
 610.681 588 610.681 588 605.386 592 c 13,12,-1
 288 0 l 5,13,-1
 175 0 l 13,14,-1
 338.455 927 l 6,15,16
 363.493 1069 363.493 1069 477.598 1166 c 4,17,18
 555.059 1231 555.059 1231 640.114 1254 c 13,19,-1
 847.488 1103 l 5,20,-1
 1106.11 1254 l 21,21,22
 1184.06 1231 1184.06 1231 1236.6 1166 c 4,23,24
 1319.49 1069 1319.49 1069 1294.46 927 c 6,25,-1
 1131 0 l 5,26,-1
 1018 0 l 5,27,-1
 1181.46 927 l 6,28,29
 1198.38 1023 1198.38 1023 1143.84 1088 c 4,30,31
 1121.6 1115 1121.6 1115 1095.25 1130 c 13,32,-1
 824.566 973 l 5,33,-1
 608.25 1130 l 21,34,35
 575.604 1115 575.604 1115 543.844 1088 c 4,36,37
 467.559 1024 467.559 1024 451.455 927 c 6,38,-1
 339.135 290 l 21,0,-1
695.309 722 m 132,-1,40
 689.137 687 689.137 687 709.229 662 c 132,-1,41
 729.32 637 729.32 637 764.32 637 c 132,-1,42
 799.32 637 799.32 637 828.229 662 c 132,-1,43
 857.137 687 857.137 687 863.309 722 c 132,-1,44
 869.479 757 869.479 757 849.388 782 c 132,-1,45
 829.296 807 829.296 807 794.296 807 c 132,-1,46
 759.296 807 759.296 807 730.388 782 c 132,-1,39
 701.479 757 701.479 757 695.309 722 c 132,-1,40
EndSplineSet
EndChar
StartChar: uni0E06
Encoding: 3590 3590 129
Width: 1519
VWidth: 2045
Flags: W
HStem: 0 113<451.5 542.5> 281 110<451.5 542.5> 633 113<327.35 419.65> 914 110<327.35 419.65>
VStem: 134 154<783.5 922.5> 300 112<152.5 243.5> 457 113<783.5 874.5> 582 113<152.5 218 373 651.4> 739.5 113.5<824.8 1043.2> 1235 113<112 1254>
Fore
434.175 829 m 132,-1,1
 428.004 794 428.004 794 448.771 770 c 132,-1,2
 469.54 746 469.54 746 505.04 746 c 132,-1,3
 540.54 746 540.54 746 568.771 770 c 132,-1,4
 597.004 794 597.004 794 603.175 829 c 132,-1,5
 609.347 864 609.347 864 589.755 889 c 132,-1,6
 570.163 914 570.163 914 534.663 914 c 132,-1,7
 499.163 914 499.163 914 469.755 889 c 132,-1,0
 440.347 864 440.347 864 434.175 829 c 132,-1,1
669.811 498 m 6,8,9
 696.437 649 696.437 649 792.157 749.5 c 156,-1,10
 887.878 850 887.878 850 904.189 934 c 148,-1,11
 920.501 1018 920.501 1018 901.141 1067 c 132,-1,12
 881.781 1116 881.781 1116 860.191 1124 c 5,13,-1
 707.204 1039 l 5,14,-1
 574.25 1130 l 21,15,16
 547.191 1124 547.191 1124 495.609 1081 c 132,-1,17
 444.027 1038 444.027 1038 419.095 976 c 5,18,19
 500.559 1024 500.559 1024 554.559 1024 c 4,20,21
 634.559 1024 634.559 1024 682.42 966.5 c 132,-1,22
 730.281 909 730.281 909 716.087 828.5 c 132,-1,23
 701.893 748 701.893 748 633.754 690.5 c 132,-1,24
 565.615 633 565.615 633 485.615 633 c 4,25,26
 384.615 633 384.615 633 327.987 706 c 132,-1,27
 271.358 779 271.358 779 296.662 922.5 c 132,-1,28
 321.965 1066 321.965 1066 420.6 1149 c 132,-1,29
 519.234 1232 519.234 1232 610.114 1254 c 5,30,-1
 730.479 1171 l 5,31,-1
 880.114 1254 l 5,32,33
 930.588 1234 930.588 1234 986.541 1151.5 c 132,-1,34
 1042.49 1069 1042.49 1069 1019.98 947 c 140,-1,35
 997.47 825 997.47 825 900.544 720.5 c 132,-1,36
 803.617 616 803.617 616 782.811 498 c 6,37,-1
 753.012 329 l 29,38,-1
 1254.75 112 l 13,39,-1
 1456.11 1254 l 5,40,-1
 1569.11 1254 l 5,41,-1
 1348 0 l 5,42,-1
 1235 0 l 5,43,-1
 733.439 218 l 21,44,45
 731.147 205 731.147 205 729.561 196 c 4,46,47
 715.277 115 715.277 115 647.139 57.5 c 132,-1,48
 579 0 579 0 497.5 0 c 132,-1,49
 416 0 416 0 368.139 57.5 c 132,-1,50
 320.277 115 320.277 115 334.472 195.5 c 132,-1,51
 348.666 276 348.666 276 416.805 333.5 c 132,-1,52
 484.943 391 484.943 391 565.943 391 c 4,53,54
 611.943 391 611.943 391 647.77 373 c 13,55,-1
 669.811 498 l 6,8,9
446.913 198 m 132,-1,57
 440.741 163 440.741 163 461.333 138 c 132,-1,58
 481.925 113 481.925 113 516.925 113 c 132,-1,59
 551.925 113 551.925 113 581.333 138 c 132,-1,60
 610.741 163 610.741 163 616.913 198 c 132,-1,61
 623.084 233 623.084 233 602.316 257 c 132,-1,62
 581.548 281 581.548 281 546.548 281 c 132,-1,63
 511.548 281 511.548 281 482.316 257 c 132,-1,56
 453.084 233 453.084 233 446.913 198 c 132,-1,57
EndSplineSet
EndChar
StartChar: uni0E07
Encoding: 3591 3591 130
Width: 977
VWidth: 2045
Flags: W
HStem: 0 21G<690 803> 861 112<561.5 652.5> 1142 112<561.5 652.5>
VStem: 408 113<1012.65 1102.35> 690 113<160 879 1012.65 1102.35>
Fore
844.991 879 m 4,0,-1
 718.212 160 l 13,1,-1
 290.134 704 l 5,2,-1
 194.204 625 l 5,3,-1
 690 0 l 21,4,-1
 803 0 l 5,5,-1
 989.378 1057 l 6,6,7
 1003.84 1139 1003.84 1139 955.976 1196.5 c 132,-1,8
 908.114 1254 908.114 1254 826.614 1254 c 132,-1,9
 745.114 1254 745.114 1254 676.976 1196.5 c 132,-1,10
 608.836 1139 608.836 1139 594.466 1057.5 c 132,-1,11
 580.095 976 580.095 976 627.956 918.5 c 132,-1,12
 675.817 861 675.817 861 756.817 861 c 4,13,14
 802.817 861 802.817 861 844.991 879 c 4,0,-1
707.466 1057.5 m 132,-1,16
 713.549 1092 713.549 1092 743.457 1117 c 132,-1,17
 773.365 1142 773.365 1142 808.365 1142 c 132,-1,18
 843.365 1142 843.365 1142 862.957 1117 c 132,-1,19
 882.549 1092 882.549 1092 876.466 1057.5 c 132,-1,20
 870.383 1023 870.383 1023 841.975 998 c 132,-1,21
 813.566 973 813.566 973 778.566 973 c 132,-1,22
 743.566 973 743.566 973 722.475 998 c 132,-1,15
 701.383 1023 701.383 1023 707.466 1057.5 c 132,-1,16
EndSplineSet
EndChar
StartChar: uni0E08
Encoding: 3592 3592 131
Width: 1202
VWidth: 2045
Flags: W
HStem: 0 21G<801 914> 523 111.49<523.35 615.65> 801 111.5<523.35 615.65> 1142 112<432.8 703.2>
VStem: 74 113<764 897.9> 373 111<672.65 762.35> 949 113<668.725 897.9>
Fore
208.714 764 m 21,0,1
 231.637 894 231.637 894 318.149 1007.5 c 132,-1,2
 404.662 1121 404.662 1121 529.889 1187.5 c 156,-1,3
 655.114 1254 655.114 1254 789.114 1254 c 260,4,5
 923.114 1254 923.114 1254 1024.89 1187.5 c 132,-1,6
 1126.66 1121 1126.66 1121 1173.15 1007.5 c 132,-1,7
 1219.64 894 1219.64 894 1196.71 764 c 20,8,9
 1187.72 713 1187.72 713 1168.26 665 c 14,10,-1
 914 0 l 5,11,-1
 801 0 l 5,12,-1
 787.096 562 l 21,13,14
 729.219 523 729.219 523 662.219 523 c 4,15,16
 581.219 523 581.219 523 533.27 580 c 132,-1,17
 485.32 637 485.32 637 499.515 717.5 c 132,-1,18
 513.709 798 513.709 798 581.76 855 c 132,-1,19
 649.811 912 649.811 912 730.398 912.5 c 132,-1,20
 810.986 913 810.986 913 858.76 855 c 4,21,22
 894.354 813 894.354 813 896.127 755 c 6,23,-1
 908.548 281 l 29,24,-1
 1063.96 686 l 6,25,26
 1074.9 714 1074.9 714 1083.71 764 c 12,27,28
 1101.88 867 1101.88 867 1066.04 953 c 132,-1,29
 1030.2 1039 1030.2 1039 951.784 1090.5 c 132,-1,30
 873.365 1142 873.365 1142 769.365 1142 c 260,31,32
 665.365 1142 665.365 1142 568.784 1090.5 c 156,-1,33
 472.204 1039 472.204 1039 406.04 953 c 132,-1,34
 339.875 867 339.875 867 321.714 764 c 13,35,-1
 208.714 764 l 21,0,1
610.515 717.5 m 132,-1,37
 604.432 683 604.432 683 625.111 658.5 c 132,-1,38
 645.791 634 645.791 634 681.38 634.5 c 132,-1,39
 716.968 635 716.968 635 745.199 659 c 132,-1,40
 773.432 683 773.432 683 779.515 717.5 c 132,-1,41
 785.598 752 785.598 752 765.918 776.5 c 132,-1,42
 746.238 801 746.238 801 710.738 801 c 132,-1,43
 675.238 801 675.238 801 645.918 776.5 c 132,-1,36
 616.598 752 616.598 752 610.515 717.5 c 132,-1,37
EndSplineSet
EndChar
StartChar: uni0E09
Encoding: 3593 3593 132
Width: 1293
VWidth: 2045
Flags: W
HStem: 0 113<998.5 1089.5> 396 112<327.35 419.65> 674 112<327.35 419.65> 1142 112<471.1 741.5>
VStem: 175 113<545.65 635.35> 457 113<127 414 545.65 635.35> 988 113<384 897.9> 1128 115<152.5 243.5>
Fore
287.989 896 m 17,0,1
 314.568 956 314.568 956 356.09 1010 c 0,2,3
 441.662 1121 441.662 1121 566.889 1187.5 c 128,-1,4
 692.114 1254 692.114 1254 826.114 1254 c 280,5,6
 962.114 1254 962.114 1254 1063.89 1187.5 c 128,-1,7
 1165.66 1121 1165.66 1121 1212.15 1007.5 c 128,-1,8
 1258.64 894 1258.64 894 1235.71 764 c 2,9,-1
 1168.71 384 l 17,10,11
 1213.24 370 1213.24 370 1252.45 323 c 128,-1,12
 1291.67 276 1291.67 276 1277.47 195.5 c 128,-1,13
 1263.28 115 1263.28 115 1195.14 57.5 c 128,-1,14
 1127 0 1127 0 1045.5 0 c 128,-1,15
 964 0 964 0 916.051 57 c 0,16,17
 870.749 112 870.749 112 880.444 184 c 0,18,-1
 570 0 l 1,19,-1
 457 0 l 1,20,-1
 529.999 414 l 17,21,22
 488.825 396 488.825 396 441.825 396 c 0,23,24
 360.825 396 360.825 396 312.964 453.5 c 128,-1,25
 265.104 511 265.104 511 279.209 591 c 128,-1,26
 293.315 671 293.315 671 361.366 728 c 128,-1,27
 429.417 785 429.417 785 510.593 786 c 0,28,29
 594.593 786 594.593 786 640.366 728 c 0,30,31
 687.963 669 687.963 669 674.209 591 c 2,32,-1
 592.394 127 l 0,33,-1
 1017.12 375 l 2,34,35
 1034.71 384 1034.71 384 1055.71 384 c 9,36,-1
 1122.71 764 l 2,37,38
 1140.88 867 1140.88 867 1105.04 953 c 128,-1,39
 1069.2 1039 1069.2 1039 990.284 1090.5 c 128,-1,40
 911.365 1142 911.365 1142 806.365 1142 c 280,41,42
 703.365 1142 703.365 1142 606.284 1090.5 c 128,-1,43
 509.204 1039 509.204 1039 444.393 955 c 0,44,45
 410.634 911 410.634 911 390.347 864 c 9,46,-1
 287.989 896 l 17,0,1
392.121 590.5 m 128,-1,48
 386.038 556 386.038 556 406.806 532 c 128,-1,49
 427.574 508 427.574 508 463.074 508 c 128,-1,50
 498.574 508 498.574 508 526.806 532 c 128,-1,51
 555.038 556 555.038 556 561.121 590.5 c 128,-1,52
 567.204 625 567.204 625 547.524 649.5 c 128,-1,53
 527.845 674 527.845 674 492.345 674 c 128,-1,54
 456.845 674 456.845 674 427.524 649.5 c 128,-1,47
 398.204 625 398.204 625 392.121 590.5 c 128,-1,48
994.913 198 m 128,-1,56
 988.741 163 988.741 163 1008.83 138 c 128,-1,57
 1028.92 113 1028.92 113 1063.92 113 c 128,-1,58
 1098.92 113 1098.92 113 1127.83 138 c 128,-1,59
 1156.74 163 1156.74 163 1162.91 198 c 128,-1,60
 1169.08 233 1169.08 233 1148.82 257 c 128,-1,61
 1128.55 281 1128.55 281 1093.55 281 c 128,-1,62
 1058.55 281 1058.55 281 1029.82 257 c 128,-1,55
 1001.08 233 1001.08 233 994.913 198 c 128,-1,56
EndSplineSet
EndChar
StartChar: uni0E0A
Encoding: 3594 3594 133
Width: 1192
VWidth: 2045
Flags: W
HStem: 0 112<348 460 573 912> 749 112<253.5 344.5> 1142 112<347.371 518.6>
VStem: 102 111<900.65 990.35> 383 114<900.65 990.35> 460 113<112 668> 610 114<839.55 1051.45> 912 113<112 895.5> 1025 112<1340.3 1447>
Fore
1112.5 1018 m 5,0,1
 1124.38 1006 1124.38 1006 1134.27 994 c 4,2,3
 1187.81 929 1187.81 929 1172.59 837 c 6,4,-1
 1025 0 l 1,5,-1
 348 0 l 1,6,-1
 367.749 112 l 1,7,-1
 479.749 112 l 1,8,-1
 565.856 589 l 2,9,10
 587.721 713 587.721 713 693.943 805 c 0,11,12
 762.347 864 762.347 864 776.717 945.5 c 128,-1,13
 791.088 1027 791.088 1027 743.227 1084.5 c 128,-1,14
 695.365 1142 695.365 1142 613.365 1142 c 0,15,16
 582.365 1142 582.365 1142 550.778 1133 c 1,17,18
 598.662 1121 598.662 1121 629.609 1081 c 0,19,20
 677.559 1024 677.559 1024 663.453 944 c 128,-1,21
 649.347 864 649.347 864 581.208 806.5 c 128,-1,22
 513.069 749 513.069 749 431.569 749 c 128,-1,23
 350.069 749 350.069 749 302.208 806.5 c 128,-1,24
 254.347 864 254.347 864 268.453 944 c 0,25,26
 291.022 1072 291.022 1072 398.068 1163 c 128,-1,27
 505.114 1254 505.114 1254 633.614 1254 c 128,-1,28
 762.114 1254 762.114 1254 837.568 1163 c 128,-1,29
 913.022 1072 913.022 1072 890.806 946 c 0,30,31
 867.883 816 867.883 816 760.837 725 c 0,32,33
 690.786 668 690.786 668 676.856 589 c 2,34,-1
 592.749 112 l 1,35,-1
 931.749 112 l 1,36,-1
 1059.59 837 l 6,37,38
 1067.52 882 1067.52 882 1041.34 915 c 4,39,40
 1013.33 949 1013.33 949 966.334 949 c 5,41,-1
 985.906 1060 l 5,42,43
 1100.66 1121 1100.66 1121 1179.24 1223.5 c 132,-1,44
 1257.81 1326 1257.81 1326 1280.15 1447 c 13,45,-1
 1392.15 1447 l 21,46,47
 1378.74 1371 1378.74 1371 1346.46 1298.5 c 132,-1,48
 1314.18 1226 1314.18 1226 1266.42 1165 c 132,-1,49
 1218.67 1104 1218.67 1104 1158.67 1053 c 4,50,51
 1135.15 1033 1135.15 1033 1112.5 1018 c 5,0,1
379.717 945.5 m 128,-1,53
 373.634 911 373.634 911 394.726 886 c 128,-1,54
 415.817 861 415.817 861 450.817 861 c 128,-1,55
 485.817 861 485.817 861 514.726 886 c 128,-1,56
 543.634 911 543.634 911 549.717 945.5 c 128,-1,57
 555.801 980 555.801 980 535.709 1005 c 128,-1,58
 515.617 1030 515.617 1030 480.617 1030 c 128,-1,59
 445.617 1030 445.617 1030 415.709 1005 c 128,-1,52
 385.801 980 385.801 980 379.717 945.5 c 128,-1,53
EndSplineSet
EndChar
StartChar: uni0E0B
Encoding: 3595 3595 134
Width: 1192
VWidth: 2045
Flags: W
HStem: 0 112<363 476 589 927> 633 113<221.5 312.5> 914 110<221.5 312.5>
VStem: 29 154<783.5 927> 351 114<783.5 874.5> 476 113<112 643> 646 110<821.8 1066.2> 927 113<112 895.5> 1040 113<1340.3 1447>
Fore
1187.59 837 m 2,0,-1
 1040 0 l 1,1,-1
 363 0 l 1,2,-1
 382.749 112 l 1,3,-1
 495.749 112 l 1,4,-1
 572.627 548 l 2,5,6
 596.96 686 596.96 686 713.888 782 c 0,7,8
 795.878 850 795.878 850 812.453 944 c 128,-1,9
 829.027 1038 829.027 1038 773.665 1104 c 0,10,11
 763.604 1115 763.604 1115 753.191 1124 c 1,12,-1
 601.204 1039 l 1,13,-1
 467.249 1130 l 17,14,15
 431.604 1115 431.604 1115 398.491 1086 c 0,16,17
 345.732 1042 345.732 1042 321.682 985 c 1,18,19
 380.559 1024 380.559 1024 448.559 1024 c 0,20,21
 529.559 1024 529.559 1024 577.42 966.5 c 128,-1,22
 625.281 909 625.281 909 611.087 828.5 c 128,-1,23
 596.893 748 596.893 748 528.754 690.5 c 128,-1,24
 460.615 633 460.615 633 379.115 633 c 128,-1,25
 297.615 633 297.615 633 249.666 690 c 0,26,27
 167.945 788 167.945 788 192.455 927 c 128,-1,28
 216.965 1066 216.965 1066 333.421 1165 c 0,29,30
 412.234 1232 412.234 1232 505.114 1254 c 1,31,-1
 624.479 1171 l 1,32,-1
 773.114 1254 l 1,33,34
 826.706 1229 826.706 1229 864.595 1183 c 0,35,36
 947.139 1084 947.139 1084 922.717 945.5 c 128,-1,37
 898.296 807 898.296 807 780.663 707 c 0,38,39
 701.378 643 701.378 643 685.627 548 c 2,40,-1
 608.749 112 l 1,41,-1
 946.749 112 l 1,42,-1
 1074.59 837 l 2,43,44
 1082.52 882 1082.52 882 1056.34 915 c 0,45,46
 1028.33 949 1028.33 949 981.334 949 c 1,47,-1
 1000.91 1060 l 1,48,49
 1115.66 1121 1115.66 1121 1194.74 1223.5 c 128,-1,50
 1273.81 1326 1273.81 1326 1295.15 1447 c 9,51,-1
 1408.15 1447 l 17,52,53
 1394.74 1371 1394.74 1371 1361.96 1298.5 c 128,-1,54
 1329.18 1226 1329.18 1226 1281.92 1165 c 128,-1,55
 1234.67 1104 1234.67 1104 1173.67 1053 c 0,56,57
 1150.15 1033 1150.15 1033 1127.5 1018 c 1,58,59
 1139.38 1006 1139.38 1006 1149.27 994 c 0,60,61
 1203.46 927 1203.46 927 1187.59 837 c 2,0,-1
329.175 829 m 128,-1,63
 323.004 794 323.004 794 343.271 770 c 128,-1,64
 363.54 746 363.54 746 398.54 746 c 128,-1,65
 433.54 746 433.54 746 462.271 770 c 128,-1,66
 491.004 794 491.004 794 497.175 829 c 128,-1,67
 503.347 864 503.347 864 483.255 889 c 128,-1,68
 463.163 914 463.163 914 428.163 914 c 128,-1,69
 393.163 914 393.163 914 364.255 889 c 128,-1,62
 335.347 864 335.347 864 329.175 829 c 128,-1,63
EndSplineSet
EndChar
StartChar: uni0E0C
Encoding: 3596 3596 135
Width: 1863
VWidth: 2045
Flags: W
HStem: 0 112<402.5 493.5 913.5 1004.5> 279 112<402.5 493.5 913.5 992.911> 764 112<239 250 363 476> 1142 112<468.8 737.9>
VStem: 250 113<149.5 240.5 373 764> 534 112.5<149.5 240.5> 761 113<149.5 240.5> 985 113<390 897.9> 1564 113<124 1254>
Fore
1564 0 m 5,0,-1
 1677 0 l 13,1,-1
 1898.11 1254 l 13,2,-1
 1785.11 1254 l 21,3,-1
 1585.86 124 l 29,4,-1
 1159.54 349 l 9,5,-1
 1232.71 764 l 2,6,7
 1256.17 897 1256.17 897 1209.41 1009 c 128,-1,8
 1162.66 1121 1162.66 1121 1060.89 1187.5 c 128,-1,9
 959.114 1254 959.114 1254 825.114 1254 c 256,10,11
 691.114 1254 691.114 1254 565.389 1187.5 c 128,-1,12
 439.662 1121 439.662 1121 353.914 1009 c 128,-1,13
 268.165 897 268.165 897 244.714 764 c 1,14,-1
 384.714 764 l 17,15,-1
 284.561 196 l 18,16,17
 270.277 115 270.277 115 318.139 57.5 c 128,-1,18
 366 0 366 0 448.5 0 c 128,-1,19
 531 0 531 0 598.639 57.5 c 128,-1,20
 666.277 115 666.277 115 680.972 195.5 c 128,-1,21
 695.666 276 695.666 276 647.805 333.5 c 128,-1,22
 599.943 391 599.943 391 516.943 391 c 0,23,24
 470.943 391 470.943 391 428.77 373 c 9,25,-1
 497.714 764 l 9,26,-1
 610.714 764 l 1,27,-1
 630.463 876 l 1,28,-1
 393.463 876 l 17,29,30
 414.339 915 414.339 915 460.271 977 c 128,-1,31
 506.204 1039 506.204 1039 603.784 1090.5 c 128,-1,32
 701.365 1142 701.365 1142 805.365 1142 c 256,33,34
 908.365 1142 908.365 1142 987.284 1090.5 c 128,-1,35
 1066.2 1039 1066.2 1039 1102.04 953 c 128,-1,36
 1137.88 867 1137.88 867 1119.71 764 c 2,37,-1
 1053.77 390 l 17,38,39
 1041.94 391 1041.94 391 1025.94 391 c 0,40,41
 945.943 391 945.943 391 877.805 333.5 c 128,-1,42
 809.666 276 809.666 276 795.472 195.5 c 128,-1,43
 781.277 115 781.277 115 829.139 57.5 c 128,-1,44
 877 0 877 0 958.5 0 c 128,-1,45
 1040 0 1040 0 1107.87 56 c 128,-1,46
 1175.75 112 1175.75 112 1191.09 199 c 9,47,-1
 1564 0 l 5,0,-1
908.384 195 m 128,-1,49
 914.555 230 914.555 230 943.875 254.5 c 128,-1,50
 973.195 279 973.195 279 1008.2 279 c 128,-1,51
 1043.2 279 1043.2 279 1063.38 254.5 c 128,-1,52
 1083.55 230 1083.55 230 1077.38 195 c 128,-1,53
 1071.21 160 1071.21 160 1042.48 136 c 128,-1,54
 1013.75 112 1013.75 112 978.749 112 c 128,-1,55
 943.749 112 943.749 112 922.98 136 c 128,-1,48
 902.212 160 902.212 160 908.384 195 c 128,-1,49
397.384 195 m 128,-1,57
 403.556 230 403.556 230 432.875 254.5 c 128,-1,58
 462.195 279 462.195 279 497.195 279 c 128,-1,59
 532.195 279 532.195 279 553.375 254.5 c 128,-1,60
 574.555 230 574.555 230 568.384 195 c 128,-1,61
 562.212 160 562.212 160 532.48 136 c 128,-1,62
 502.749 112 502.749 112 467.749 112 c 128,-1,63
 432.749 112 432.749 112 411.98 136 c 128,-1,56
 391.212 160 391.212 160 397.384 195 c 128,-1,57
EndSplineSet
EndChar
StartChar: uni0E0D
Encoding: 3597 3597 136
Width: 1864
VWidth: 2045
Flags: W
HStem: -548 149<1060.5 1226> -231 112<1060.5 1151.5> 0 112<403.5 494.5 1098 1565> 279 112<403.5 494.5> 764 112<240 251 364 476> 1142 112<470.1 739.2>
VStem: 251 113<149.5 240.5 373 764> 534 113<149.5 240.5> 909 113<-360.35 -270.65> 985 113<112 897.9> 1191 115<-360.35 -270.65> 1565 113<-258.3 -101 112 1254>
Fore
1660.19 -101 m 17,0,1
 1638.86 -222 1638.86 -222 1559.78 -324.5 c 128,-1,2
 1480.71 -427 1480.71 -427 1366.04 -487.5 c 128,-1,3
 1251.37 -548 1251.37 -548 1129.37 -548 c 0,4,5
 977.373 -548 977.373 -548 906.422 -482.5 c 128,-1,6
 835.472 -417 835.472 -417 851.605 -325.5 c 128,-1,7
 867.739 -234 867.739 -234 935.878 -176.5 c 128,-1,8
 1004.02 -119 1004.02 -119 1085.52 -119 c 128,-1,9
 1167.02 -119 1167.02 -119 1215.44 -179 c 128,-1,10
 1263.86 -239 1263.86 -239 1249.05 -323 c 0,11,12
 1238.53 -394 1238.53 -394 1152.65 -450 c 1,13,14
 1285.42 -440 1285.42 -440 1404.05 -340 c 128,-1,15
 1522.68 -240 1522.68 -240 1547.19 -101 c 9,16,-1
 1660.19 -101 l 17,0,1
966.369 -315.5 m 128,-1,18
 960.285 -350 960.285 -350 980.466 -374.5 c 128,-1,19
 1000.65 -399 1000.65 -399 1035.65 -399 c 128,-1,20
 1070.65 -399 1070.65 -399 1099.97 -374.5 c 128,-1,21
 1129.29 -350 1129.29 -350 1135.37 -315.5 c 128,-1,22
 1141.45 -281 1141.45 -281 1120.86 -256 c 128,-1,23
 1100.27 -231 1100.27 -231 1065.27 -231 c 128,-1,24
 1030.27 -231 1030.27 -231 1001.36 -256 c 128,-1,17
 972.452 -281 972.452 -281 966.369 -315.5 c 128,-1,18
1678 0 m 17,25,-1
 985 0 l 1,26,-1
 1119.71 764 l 2,27,28
 1137.88 867 1137.88 867 1102.04 953 c 128,-1,29
 1066.2 1039 1066.2 1039 987.784 1090.5 c 128,-1,30
 909.365 1142 909.365 1142 805.365 1142 c 256,31,32
 702.365 1142 702.365 1142 604.784 1090.5 c 128,-1,33
 507.204 1039 507.204 1039 461.271 977 c 128,-1,34
 415.339 915 415.339 915 394.463 876 c 1,35,-1
 630.463 876 l 1,36,-1
 610.714 764 l 1,37,-1
 498.714 764 l 1,38,-1
 429.77 373 l 1,39,40
 472.943 391 472.943 391 517.943 391 c 0,41,42
 599.943 391 599.943 391 647.805 333.5 c 128,-1,43
 695.666 276 695.666 276 681.472 195.5 c 128,-1,44
 667.277 115 667.277 115 599.139 57.5 c 128,-1,45
 531 0 531 0 448.5 0 c 128,-1,46
 366 0 366 0 318.639 57.5 c 128,-1,47
 271.277 115 271.277 115 285.561 196 c 2,48,-1
 385.714 764 l 1,49,-1
 244.714 764 l 1,50,51
 268.165 897 268.165 897 354.414 1009 c 128,-1,52
 440.662 1121 440.662 1121 565.889 1187.5 c 128,-1,53
 691.114 1254 691.114 1254 825.114 1254 c 256,54,55
 959.114 1254 959.114 1254 1061.39 1187.5 c 128,-1,56
 1163.66 1121 1163.66 1121 1209.91 1009 c 128,-1,57
 1256.17 897 1256.17 897 1232.71 764 c 2,58,-1
 1117.75 112 l 1,59,-1
 1584.75 112 l 1,60,-1
 1786.11 1254 l 1,61,-1
 1899.11 1254 l 1,62,-1
 1678 0 l 17,25,-1
398.384 195 m 128,-1,64
 392.212 160 392.212 160 412.98 136 c 128,-1,65
 433.749 112 433.749 112 468.749 112 c 128,-1,66
 503.749 112 503.749 112 532.98 136 c 128,-1,67
 562.212 160 562.212 160 568.384 195 c 128,-1,68
 574.555 230 574.555 230 553.875 254.5 c 128,-1,69
 533.195 279 533.195 279 498.195 279 c 128,-1,70
 463.195 279 463.195 279 433.875 254.5 c 128,-1,63
 404.556 230 404.556 230 398.384 195 c 128,-1,64
EndSplineSet
Substitution2: "Single Substitution lookup 9" uni0E0D.descless
Substitution2: "Single Substitution lookup 8" uni0E0D.descless
EndChar
StartChar: uni0E0E
Encoding: 3598 3598 137
Width: 1373
VWidth: 2045
Flags: W
HStem: -541 112<603.35 695.65> -261 111<603.35 695.65> 0 112<248.5 339.5> 279 112<248.5 339.5> 764 112<338 378 491 604> 1142 112<567.8 836.9>
VStem: 96 113<149.5 240.5> 378 113<149.5 240.5 373 764> 451 113<-391.5 -300.5> 1084 113<-379 867>
AnchorPoint: "BelowBase" 1033.45 -625.338 basechar 0
Fore
704.834 -483 m 6,0,1
 634.607 -541 634.607 -541 553.607 -541 c 4,2,3
 471.607 -541 471.607 -541 423.746 -483.5 c 132,-1,4
 375.885 -426 375.885 -426 390.167 -345 c 132,-1,5
 404.449 -264 404.449 -264 472.5 -207 c 132,-1,6
 540.551 -150 540.551 -150 623.051 -150 c 132,-1,7
 705.551 -150 705.551 -150 753.5 -207 c 6,8,-1
 802.097 -266 l 13,9,-1
 895.027 -187 l 5,10,-1
 962.097 -266 l 5,11,-1
 869.344 -344 l 29,12,-1
 946.769 -438 l 13,13,-1
 1017.17 -379 l 13,14,-1
 1218.71 764 l 2,15,16
 1236.88 867 1236.88 867 1201.04 953 c 128,-1,17
 1165.2 1039 1165.2 1039 1086.28 1090.5 c 128,-1,18
 1007.37 1142 1007.37 1142 904.365 1142 c 256,19,20
 800.365 1142 800.365 1142 702.784 1090.5 c 128,-1,21
 605.204 1039 605.204 1039 558.771 977 c 128,-1,22
 512.339 915 512.339 915 492.463 876 c 9,23,-1
 758.463 876 l 1,24,-1
 738.714 764 l 1,25,-1
 625.714 764 l 17,26,-1
 525.561 196 l 2,27,28
 511.277 115 511.277 115 443.139 57.5 c 128,-1,29
 375 0 375 0 293.5 0 c 128,-1,30
 212 0 212 0 164.139 57.5 c 128,-1,31
 116.277 115 116.277 115 130.472 195.5 c 128,-1,32
 144.666 276 144.666 276 212.805 333.5 c 128,-1,33
 280.943 391 280.943 391 361.943 391 c 0,34,35
 408.943 391 408.943 391 443.77 373 c 9,36,-1
 512.714 764 l 9,37,-1
 343.714 764 l 1,38,39
 367.165 897 367.165 897 453.414 1009 c 128,-1,40
 539.662 1121 539.662 1121 664.889 1187.5 c 128,-1,41
 790.114 1254 790.114 1254 924.114 1254 c 256,42,43
 1058.11 1254 1058.11 1254 1159.89 1187.5 c 128,-1,44
 1261.66 1121 1261.66 1121 1308.41 1009 c 128,-1,45
 1355.17 897 1355.17 897 1331.71 764 c 2,46,-1
 1121.88 -426 l 21,47,-1
 918.732 -597 l 21,48,-1
 774.237 -424 l 21,49,-1
 704.834 -483 l 6,0,1
502.991 -346 m 132,-1,51
 496.819 -381 496.819 -381 517.588 -405 c 132,-1,52
 538.355 -429 538.355 -429 573.855 -429 c 132,-1,53
 609.355 -429 609.355 -429 638.588 -405 c 132,-1,54
 667.819 -381 667.819 -381 673.991 -346 c 132,-1,55
 680.162 -311 680.162 -311 659.57 -286 c 132,-1,56
 638.979 -261 638.979 -261 603.479 -261 c 132,-1,57
 567.979 -261 567.979 -261 538.57 -286 c 132,-1,50
 509.162 -311 509.162 -311 502.991 -346 c 132,-1,51
243.384 195 m 128,-1,59
 237.212 160 237.212 160 257.98 136 c 128,-1,60
 278.749 112 278.749 112 313.749 112 c 128,-1,61
 348.749 112 348.749 112 377.48 136 c 128,-1,62
 406.212 160 406.212 160 412.384 195 c 128,-1,63
 418.556 230 418.556 230 398.375 254.5 c 128,-1,64
 378.195 279 378.195 279 343.195 279 c 128,-1,65
 308.195 279 308.195 279 278.875 254.5 c 128,-1,58
 249.556 230 249.556 230 243.384 195 c 128,-1,59
525.561 196 m 2,66,-1
EndSplineSet
EndChar
StartChar: uni0E0F
Encoding: 3599 3599 138
Width: 1373
VWidth: 2045
Flags: W
HStem: -571 112<361.5 452.5> -292 112<361.5 452.5> 0 112<248.5 339.5> 279 112<248.5 339.5> 764 112<338 378 491 604> 1142 112<567.8 836.9>
VStem: 96 113<149.5 240.5> 209 113<-421.5 -330.5> 378 113<149.5 240.5 373 764> 1084 113<-387 867>
AnchorPoint: "BelowBase" 988.312 -660.698 basechar 0
Fore
526.771 -455 m 4,0,-1
619.877 -375 m 29,1,-1
 679.182 -447 l 5,2,-1
 834.633 -314 l 29,3,-1
 945.182 -447 l 13,4,-1
 1015.76 -387 l 13,5,-1
 1218.71 764 l 2,6,7
 1236.88 867 1236.88 867 1201.04 953 c 128,-1,8
 1165.2 1039 1165.2 1039 1086.28 1090.5 c 128,-1,9
 1007.37 1142 1007.37 1142 904.365 1142 c 256,10,11
 800.365 1142 800.365 1142 702.784 1090.5 c 128,-1,12
 605.204 1039 605.204 1039 558.771 977 c 128,-1,13
 512.339 915 512.339 915 492.463 876 c 9,14,-1
 758.463 876 l 1,15,-1
 738.714 764 l 1,16,-1
 625.714 764 l 17,17,-1
 525.561 196 l 2,18,19
 511.277 115 511.277 115 443.139 57.5 c 128,-1,20
 375 0 375 0 293.5 0 c 128,-1,21
 212 0 212 0 164.139 57.5 c 128,-1,22
 116.277 115 116.277 115 130.472 195.5 c 128,-1,23
 144.666 276 144.666 276 212.805 333.5 c 128,-1,24
 280.943 391 280.943 391 361.943 391 c 0,25,26
 408.943 391 408.943 391 443.77 373 c 9,27,-1
 512.714 764 l 9,28,-1
 343.714 764 l 1,29,30
 367.165 897 367.165 897 453.414 1009 c 128,-1,31
 539.662 1121 539.662 1121 664.889 1187.5 c 128,-1,32
 790.114 1254 790.114 1254 924.114 1254 c 256,33,34
 1058.11 1254 1058.11 1254 1159.89 1187.5 c 128,-1,35
 1261.66 1121 1261.66 1121 1308.41 1009 c 128,-1,36
 1355.17 897 1355.17 897 1331.71 764 c 2,37,-1
 1120.83 -432 l 21,38,-1
 917.498 -604 l 21,39,-1
 806.598 -473 l 29,40,-1
 651.498 -604 l 5,41,-1
 526.771 -455 l 21,42,-1
 455.368 -514 l 6,43,44
 387.317 -571 387.317 -571 305.317 -571 c 4,45,46
 224.317 -571 224.317 -571 176.456 -513.5 c 132,-1,47
 128.595 -456 128.595 -456 142.789 -375.5 c 132,-1,48
 156.983 -295 156.983 -295 225.122 -237.5 c 132,-1,49
 293.261 -180 293.261 -180 374.761 -180 c 132,-1,50
 456.261 -180 456.261 -180 504.211 -237 c 6,51,-1
 554.808 -296 l 13,52,-1
 647.561 -218 l 5,53,-1
 712.808 -296 l 5,54,-1
 619.877 -375 l 29,1,-1
255.701 -376 m 132,-1,56
 249.529 -411 249.529 -411 270.298 -435 c 132,-1,57
 291.066 -459 291.066 -459 326.066 -459 c 132,-1,58
 361.066 -459 361.066 -459 389.798 -435 c 132,-1,59
 418.529 -411 418.529 -411 424.701 -376 c 132,-1,60
 430.872 -341 430.872 -341 410.692 -316.5 c 132,-1,61
 390.513 -292 390.513 -292 355.513 -292 c 132,-1,62
 320.513 -292 320.513 -292 291.192 -316.5 c 132,-1,55
 261.872 -341 261.872 -341 255.701 -376 c 132,-1,56
243.384 195 m 128,-1,64
 237.212 160 237.212 160 257.98 136 c 128,-1,65
 278.749 112 278.749 112 313.749 112 c 128,-1,66
 348.749 112 348.749 112 377.48 136 c 128,-1,67
 406.212 160 406.212 160 412.384 195 c 128,-1,68
 418.556 230 418.556 230 398.375 254.5 c 128,-1,69
 378.195 279 378.195 279 343.195 279 c 128,-1,70
 308.195 279 308.195 279 278.875 254.5 c 128,-1,63
 249.556 230 249.556 230 243.384 195 c 128,-1,64
525.561 196 m 2,71,-1
EndSplineSet
EndChar
StartChar: uni0E10
Encoding: 3600 3600 139
Width: 1192
VWidth: 2045
Flags: W
HStem: -733 112<192.5 283.5> -467 112<786.5 877.5> -453 112<192.5 283.5> -187 111.504<786.5 877.5> 0 21G<707 813> 296 112<443.5 534.5> 574 112<443.5 534.5> 764 112<247 771> 1142 112<477.1 743.6>
VStem: 43 109<-581.5 -490.5> 293 113<445.5 536.5> 634 113<-315.35 -225.65> 837.667 112.333<624.827 715.7> 918 113<-548 -449 -315.35 -225.65>
Fore
870.304 -270.5 m 152,-1,1
 876.387 -236 876.387 -236 855.207 -211.5 c 128,-1,2
 834.027 -187 834.027 -187 799.027 -187 c 128,-1,3
 764.027 -187 764.027 -187 734.707 -211.5 c 128,-1,4
 705.387 -236 705.387 -236 699.304 -270.5 c 128,-1,5
 693.221 -305 693.221 -305 713.812 -330 c 128,-1,6
 734.404 -355 734.404 -355 769.404 -355 c 128,-1,7
 804.404 -355 804.404 -355 833.636 -331 c 24,8,0
 864.221 -305 864.221 -305 870.304 -270.5 c 152,-1,1
329.383 -616 m 0,9,-1
57.4883 -536 m 128,-1,11
 51.3174 -571 51.3174 -571 72.4092 -596 c 128,-1,12
 93.501 -621 93.501 -621 128.501 -621 c 128,-1,13
 163.501 -621 163.501 -621 192.909 -596 c 128,-1,14
 222.317 -571 222.317 -571 228.488 -536 c 128,-1,15
 234.66 -501 234.66 -501 213.892 -477 c 128,-1,16
 193.124 -453 193.124 -453 158.124 -453 c 128,-1,17
 123.124 -453 123.124 -453 93.3916 -477 c 128,-1,10
 63.6602 -501 63.6602 -501 57.4883 -536 c 128,-1,11
983.039 -272 m 2,18,-1
 926.086 -595 l 1,19,-1
 721.934 -766 l 17,20,-1
 611.209 -634 l 25,21,-1
 456.934 -766 l 1,22,-1
 330.383 -616 l 17,23,-1
 258.979 -675 l 2,24,25
 190.752 -733 190.752 -733 109.752 -733 c 0,26,27
 29.752 -733 29.752 -733 -18.1084 -675.5 c 128,-1,28
 -65.9697 -618 -65.9697 -618 -51.6875 -537 c 128,-1,29
 -37.4053 -456 -37.4053 -456 30.7334 -398.5 c 128,-1,30
 98.8721 -341 98.8721 -341 179.372 -341 c 128,-1,31
 259.872 -341 259.872 -341 307.646 -399 c 2,32,-1
 358.066 -459 l 9,33,-1
 451.172 -379 l 1,34,-1
 517.066 -459 l 1,35,-1
 423.136 -538 l 25,36,-1
 484.97 -607 l 1,37,-1
 640.068 -476 l 25,38,-1
 749.97 -607 l 9,39,-1
 821.373 -548 l 1,40,-1
 838.829 -449 l 17,41,42
 795.655 -467 795.655 -467 749.655 -467 c 0,43,44
 667.655 -467 667.655 -467 619.794 -409.5 c 128,-1,45
 571.933 -352 571.933 -352 586.216 -271 c 128,-1,46
 600.498 -190 600.498 -190 668.549 -133 c 128,-1,47
 736.6 -76 736.6 -76 819.188 -75.5 c 128,-1,48
 901.775 -75 901.775 -75 949.637 -132.5 c 128,-1,49
 997.498 -190 997.498 -190 983.039 -272 c 2,18,-1
1111.33 949 m 17,50,51
 1073.08 1044 1073.08 1044 993.726 1093 c 128,-1,52
 914.365 1142 914.365 1142 812.365 1142 c 256,53,54
 709.365 1142 709.365 1142 612.284 1090.5 c 152,-1,55
 515.204 1039 515.204 1039 449.04 953 c 0,56,57
 420.339 915 420.339 915 401.463 876 c 0,58,-1
 878.463 876 l 2,59,60
 971.463 876 971.463 876 1026.5 811 c 128,-1,61
 1081.54 746 1081.54 746 1064.96 652 c 16,62,63
 1060.2 625 1060.2 625 1051.85 606 c 10,64,-1
 813 0 l 1,65,-1
 707 0 l 1,66,-1
 676.599 338 l 17,67,68
 628.192 296 628.192 296 543.192 296 c 0,69,70
 462.017 295 462.017 295 413.743 353 c 128,-1,71
 365.471 411 365.471 411 379.576 491 c 128,-1,72
 393.683 571 393.683 571 461.821 628.5 c 128,-1,73
 529.96 686 529.96 686 611.96 686 c 128,-1,74
 693.96 686 693.96 686 741.733 628 c 0,75,76
 772.386 592 772.386 592 778.277 529 c 2,77,-1
 804.903 266 l 17,78,-1
 946.263 631 l 18,79,80
 950.791 634 950.791 634 951.965 652 c 8,81,82
 958.605 701 958.605 701 932.159 732.5 c 128,-1,83
 905.714 764 905.714 764 858.714 764 c 2,84,-1
 251.714 764 l 1,85,86
 274.637 894 274.637 894 361.149 1007.5 c 128,-1,87
 447.662 1121 447.662 1121 572.389 1187.5 c 152,-1,88
 697.114 1254 697.114 1254 832.114 1254 c 256,89,90
 967.114 1254 967.114 1254 1068.89 1187.5 c 128,-1,91
 1170.66 1121 1170.66 1121 1217.38 1006 c 9,92,-1
 1111.33 949 l 17,50,51
492.576 491 m 128,-1,94
 486.405 456 486.405 456 506.173 432 c 128,-1,95
 525.941 408 525.941 408 560.941 408 c 128,-1,96
 595.941 408 595.941 408 625.673 432 c 128,-1,97
 655.405 456 655.405 456 661.576 491 c 128,-1,98
 667.748 526 667.748 526 646.479 550 c 128,-1,99
 625.212 574 625.212 574 590.212 574 c 128,-1,100
 555.212 574 555.212 574 526.979 550 c 128,-1,93
 498.748 526 498.748 526 492.576 491 c 128,-1,94
EndSplineSet
Substitution2: "Single Substitution lookup 9" uni0E10.descless
Substitution2: "Single Substitution lookup 8" uni0E10.descless
EndChar
StartChar: uni0E11
Encoding: 3601 3601 140
Width: 1573
VWidth: 2045
Flags: W
HStem: 0 21G<534 647 1287 1400> 633 113<279.5 370.5> 914 110<279.5 370.5> 1142 112<1113.05 1233.95>
VStem: 85 154<783.5 922.5> 409 112.504<783.5 874.5> 534 113<308 651.4> 690.5 113.5<824.8 1043.2> 1287 113<0 1075>
Fore
385.175 829 m 128,-1,1
 379.004 794 379.004 794 400.271 770 c 128,-1,2
 421.54 746 421.54 746 456.54 746 c 128,-1,3
 491.54 746 491.54 746 520.271 770 c 128,-1,4
 549.004 794 549.004 794 555.175 829 c 128,-1,5
 561.347 864 561.347 864 541.255 889 c 128,-1,6
 521.163 914 521.163 914 486.163 914 c 128,-1,7
 451.163 914 451.163 914 421.255 889 c 128,-1,0
 391.347 864 391.347 864 385.175 829 c 128,-1,1
621.811 498 m 2,8,9
 648.437 649 648.437 649 743.657 749.5 c 152,-1,10
 838.878 850 838.878 850 855.189 934 c 144,-1,11
 871.501 1018 871.501 1018 852.141 1067 c 128,-1,12
 832.781 1116 832.781 1116 811.191 1124 c 1,13,-1
 659.204 1039 l 1,14,-1
 525.25 1130 l 17,15,16
 498.191 1124 498.191 1124 446.609 1081 c 128,-1,17
 395.027 1038 395.027 1038 370.095 976 c 1,18,19
 451.559 1024 451.559 1024 505.559 1024 c 0,20,21
 586.559 1024 586.559 1024 633.92 966.5 c 128,-1,22
 681.281 909 681.281 909 667.587 828.5 c 128,-1,23
 653.893 748 653.893 748 585.754 690.5 c 128,-1,24
 517.615 633 517.615 633 436.615 633 c 0,25,26
 335.615 633 335.615 633 278.987 706 c 128,-1,27
 222.358 779 222.358 779 247.662 922.5 c 128,-1,28
 272.965 1066 272.965 1066 371.6 1149 c 128,-1,29
 470.234 1232 470.234 1232 561.114 1254 c 1,30,-1
 682.479 1171 l 1,31,-1
 831.114 1254 l 1,32,33
 882.588 1234 882.588 1234 938.041 1151.5 c 128,-1,34
 993.493 1069 993.493 1069 970.981 947 c 136,-1,35
 948.47 825 948.47 825 853.309 722 c 0,36,37
 754.617 616 754.617 616 734.811 498 c 2,38,-1
 701.309 308 l 17,39,-1
 1160.6 1115 l 2,40,41
 1182.48 1154 1182.48 1154 1223.3 1187 c 0,42,43
 1300.11 1254 1300.11 1254 1394.11 1254 c 152,-1,44
 1488.11 1254 1488.11 1254 1542.98 1188 c 128,-1,45
 1597.84 1122 1597.84 1122 1581.62 1030 c 2,46,-1
 1400 0 l 1,47,-1
 1287 0 l 1,48,-1
 1468.09 1027 l 18,49,50
 1476.55 1075 1476.55 1075 1448.55 1109 c 0,51,52
 1421.37 1142 1421.37 1142 1374.87 1142 c 152,-1,53
 1328.37 1142 1328.37 1142 1288.55 1109 c 0,54,55
 1268.37 1091 1268.37 1091 1255.49 1069 c 2,56,-1
 647 0 l 1,57,-1
 534 0 l 1,58,-1
 621.811 498 l 2,8,9
EndSplineSet
EndChar
StartChar: uni0E12
Encoding: 3602 3602 141
Width: 1916
VWidth: 2045
Flags: W
HStem: 0 112<949.35 1041.65> 279 112<949.35 1030.23> 820 112<596.5 687.5>
VStem: 149 113<160 1053.1> 445 113<690.65 780.35> 727 113<690.65 780.35> 799 113<149.5 240.5> 1023 113<390 1051.2> 1618 112<124 1254>
Fore
687.688 735.5 m 128,-1,1
 681.605 701 681.605 701 701.785 676.5 c 128,-1,2
 721.965 652 721.965 652 756.965 652 c 128,-1,3
 791.965 652 791.965 652 821.285 676.5 c 128,-1,4
 850.605 701 850.605 701 856.688 735.5 c 128,-1,5
 862.771 770 862.771 770 842.18 795 c 128,-1,6
 821.588 820 821.588 820 786.588 820 c 128,-1,7
 751.588 820 751.588 820 722.68 795 c 128,-1,0
 693.771 770 693.771 770 687.688 735.5 c 128,-1,1
1299.81 929 m 2,8,-1
 1197.54 349 l 17,9,-1
 1639.86 124 l 29,10,-1
 1839.11 1254 l 13,11,-1
 1951.11 1254 l 21,12,-1
 1730 0 l 21,13,-1
 1618 0 l 5,14,-1
 1229.09 199 l 17,15,16
 1213.75 112 1213.75 112 1145.87 56 c 128,-1,17
 1078 0 1078 0 996.5 0 c 128,-1,18
 915 0 915 0 867.139 57.5 c 128,-1,19
 819.277 115 819.277 115 833.472 195.5 c 128,-1,20
 847.666 276 847.666 276 915.805 333.5 c 128,-1,21
 983.943 391 983.943 391 1065.94 391 c 0,22,23
 1077.94 391 1077.94 391 1091.77 390 c 9,24,-1
 1186.81 929 l 2,25,26
 1203.38 1023 1203.38 1023 1148.84 1088 c 0,27,28
 1126.6 1115 1126.6 1115 1100.25 1130 c 9,29,-1
 814.566 973 l 1,30,-1
 583.25 1130 l 17,31,32
 550.604 1115 550.604 1115 517.844 1088 c 0,33,34
 442.559 1024 442.559 1024 425.455 927 c 2,35,-1
 290.212 160 l 25,36,-1
 694.451 547 l 1,37,38
 638.566 559 638.566 559 608.443 598 c 0,39,40
 561.199 659 561.199 659 574.953 737 c 0,41,42
 589.06 817 589.06 817 657.198 874.5 c 128,-1,43
 725.337 932 725.337 932 806.837 932 c 128,-1,44
 888.337 932 888.337 932 936.198 874.5 c 128,-1,45
 984.06 817 984.06 817 969.953 737 c 0,46,47
 957.258 665 957.258 665 887.443 598 c 2,48,-1
 262 0 l 17,49,-1
 149 0 l 9,50,-1
 312.455 927 l 2,51,52
 337.493 1069 337.493 1069 452.598 1166 c 0,53,54
 530.059 1231 530.059 1231 614.114 1254 c 9,55,-1
 837.488 1103 l 1,56,-1
 1111.11 1254 l 17,57,58
 1190.06 1231 1190.06 1231 1242.6 1166 c 0,59,60
 1324.49 1069 1324.49 1069 1299.81 929 c 2,8,-1
946.384 195 m 128,-1,62
 940.212 160 940.212 160 959.98 136 c 128,-1,63
 979.749 112 979.749 112 1015.25 112 c 128,-1,64
 1050.75 112 1050.75 112 1079.98 136 c 128,-1,65
 1109.21 160 1109.21 160 1115.38 195 c 128,-1,66
 1121.55 230 1121.55 230 1100.88 254.5 c 128,-1,67
 1080.2 279 1080.2 279 1044.7 279 c 128,-1,68
 1009.2 279 1009.2 279 980.875 254.5 c 128,-1,61
 952.555 230 952.555 230 946.384 195 c 128,-1,62
EndSplineSet
EndChar
StartChar: uni0E13
Encoding: 3603 3603 142
Width: 1898
VWidth: 2045
Flags: W
HStem: 0 112<402.5 493.5 1529.5 1620.5> 279 112<402.5 493.5> 764 112<239 250 363 476> 1142 112<468.8 737.9>
VStem: 250 113<149.5 240.5 373 764> 534 112.5<149.5 240.5> 985 113<131 897.9> 1518 113<382 1254> 1659 113<149.5 240.5>
Fore
1098 0 m 1,0,-1
 985 0 l 9,1,-1
 1119.71 764 l 2,2,3
 1137.88 867 1137.88 867 1102.04 953 c 128,-1,4
 1066.2 1039 1066.2 1039 987.284 1090.5 c 128,-1,5
 908.365 1142 908.365 1142 805.365 1142 c 256,6,7
 701.365 1142 701.365 1142 603.784 1090.5 c 128,-1,8
 506.204 1039 506.204 1039 460.271 977 c 128,-1,9
 414.339 915 414.339 915 393.463 876 c 9,10,-1
 630.463 876 l 1,11,-1
 610.714 764 l 1,12,-1
 497.714 764 l 17,13,-1
 428.77 373 l 17,14,15
 471.943 391 471.943 391 516.943 391 c 0,16,17
 599.943 391 599.943 391 647.305 333.5 c 128,-1,18
 694.666 276 694.666 276 680.972 195.5 c 128,-1,19
 667.277 115 667.277 115 599.139 57.5 c 128,-1,20
 531 0 531 0 448.5 0 c 128,-1,21
 366 0 366 0 318.139 57.5 c 128,-1,22
 270.277 115 270.277 115 284.561 196 c 10,23,-1
 384.714 764 l 9,24,-1
 244.714 764 l 1,25,26
 268.165 897 268.165 897 353.914 1009 c 128,-1,27
 439.662 1121 439.662 1121 565.389 1187.5 c 128,-1,28
 691.114 1254 691.114 1254 825.114 1254 c 256,29,30
 959.114 1254 959.114 1254 1060.89 1187.5 c 128,-1,31
 1162.66 1121 1162.66 1121 1209.41 1009 c 128,-1,32
 1256.17 897 1256.17 897 1232.71 764 c 2,33,-1
 1121.1 131 l 25,34,-1
 1536.83 362 l 6,35,36
 1560.12 375 1560.12 375 1585.36 382 c 13,37,-1
 1739.11 1254 l 13,38,-1
 1852.11 1254 l 21,39,-1
 1698.36 382 l 21,40,41
 1742.06 369 1742.06 369 1772.54 332 c 4,42,43
 1820.67 276 1820.67 276 1806.47 195.5 c 132,-1,44
 1792.28 115 1792.28 115 1724.14 57.5 c 132,-1,45
 1656 0 1656 0 1574.5 0 c 132,-1,46
 1493 0 1493 0 1444.87 56 c 20,47,48
 1402.34 104 1402.34 104 1408.33 172 c 13,49,-1
 1098 0 l 1,0,-1
1693.38 195 m 132,-1,51
 1699.55 230 1699.55 230 1679.38 254.5 c 132,-1,52
 1659.2 279 1659.2 279 1624.2 279 c 132,-1,53
 1589.2 279 1589.2 279 1559.38 254.5 c 132,-1,54
 1529.55 230 1529.55 230 1523.38 195 c 132,-1,55
 1517.21 160 1517.21 160 1538.48 136 c 132,-1,56
 1559.75 112 1559.75 112 1594.75 112 c 132,-1,57
 1629.75 112 1629.75 112 1658.48 136 c 132,-1,50
 1687.21 160 1687.21 160 1693.38 195 c 132,-1,51
397.384 195 m 128,-1,59
 391.212 160 391.212 160 411.98 136 c 128,-1,60
 432.749 112 432.749 112 467.749 112 c 128,-1,61
 502.749 112 502.749 112 532.48 136 c 128,-1,62
 562.212 160 562.212 160 568.384 195 c 128,-1,63
 574.555 230 574.555 230 553.375 254.5 c 128,-1,64
 532.195 279 532.195 279 497.195 279 c 128,-1,65
 462.195 279 462.195 279 432.875 254.5 c 128,-1,58
 403.556 230 403.556 230 397.384 195 c 128,-1,59
EndSplineSet
EndChar
StartChar: uni0E14
Encoding: 3604 3604 143
Width: 1301
VWidth: 2045
Flags: W
HStem: 0 21G<165 278 1012 1125> 820 112<596.5 687.5> 1142 112<516.3 773.7>
VStem: 165 113<160 906> 445 113<690.65 780.35> 727 112<690.65 780.35> 1012 113<0 906>
Fore
301.83 776 m 6,0,1
 324.752 906 324.752 906 408.061 1015.5 c 132,-1,2
 491.368 1125 491.368 1125 613.741 1189.5 c 132,-1,3
 736.114 1254 736.114 1254 865.614 1254 c 132,-1,4
 995.114 1254 995.114 1254 1095.24 1189.5 c 132,-1,5
 1195.37 1125 1195.37 1125 1240.06 1015.5 c 132,-1,6
 1284.75 906 1284.75 906 1261.83 776 c 6,7,-1
 1125 0 l 1,8,-1
 1012 0 l 1,9,-1
 1148.83 776 l 6,10,11
 1166.46 876 1166.46 876 1132.77 960 c 132,-1,12
 1099.08 1044 1099.08 1044 1022.23 1093 c 132,-1,13
 945.365 1142 945.365 1142 846.365 1142 c 132,-1,14
 747.365 1142 747.365 1142 653.226 1093 c 132,-1,15
 559.085 1044 559.085 1044 495.273 960 c 132,-1,16
 431.463 876 431.463 876 414.83 776 c 6,17,-1
 306.212 160 l 1,18,-1
 694.451 547 l 1,19,20
 638.566 559 638.566 559 608.443 598 c 0,21,22
 560.671 656 560.671 656 574.865 736.5 c 128,-1,23
 589.06 817 589.06 817 657.198 874.5 c 128,-1,24
 725.337 932 725.337 932 806.337 932 c 128,-1,25
 887.337 932 887.337 932 935.198 874.5 c 128,-1,26
 983.06 817 983.06 817 970.011 743 c 0,27,28
 956.786 668 956.786 668 886.443 598 c 2,29,-1
 278 0 l 1,30,-1
 165 0 l 1,31,-1
 301.83 776 l 6,0,1
687.688 735.5 m 128,-1,33
 681.605 701 681.605 701 701.785 676.5 c 128,-1,34
 721.965 652 721.965 652 756.965 652 c 128,-1,35
 791.965 652 791.965 652 821.285 676.5 c 128,-1,36
 850.605 701 850.605 701 856.688 735.5 c 128,-1,37
 862.771 770 862.771 770 842.18 795 c 128,-1,38
 821.588 820 821.588 820 786.588 820 c 128,-1,39
 751.588 820 751.588 820 722.68 795 c 128,-1,32
 693.771 770 693.771 770 687.688 735.5 c 128,-1,33
EndSplineSet
EndChar
StartChar: uni0E15
Encoding: 3605 3605 144
Width: 1301
VWidth: 2045
Flags: W
HStem: 0 21G<165 278 1008 1121> 820 112<596.5 687.5>
VStem: 165 113<160 1053.1> 445 113<690.65 780.35> 727 113<690.65 780.35> 1008 113<0 1051.8>
Fore
328.455 927 m 2,0,1
 353.493 1069 353.493 1069 467.598 1166 c 0,2,3
 545.059 1231 545.059 1231 630.114 1254 c 9,4,-1
 837.488 1103 l 1,5,-1
 1096.11 1254 l 17,6,7
 1174.06 1231 1174.06 1231 1226.6 1166 c 0,8,9
 1309.49 1069 1309.49 1069 1284.46 927 c 2,10,-1
 1121 0 l 1,11,-1
 1008 0 l 1,12,-1
 1171.46 927 l 2,13,14
 1188.38 1023 1188.38 1023 1133.84 1088 c 0,15,16
 1111.6 1115 1111.6 1115 1085.25 1130 c 9,17,-1
 814.566 973 l 1,18,-1
 598.25 1130 l 17,19,20
 565.604 1115 565.604 1115 533.844 1088 c 0,21,22
 457.559 1024 457.559 1024 441.455 927 c 2,23,-1
 306.212 160 l 25,24,-1
 694.451 547 l 1,25,26
 638.566 559 638.566 559 608.443 598 c 0,27,28
 561.199 659 561.199 659 574.953 737 c 0,29,30
 589.06 817 589.06 817 657.198 874.5 c 128,-1,31
 725.337 932 725.337 932 806.837 932 c 128,-1,32
 888.337 932 888.337 932 936.198 874.5 c 128,-1,33
 984.06 817 984.06 817 969.953 737 c 0,34,35
 957.434 666 957.434 666 887.443 598 c 2,36,-1
 278 0 l 17,37,-1
 165 0 l 9,38,-1
 328.455 927 l 2,0,1
687.688 735.5 m 128,-1,40
 681.605 701 681.605 701 701.785 676.5 c 128,-1,41
 721.965 652 721.965 652 756.965 652 c 128,-1,42
 791.965 652 791.965 652 821.285 676.5 c 128,-1,43
 850.605 701 850.605 701 856.688 735.5 c 128,-1,44
 862.771 770 862.771 770 842.18 795 c 128,-1,45
 821.588 820 821.588 820 786.588 820 c 128,-1,46
 751.588 820 751.588 820 722.68 795 c 128,-1,39
 693.771 770 693.771 770 687.688 735.5 c 128,-1,40
EndSplineSet
EndChar
StartChar: uni0E16
Encoding: 3606 3606 145
Width: 1248
VWidth: 2045
Flags: W
HStem: 0 112<402.5 493.5> 279 112<402.5 493.5> 764 112<239 250 363 476> 1142 112<468.8 737.9>
VStem: 250 113<149.5 240.5 373 764> 534 112.5<149.5 240.5> 985 113<0 897.9>
Fore
568.384 195 m 132,-1,1
 574.555 230 574.555 230 553.375 254.5 c 132,-1,2
 532.195 279 532.195 279 497.195 279 c 132,-1,3
 462.195 279 462.195 279 432.875 254.5 c 132,-1,4
 403.556 230 403.556 230 397.384 195 c 132,-1,5
 391.212 160 391.212 160 411.98 136 c 132,-1,6
 432.749 112 432.749 112 467.749 112 c 132,-1,7
 502.749 112 502.749 112 532.48 136 c 132,-1,0
 562.212 160 562.212 160 568.384 195 c 132,-1,1
428.77 373 m 21,8,9
 471.943 391 471.943 391 516.943 391 c 4,10,11
 599.943 391 599.943 391 647.305 333.5 c 132,-1,12
 694.666 276 694.666 276 680.972 195.5 c 132,-1,13
 667.277 115 667.277 115 599.139 57.5 c 132,-1,14
 531 0 531 0 448.5 0 c 132,-1,15
 366 0 366 0 318.139 57.5 c 132,-1,16
 270.277 115 270.277 115 284.561 196 c 14,17,-1
 384.714 764 l 13,18,-1
 244.714 764 l 1,19,20
 268.165 897 268.165 897 353.914 1009 c 128,-1,21
 439.662 1121 439.662 1121 565.389 1187.5 c 128,-1,22
 691.114 1254 691.114 1254 825.114 1254 c 256,23,24
 959.114 1254 959.114 1254 1060.89 1187.5 c 128,-1,25
 1162.66 1121 1162.66 1121 1209.41 1009 c 128,-1,26
 1256.17 897 1256.17 897 1232.71 764 c 2,27,-1
 1098 0 l 1,28,-1
 985 0 l 1,29,-1
 1119.71 764 l 2,30,31
 1137.88 867 1137.88 867 1102.04 953 c 128,-1,32
 1066.2 1039 1066.2 1039 987.284 1090.5 c 128,-1,33
 908.365 1142 908.365 1142 805.365 1142 c 256,34,35
 701.365 1142 701.365 1142 603.784 1090.5 c 128,-1,36
 506.204 1039 506.204 1039 460.271 977 c 128,-1,37
 414.339 915 414.339 915 393.463 876 c 9,38,-1
 630.463 876 l 5,39,-1
 610.714 764 l 5,40,-1
 497.714 764 l 21,41,-1
 428.77 373 l 21,8,9
EndSplineSet
EndChar
StartChar: uni0E17
Encoding: 3607 3607 146
Width: 1338
VWidth: 2045
Flags: W
HStem: 0 21G<343 456 1079 1192> 861 112<212.5 303.5> 1142 112<212.5 303.5 907.05 1027.95>
VStem: 61 113<1012.65 1102.35> 343 113<308 879 1012.65 1102.35> 1079 113<0 1089.4>
Fore
343 0 m 1,0,-1
 456 0 l 1,1,-1
 1049.49 1069 l 6,2,3
 1061.37 1091 1061.37 1091 1082.55 1109 c 4,4,5
 1122.37 1142 1122.37 1142 1168.87 1142 c 156,-1,6
 1215.37 1142 1215.37 1142 1242.55 1109 c 4,7,8
 1268.55 1075 1268.55 1075 1260.09 1027 c 14,9,-1
 1079 0 l 5,10,-1
 1192 0 l 5,11,-1
 1373.62 1030 l 6,12,13
 1389.84 1122 1389.84 1122 1335.98 1188 c 132,-1,14
 1282.11 1254 1282.11 1254 1188.11 1254 c 28,15,16
 1096.11 1254 1096.11 1254 1017.3 1187 c 4,17,18
 974.129 1152 974.129 1152 954.604 1115 c 6,19,-1
 510.309 308 l 1,20,-1
 642.378 1057 l 2,21,22
 656.836 1139 656.836 1139 608.976 1196.5 c 128,-1,23
 561.114 1254 561.114 1254 479.614 1254 c 128,-1,24
 398.114 1254 398.114 1254 329.976 1196.5 c 128,-1,25
 261.836 1139 261.836 1139 247.466 1057.5 c 128,-1,26
 233.095 976 233.095 976 280.956 918.5 c 128,-1,27
 328.817 861 328.817 861 410.817 861 c 0,28,29
 456.817 861 456.817 861 497.991 879 c 0,30,-1
 343 0 l 1,0,-1
360.466 1057.5 m 128,-1,32
 366.549 1092 366.549 1092 395.457 1117 c 128,-1,33
 424.365 1142 424.365 1142 459.365 1142 c 128,-1,34
 494.365 1142 494.365 1142 514.957 1117 c 128,-1,35
 535.549 1092 535.549 1092 529.466 1057.5 c 128,-1,36
 523.383 1023 523.383 1023 493.975 998 c 128,-1,37
 464.566 973 464.566 973 429.566 973 c 128,-1,38
 394.566 973 394.566 973 374.475 998 c 128,-1,31
 354.383 1023 354.383 1023 360.466 1057.5 c 128,-1,32
EndSplineSet
EndChar
StartChar: uni0E18
Encoding: 3608 3608 147
Width: 1120
VWidth: 2045
Flags: W
HStem: 0 112<204 317 430 820> 764 112<232 317 430 755> 1142 112<460.8 731.2>
VStem: 317 113<112 764> 820 113<112 699>
Fore
564.714 764 m 17,0,-1
 449.749 112 l 17,1,-1
 839.749 112 l 25,2,-1
 934.965 652 l 14,3,4
 943.253 699 943.253 699 916.483 731.5 c 132,-1,5
 889.714 764 889.714 764 841.714 764 c 6,6,-1
 564.714 764 l 17,0,-1
1095.04 953 m 17,7,8
 1058.2 1039 1058.2 1039 979.784 1090.5 c 128,-1,9
 901.365 1142 901.365 1142 797.365 1142 c 256,10,11
 693.365 1142 693.365 1142 596.284 1090.5 c 128,-1,12
 499.204 1039 499.204 1039 452.271 977 c 128,-1,13
 405.339 915 405.339 915 386.463 876 c 9,14,-1
 861.463 876 l 6,15,16
 956.463 876 956.463 876 1010.41 810.5 c 132,-1,17
 1064.36 745 1064.36 745 1047.96 652 c 22,18,-1
 933 0 l 9,19,-1
 204 0 l 1,20,-1
 223.749 112 l 1,21,-1
 336.749 112 l 25,22,-1
 451.714 764 l 25,23,-1
 236.714 764 l 1,24,25
 260.165 897 260.165 897 346.414 1009 c 128,-1,26
 432.662 1121 432.662 1121 557.889 1187.5 c 128,-1,27
 683.114 1254 683.114 1254 817.114 1254 c 256,28,29
 951.114 1254 951.114 1254 1052.89 1187.5 c 128,-1,30
 1154.66 1121 1154.66 1121 1201.91 1009 c 9,31,-1
 1095.04 953 l 17,7,8
EndSplineSet
EndChar
StartChar: uni0E19
Encoding: 3609 3609 148
Width: 1338
VWidth: 2045
Flags: W
HStem: 0 112<1020.5 1111.5> 861 112<221.5 312.5> 1142 112<221.5 312.5>
VStem: 69 113<1012.65 1102.35> 351 113<124 879 1012.65 1102.35> 1009 113<382 1254> 1150 112.5<149.5 240.5>
Fore
901.561 196 m 13,0,-1
 464 0 l 17,1,-1
 351 0 l 1,2,-1
 505.991 879 l 0,3,4
 462.817 861 462.817 861 416.817 861 c 0,5,6
 335.817 861 335.817 861 288.456 918.5 c 128,-1,7
 241.095 976 241.095 976 255.466 1057.5 c 128,-1,8
 269.836 1139 269.836 1139 337.476 1196.5 c 128,-1,9
 405.114 1254 405.114 1254 487.114 1254 c 128,-1,10
 569.114 1254 569.114 1254 616.476 1196.5 c 128,-1,11
 663.836 1139 663.836 1139 650.378 1057 c 2,12,-1
 485.864 124 l 9,13,-1
 1027.83 362 l 6,14,15
 1066.83 379 1066.83 379 1076.36 382 c 13,16,-1
 1230.11 1254 l 13,17,-1
 1343.11 1254 l 21,18,-1
 1189.36 382 l 21,19,20
 1234.06 369 1234.06 369 1264.54 332 c 4,21,22
 1310.67 276 1310.67 276 1296.97 195.5 c 132,-1,23
 1283.28 115 1283.28 115 1214.64 57.5 c 132,-1,24
 1146 0 1146 0 1064.5 0 c 156,-1,25
 983 0 983 0 935.139 57.5 c 132,-1,26
 887.277 115 887.277 115 901.561 196 c 13,0,-1
1184.38 195 m 132,-1,28
 1190.55 230 1190.55 230 1170.38 254.5 c 132,-1,29
 1150.2 279 1150.2 279 1115.2 279 c 132,-1,30
 1080.2 279 1080.2 279 1050.38 254.5 c 132,-1,31
 1020.55 230 1020.55 230 1014.38 195 c 132,-1,32
 1008.21 160 1008.21 160 1029.48 136 c 132,-1,33
 1050.75 112 1050.75 112 1085.75 112 c 132,-1,34
 1120.75 112 1120.75 112 1149.48 136 c 132,-1,27
 1178.21 160 1178.21 160 1184.38 195 c 132,-1,28
368.466 1057.5 m 128,-1,36
 362.383 1023 362.383 1023 382.975 998 c 128,-1,37
 403.566 973 403.566 973 438.566 973 c 128,-1,38
 473.566 973 473.566 973 502.475 998 c 128,-1,39
 531.383 1023 531.383 1023 537.466 1057.5 c 128,-1,40
 543.549 1092 543.549 1092 523.457 1117 c 128,-1,41
 503.365 1142 503.365 1142 468.365 1142 c 128,-1,42
 433.365 1142 433.365 1142 403.957 1117 c 128,-1,35
 374.549 1092 374.549 1092 368.466 1057.5 c 128,-1,36
EndSplineSet
EndChar
StartChar: uni0E1A
Encoding: 3610 3610 149
Width: 1391
VWidth: 2045
Flags: W
HStem: 0 112<277 390 503 1101> 861 112<260.35 352.65> 1142 112<260.35 352.65>
VStem: 108 113<1012.65 1102.35> 390 113<112 879 1012.65 1102.35> 1101 113<112 1254>
Fore
1435.11 1254 m 29,0,-1
 1214 0 l 13,1,-1
 277 0 l 1,2,-1
 296.749 112 l 1,3,-1
 409.749 112 l 17,4,-1
 544.991 879 l 0,5,6
 502.817 861 502.817 861 456.817 861 c 0,7,8
 375.817 861 375.817 861 327.956 918.5 c 128,-1,9
 280.095 976 280.095 976 294.466 1057.5 c 128,-1,10
 308.836 1139 308.836 1139 376.976 1196.5 c 128,-1,11
 445.114 1254 445.114 1254 526.614 1254 c 128,-1,12
 608.114 1254 608.114 1254 655.976 1196.5 c 128,-1,13
 703.836 1139 703.836 1139 689.378 1057 c 2,14,-1
 522.749 112 l 1,15,-1
 1120.75 112 l 29,16,-1
 1322.11 1254 l 29,17,-1
 1435.11 1254 l 29,0,-1
407.466 1057.5 m 128,-1,19
 401.383 1023 401.383 1023 421.975 998 c 128,-1,20
 442.566 973 442.566 973 478.066 973 c 128,-1,21
 513.566 973 513.566 973 541.975 998 c 128,-1,22
 570.383 1023 570.383 1023 576.466 1057.5 c 128,-1,23
 582.549 1092 582.549 1092 562.957 1117 c 128,-1,24
 543.365 1142 543.365 1142 507.865 1142 c 128,-1,25
 472.365 1142 472.365 1142 442.957 1117 c 128,-1,18
 413.549 1092 413.549 1092 407.466 1057.5 c 128,-1,19
EndSplineSet
EndChar
StartChar: uni0E1B
Encoding: 3611 3611 150
Width: 1391
VWidth: 2045
Flags: W
HStem: 0 112<277 390 503 1101> 861 112<260.35 352.65> 1142 112<260.35 352.65>
VStem: 108 113<1012.65 1102.35> 390 113<112 879 1012.65 1102.35> 1101 113<112 1832>
AnchorPoint: "AboveBase" 1228.68 1369.61 basechar 0
Fore
1537.03 1832 m 29,0,-1
 1214 0 l 13,1,-1
 277 0 l 1,2,-1
 296.749 112 l 1,3,-1
 409.749 112 l 17,4,-1
 544.991 879 l 0,5,6
 502.817 861 502.817 861 456.817 861 c 0,7,8
 375.817 861 375.817 861 327.956 918.5 c 128,-1,9
 280.095 976 280.095 976 294.466 1057.5 c 128,-1,10
 308.836 1139 308.836 1139 376.976 1196.5 c 128,-1,11
 445.114 1254 445.114 1254 526.614 1254 c 128,-1,12
 608.114 1254 608.114 1254 655.976 1196.5 c 128,-1,13
 703.836 1139 703.836 1139 689.378 1057 c 2,14,-1
 522.749 112 l 1,15,-1
 1120.75 112 l 29,16,-1
 1424.03 1832 l 29,17,-1
 1537.03 1832 l 29,0,-1
407.466 1057.5 m 128,-1,19
 401.383 1023 401.383 1023 421.975 998 c 128,-1,20
 442.566 973 442.566 973 478.066 973 c 128,-1,21
 513.566 973 513.566 973 541.975 998 c 128,-1,22
 570.383 1023 570.383 1023 576.466 1057.5 c 128,-1,23
 582.549 1092 582.549 1092 562.957 1117 c 128,-1,24
 543.365 1142 543.365 1142 507.865 1142 c 128,-1,25
 472.365 1142 472.365 1142 442.957 1117 c 128,-1,18
 413.549 1092 413.549 1092 407.466 1057.5 c 128,-1,19
EndSplineSet
EndChar
StartChar: uni0E1C
Encoding: 3612 3612 151
Width: 1290
VWidth: 2045
Flags: W
HStem: 0 21G<162 274 1032 1145> 861 112<314.5 405.5> 1142 112<314.5 405.5>
VStem: 162 114<172 881 1012.65 1102.35> 445 113<1012.65 1102.35> 1032 113<172 1254>
Fore
1062.33 172 m 25,0,-1
 1253.11 1254 l 9,1,-1
 1366.11 1254 l 25,2,-1
 1145 0 l 9,3,-1
 1032 0 l 17,4,-1
 740.282 495 l 25,5,-1
 274 0 l 9,6,-1
 162 0 l 25,7,-1
 347.849 1054 l 18,8,9
 362.483 1137 362.483 1137 431.299 1195.5 c 128,-1,10
 500.114 1254 500.114 1254 581.614 1254 c 128,-1,11
 663.114 1254 663.114 1254 710.976 1196.5 c 128,-1,12
 758.836 1139 758.836 1139 744.466 1057.5 c 128,-1,13
 730.095 976 730.095 976 661.956 918.5 c 128,-1,14
 593.817 861 593.817 861 511.817 861 c 0,15,16
 465.817 861 465.817 861 429.344 881 c 1,17,-1
 304.328 172 l 25,18,-1
 770.258 665 l 1,19,-1
 1062.33 172 l 25,0,-1
631.466 1057.5 m 128,-1,21
 637.549 1092 637.549 1092 616.957 1117 c 128,-1,22
 596.365 1142 596.365 1142 561.365 1142 c 128,-1,23
 526.365 1142 526.365 1142 497.457 1117 c 128,-1,24
 468.549 1092 468.549 1092 462.466 1057.5 c 128,-1,25
 456.383 1023 456.383 1023 476.475 998 c 128,-1,26
 496.566 973 496.566 973 531.566 973 c 128,-1,27
 566.566 973 566.566 973 595.975 998 c 128,-1,20
 625.383 1023 625.383 1023 631.466 1057.5 c 128,-1,21
EndSplineSet
EndChar
StartChar: uni0E1D
Encoding: 3613 3613 152
Width: 1290
VWidth: 2045
Flags: W
HStem: 0 21G<162 274 1032 1145> 861 112<314.5 405.5> 1142 112<314.5 405.5>
VStem: 162 114<165 881 1012.65 1102.35> 445 113<1012.65 1102.35> 1032 113<163 1832>
AnchorPoint: "AboveBase" 1166.87 1342.59 basechar 0
Fore
1060.74 163 m 25,0,-1
 1355.03 1832 l 9,1,-1
 1468.03 1832 l 25,2,-1
 1145 0 l 9,3,-1
 1032 0 l 17,4,-1
 740.635 497 l 25,5,-1
 274 0 l 9,6,-1
 162 0 l 25,7,-1
 347.849 1054 l 18,8,9
 362.483 1137 362.483 1137 431.299 1195.5 c 128,-1,10
 500.114 1254 500.114 1254 581.614 1254 c 128,-1,11
 663.114 1254 663.114 1254 710.976 1196.5 c 128,-1,12
 758.836 1139 758.836 1139 744.466 1057.5 c 128,-1,13
 730.095 976 730.095 976 661.956 918.5 c 128,-1,14
 593.817 861 593.817 861 511.817 861 c 0,15,16
 465.817 861 465.817 861 429.344 881 c 1,17,-1
 303.094 165 l 25,18,-1
 770.963 669 l 1,19,-1
 1060.74 163 l 25,0,-1
631.466 1057.5 m 128,-1,21
 637.549 1092 637.549 1092 616.957 1117 c 128,-1,22
 596.365 1142 596.365 1142 561.365 1142 c 128,-1,23
 526.365 1142 526.365 1142 497.457 1117 c 128,-1,24
 468.549 1092 468.549 1092 462.466 1057.5 c 128,-1,25
 456.383 1023 456.383 1023 476.475 998 c 128,-1,26
 496.566 973 496.566 973 531.566 973 c 128,-1,27
 566.566 973 566.566 973 595.975 998 c 128,-1,20
 625.383 1023 625.383 1023 631.466 1057.5 c 128,-1,21
EndSplineSet
EndChar
StartChar: uni0E1E
Encoding: 3614 3614 153
Width: 1470
VWidth: 2045
Flags: W
HStem: 0 21G<345 458 1177 1290> 861 112<212.5 303.5> 1142 112<212.5 303.5>
VStem: 61 111<1012.65 1102.35> 345 113<350 881 1012.65 1102.35> 1177 113<350 1254>
Fore
1238.71 350 m 25,0,-1
 1398.11 1254 l 9,1,-1
 1511.11 1254 l 25,2,-1
 1290 0 l 9,3,-1
 1177 0 l 17,4,-1
 1003.91 1060 l 25,5,-1
 458 0 l 9,6,-1
 345 0 l 25,7,-1
 500.344 881 l 1,8,9
 456.817 861 456.817 861 410.817 861 c 0,10,11
 328.817 861 328.817 861 280.956 918.5 c 128,-1,12
 233.095 976 233.095 976 247.466 1057.5 c 128,-1,13
 261.836 1139 261.836 1139 329.976 1196.5 c 128,-1,14
 398.114 1254 398.114 1254 479.614 1254 c 128,-1,15
 561.114 1254 561.114 1254 609.299 1195.5 c 128,-1,16
 657.483 1137 657.483 1137 643.849 1054 c 2,17,-1
 519.715 350 l 25,18,-1
 985.114 1254 l 9,19,-1
 1092.11 1254 l 17,20,-1
 1238.71 350 l 25,0,-1
358.466 1057.5 m 128,-1,22
 352.383 1023 352.383 1023 373.475 998 c 128,-1,23
 394.566 973 394.566 973 429.566 973 c 128,-1,24
 464.566 973 464.566 973 493.475 998 c 128,-1,25
 522.383 1023 522.383 1023 528.466 1057.5 c 128,-1,26
 534.549 1092 534.549 1092 514.457 1117 c 128,-1,27
 494.365 1142 494.365 1142 459.365 1142 c 128,-1,28
 424.365 1142 424.365 1142 394.457 1117 c 128,-1,21
 364.549 1092 364.549 1092 358.466 1057.5 c 128,-1,22
EndSplineSet
EndChar
StartChar: uni0E1F
Encoding: 3615 3615 154
Width: 1470
VWidth: 2045
Flags: W
HStem: 0 21G<345 458 1177 1290> 861 112<212.5 303.5> 1142 112<212.5 303.5>
VStem: 61 111<1012.65 1102.35> 345 113<350 881 1012.65 1102.35> 1177 113<350 1832>
AnchorPoint: "AboveBase" 1281.65 1400.47 basechar 0
Fore
1238.71 350 m 25,0,-1
 1500.03 1832 l 9,1,-1
 1613.03 1832 l 25,2,-1
 1290 0 l 9,3,-1
 1177 0 l 17,4,-1
 1003.91 1060 l 25,5,-1
 458 0 l 9,6,-1
 345 0 l 25,7,-1
 500.344 881 l 1,8,9
 456.817 861 456.817 861 410.817 861 c 0,10,11
 328.817 861 328.817 861 280.956 918.5 c 128,-1,12
 233.095 976 233.095 976 247.466 1057.5 c 128,-1,13
 261.836 1139 261.836 1139 329.976 1196.5 c 128,-1,14
 398.114 1254 398.114 1254 479.614 1254 c 128,-1,15
 561.114 1254 561.114 1254 609.299 1195.5 c 128,-1,16
 657.483 1137 657.483 1137 643.849 1054 c 2,17,-1
 519.715 350 l 25,18,-1
 985.114 1254 l 9,19,-1
 1092.11 1254 l 17,20,-1
 1238.71 350 l 25,0,-1
358.466 1057.5 m 128,-1,22
 352.383 1023 352.383 1023 373.475 998 c 128,-1,23
 394.566 973 394.566 973 429.566 973 c 128,-1,24
 464.566 973 464.566 973 493.475 998 c 128,-1,25
 522.383 1023 522.383 1023 528.466 1057.5 c 128,-1,26
 534.549 1092 534.549 1092 514.457 1117 c 128,-1,27
 494.365 1142 494.365 1142 459.365 1142 c 128,-1,28
 424.365 1142 424.365 1142 394.457 1117 c 128,-1,21
 364.549 1092 364.549 1092 358.466 1057.5 c 128,-1,22
EndSplineSet
EndChar
StartChar: uni0E20
Encoding: 3616 3616 155
Width: 1373
VWidth: 2045
Flags: W
HStem: 0 112<248.5 339.5> 279 112<248.5 339.5> 764 112<338 378 491 604> 1142 112<567.8 836.9>
VStem: 96 113<149.5 240.5> 378 113<149.5 240.5 373 764> 1084 113<0 897.9>
Fore
243.384 195 m 132,-1,1
 249.556 230 249.556 230 278.875 254.5 c 132,-1,2
 308.195 279 308.195 279 343.195 279 c 132,-1,3
 378.195 279 378.195 279 398.375 254.5 c 132,-1,4
 418.556 230 418.556 230 412.384 195 c 132,-1,5
 406.212 160 406.212 160 377.48 136 c 132,-1,6
 348.749 112 348.749 112 313.749 112 c 132,-1,7
 278.749 112 278.749 112 257.98 136 c 132,-1,0
 237.212 160 237.212 160 243.384 195 c 132,-1,1
625.714 764 m 29,8,-1
 738.714 764 l 5,9,-1
 758.463 876 l 5,10,-1
 492.463 876 l 21,11,12
 512.339 915 512.339 915 558.771 977 c 132,-1,13
 605.204 1039 605.204 1039 702.784 1090.5 c 132,-1,14
 800.365 1142 800.365 1142 904.365 1142 c 260,15,16
 1007.37 1142 1007.37 1142 1086.28 1090.5 c 132,-1,17
 1165.2 1039 1165.2 1039 1201.04 953 c 132,-1,18
 1236.88 867 1236.88 867 1218.71 764 c 6,19,-1
 1084 0 l 5,20,-1
 1197 0 l 5,21,-1
 1331.71 764 l 6,22,23
 1355.17 897 1355.17 897 1308.41 1009 c 132,-1,24
 1261.66 1121 1261.66 1121 1159.89 1187.5 c 132,-1,25
 1058.11 1254 1058.11 1254 924.114 1254 c 260,26,27
 790.114 1254 790.114 1254 664.889 1187.5 c 132,-1,28
 539.662 1121 539.662 1121 453.414 1009 c 132,-1,29
 367.165 897 367.165 897 343.714 764 c 5,30,-1
 512.714 764 l 29,31,-1
 443.77 373 l 5,32,33
 406.943 391 406.943 391 361.943 391 c 4,34,35
 280.943 391 280.943 391 212.805 333.5 c 132,-1,36
 144.666 276 144.666 276 130.472 195.5 c 132,-1,37
 116.277 115 116.277 115 164.139 57.5 c 132,-1,38
 212 0 212 0 293.5 0 c 132,-1,39
 375 0 375 0 443.139 57.5 c 132,-1,40
 511.277 115 511.277 115 525.561 196 c 6,41,-1
 625.714 764 l 29,8,-1
EndSplineSet
EndChar
StartChar: uni0E21
Encoding: 3617 3617 156
Width: 1355
VWidth: 2045
Flags: W
HStem: 0 113<283.5 374.5> 281 110<283.5 374.5> 862 113.5<283.5 374.5> 1143 110.5<283.5 374.5>
VStem: 133 111<152.5 243.5 1013.5 1104.5> 415 112<152.5 218 373 881 1013.5 1104.5> 1067 113<112 1253>
Fore
565.439 218 m 21,0,1
 563.147 205 563.147 205 561.561 196 c 4,2,3
 547.277 115 547.277 115 479.639 57.5 c 132,-1,4
 412 0 412 0 330.5 0 c 132,-1,5
 249 0 249 0 201.139 57.5 c 132,-1,6
 153.277 115 153.277 115 167.472 195.5 c 132,-1,7
 181.666 276 181.666 276 249.805 333.5 c 132,-1,8
 317.943 391 317.943 391 397.943 391 c 4,9,10
 443.943 391 443.943 391 480.77 373 c 13,11,-1
 570.344 881 l 5,12,13
 526.994 862 526.994 862 480.994 862 c 4,14,15
 400.994 862 400.994 862 353.133 919.5 c 132,-1,16
 305.271 977 305.271 977 319.554 1058 c 132,-1,17
 333.836 1139 333.836 1139 401.976 1196.5 c 132,-1,18
 470.114 1254 470.114 1254 551.525 1253.5 c 132,-1,19
 632.938 1253 632.938 1253 680.387 1196 c 132,-1,20
 727.836 1139 727.836 1139 713.378 1057 c 6,21,-1
 585.012 329 l 29,22,-1
 1086.75 112 l 13,23,-1
 1287.94 1253 l 5,24,-1
 1400.94 1253 l 5,25,-1
 1180 0 l 5,26,-1
 1067 0 l 5,27,-1
 565.439 218 l 21,0,1
430.73 1059 m 132,-1,29
 424.559 1024 424.559 1024 445.327 1000 c 132,-1,30
 466.095 976 466.095 976 501.007 975.5 c 132,-1,31
 535.919 975 535.919 975 565.739 999.5 c 132,-1,32
 595.559 1024 595.559 1024 601.73 1059 c 132,-1,33
 607.901 1094 607.901 1094 586.722 1118.5 c 132,-1,34
 565.542 1143 565.542 1143 530.542 1143 c 132,-1,35
 495.542 1143 495.542 1143 466.222 1118.5 c 132,-1,28
 436.901 1094 436.901 1094 430.73 1059 c 132,-1,29
278.913 198 m 132,-1,37
 272.741 163 272.741 163 293.333 138 c 132,-1,38
 313.925 113 313.925 113 348.925 113 c 132,-1,39
 383.925 113 383.925 113 413.833 138 c 132,-1,40
 443.741 163 443.741 163 449.913 198 c 132,-1,41
 456.084 233 456.084 233 434.816 257 c 132,-1,42
 413.548 281 413.548 281 378.548 281 c 132,-1,43
 343.548 281 343.548 281 314.316 257 c 132,-1,36
 285.084 233 285.084 233 278.913 198 c 132,-1,37
EndSplineSet
EndChar
StartChar: uni0E22
Encoding: 3618 3618 157
Width: 1248
VWidth: 2045
Flags: W
HStem: 0 112<345 954> 622 112<395.9 681> 861 112<318.5 409.5> 1142 112<318.5 409.5>
VStem: 112 169<971 1102.35> 232 113<112 569.5> 448 113<1012.65 1102.35> 954 113<112 1254>
Fore
232 0 m 9,0,-1
 322.104 511 l 2,1,2
 337.796 600 337.796 600 410.258 665 c 1,3,4
 346.019 692 346.019 692 302.919 768 c 128,-1,5
 259.82 844 259.82 844 283.214 971 c 136,-1,6
 306.607 1098 306.607 1098 388.685 1175 c 128,-1,7
 470.762 1252 470.762 1252 585.114 1254 c 0,8,9
 666.114 1254 666.114 1254 713.976 1196.5 c 128,-1,10
 761.836 1139 761.836 1139 747.466 1057.5 c 128,-1,11
 733.095 976 733.095 976 664.956 918.5 c 128,-1,12
 596.817 861 596.817 861 515.817 861 c 16,13,14
 441.817 861 441.817 861 396.694 900 c 1,15,16
 394.586 837 394.586 837 440.505 785.5 c 128,-1,17
 486.424 734 486.424 734 586.424 734 c 10,18,-1
 810.424 734 l 17,19,-1
 790.676 622 l 1,20,-1
 566.676 622 l 18,21,22
 519.676 622 519.676 622 481.356 589 c 128,-1,23
 443.038 556 443.038 556 435.104 511 c 10,24,-1
 364.749 112 l 25,25,-1
 973.749 112 l 29,26,-1
 1175.11 1254 l 29,27,-1
 1288.11 1254 l 29,28,-1
 1067 0 l 13,29,-1
 232 0 l 9,0,-1
634.466 1057.5 m 128,-1,31
 640.549 1092 640.549 1092 620.457 1117 c 128,-1,32
 600.365 1142 600.365 1142 565.365 1142 c 128,-1,33
 530.365 1142 530.365 1142 501.957 1117 c 128,-1,34
 473.549 1092 473.549 1092 467.466 1057.5 c 128,-1,35
 461.383 1023 461.383 1023 480.975 998 c 128,-1,36
 500.566 973 500.566 973 535.566 973 c 128,-1,37
 570.566 973 570.566 973 599.475 998 c 128,-1,30
 628.383 1023 628.383 1023 634.466 1057.5 c 128,-1,31
EndSplineSet
EndChar
StartChar: uni0E23
Encoding: 3619 3619 158
Width: 1002
VWidth: 2045
Flags: W
HStem: 0 112<455.5 546.5> 279 112<455.5 546.5> 834 112<211 518> 1142 112<352.35 652.65>
VStem: 303 113<149.5 240.5> 585 113<149.5 240.5 373 780.5>
Fore
964.868 918 m 17,0,1
 956.916 992 956.916 992 907.319 1051 c 0,2,3
 832.365 1142 832.365 1142 704.365 1142 c 128,-1,4
 576.365 1142 576.365 1142 468.319 1051 c 0,5,6
 410.855 1003 410.855 1003 377.806 946 c 9,7,-1
 638.806 946 l 2,8,9
 733.453 944 733.453 944 787.491 879 c 128,-1,10
 841.53 814 841.53 814 825.309 722 c 26,11,-1
 732.561 196 l 2,12,13
 718.277 115 718.277 115 650.139 57.5 c 128,-1,14
 582 0 582 0 500.5 0 c 128,-1,15
 419 0 419 0 371.139 57.5 c 128,-1,16
 323.277 115 323.277 115 337.472 195.5 c 128,-1,17
 351.666 276 351.666 276 419.805 333.5 c 128,-1,18
 487.943 391 487.943 391 568.943 391 c 0,19,20
 613.943 391 613.943 391 650.77 373 c 1,21,-1
 712.309 722 l 26,22,23
 720.243 767 720.243 767 692.238 801 c 0,24,25
 665.057 834 665.057 834 619.057 834 c 2,26,-1
 226.057 834 l 1,27,28
 245.981 947 245.981 947 319.497 1043.5 c 128,-1,29
 393.013 1140 393.013 1140 500.563 1197 c 128,-1,30
 608.114 1254 608.114 1254 723.614 1254 c 128,-1,31
 839.114 1254 839.114 1254 927.063 1197 c 128,-1,32
 1015.01 1140 1015.01 1140 1054.08 1044 c 0,33,34
 1072.45 995 1072.45 995 1077.1 942 c 9,35,-1
 964.868 918 l 17,0,1
450.384 195 m 128,-1,37
 444.212 160 444.212 160 464.98 136 c 128,-1,38
 485.749 112 485.749 112 520.749 112 c 128,-1,39
 555.749 112 555.749 112 584.48 136 c 128,-1,40
 613.212 160 613.212 160 619.384 195 c 128,-1,41
 625.555 230 625.555 230 605.375 254.5 c 128,-1,42
 585.195 279 585.195 279 550.195 279 c 128,-1,43
 515.195 279 515.195 279 485.875 254.5 c 128,-1,36
 456.556 230 456.556 230 450.384 195 c 128,-1,37
EndSplineSet
EndChar
StartChar: uni0E24
Encoding: 3620 3620 159
Width: 1248
VWidth: 2045
Flags: W
HStem: 0 112<382.5 473.5> 279 112<382.5 473.5> 764 112<219 230 343 456> 1142 112<448.8 717.9>
VStem: 230 113<149.5 240.5 373 764> 514 112.5<149.5 240.5> 965 113<-548 897.9>
Fore
548.384 195 m 132,-1,1
 554.555 230 554.555 230 533.375 254.5 c 132,-1,2
 512.195 279 512.195 279 477.195 279 c 132,-1,3
 442.195 279 442.195 279 412.875 254.5 c 132,-1,4
 383.556 230 383.556 230 377.384 195 c 132,-1,5
 371.212 160 371.212 160 391.98 136 c 132,-1,6
 412.749 112 412.749 112 447.749 112 c 132,-1,7
 482.749 112 482.749 112 512.48 136 c 132,-1,0
 542.212 160 542.212 160 548.384 195 c 132,-1,1
408.77 373 m 21,8,9
 451.943 391 451.943 391 496.943 391 c 4,10,11
 579.943 391 579.943 391 627.305 333.5 c 132,-1,12
 674.666 276 674.666 276 660.972 195.5 c 132,-1,13
 647.277 115 647.277 115 579.139 57.5 c 132,-1,14
 511 0 511 0 428.5 0 c 132,-1,15
 346 0 346 0 298.139 57.5 c 132,-1,16
 250.277 115 250.277 115 264.561 196 c 14,17,-1
 364.714 764 l 13,18,-1
 224.714 764 l 5,19,20
 248.165 897 248.165 897 333.914 1009 c 132,-1,21
 419.662 1121 419.662 1121 545.389 1187.5 c 132,-1,22
 671.114 1254 671.114 1254 805.114 1254 c 260,23,24
 939.114 1254 939.114 1254 1040.89 1187.5 c 132,-1,25
 1142.66 1121 1142.66 1121 1189.41 1009 c 132,-1,26
 1236.17 897 1236.17 897 1212.71 764 c 6,27,-1
 981.373 -548 l 5,28,-1
 868.373 -548 l 5,29,-1
 1099.71 764 l 6,30,31
 1117.88 867 1117.88 867 1082.04 953 c 132,-1,32
 1046.2 1039 1046.2 1039 967.284 1090.5 c 132,-1,33
 888.365 1142 888.365 1142 785.365 1142 c 260,34,35
 681.365 1142 681.365 1142 583.784 1090.5 c 132,-1,36
 486.204 1039 486.204 1039 440.271 977 c 132,-1,37
 394.339 915 394.339 915 373.463 876 c 13,38,-1
 610.463 876 l 5,39,-1
 590.714 764 l 5,40,-1
 477.714 764 l 21,41,-1
 408.77 373 l 21,8,9
EndSplineSet
EndChar
StartChar: uni0E25
Encoding: 3621 3621 160
Width: 1263
VWidth: 2045
Flags: W
HStem: 0 112<407.35 499.65> 279 112<407.35 499.65> 752 112<499.1 727.9> 1142 112<458.8 727.9>
VStem: 100 113<764 897.9> 255 113<149.5 240.5 373 546.937> 539 113<149.5 240.5> 975 113<0 477 686 867>
Fore
573.384 195 m 132,-1,1
 579.555 230 579.555 230 558.875 254.5 c 132,-1,2
 538.195 279 538.195 279 502.695 279 c 132,-1,3
 467.195 279 467.195 279 437.875 254.5 c 132,-1,4
 408.556 230 408.556 230 402.384 195 c 132,-1,5
 396.212 160 396.212 160 416.98 136 c 132,-1,6
 437.749 112 437.749 112 473.249 112 c 132,-1,7
 508.749 112 508.749 112 537.98 136 c 132,-1,0
 567.212 160 567.212 160 573.384 195 c 132,-1,1
1095.96 686 m 4,8,-1
 1109.71 764 l 6,9,10
 1127.88 867 1127.88 867 1092.04 953 c 132,-1,11
 1056.2 1039 1056.2 1039 977.284 1090.5 c 132,-1,12
 898.365 1142 898.365 1142 795.365 1142 c 260,13,14
 691.365 1142 691.365 1142 595.284 1090.5 c 156,-1,15
 499.204 1039 499.204 1039 432.54 953 c 132,-1,16
 365.875 867 365.875 867 347.714 764 c 13,17,-1
 234.714 764 l 21,18,19
 258.165 897 258.165 897 343.914 1009 c 156,-1,20
 429.662 1121 429.662 1121 555.389 1187.5 c 132,-1,21
 681.114 1254 681.114 1254 815.114 1254 c 260,22,23
 949.114 1254 949.114 1254 1050.89 1187.5 c 132,-1,24
 1152.66 1121 1152.66 1121 1199.41 1009 c 132,-1,25
 1246.17 897 1246.17 897 1222.71 764 c 6,26,-1
 1088 0 l 5,27,-1
 975 0 l 5,28,-1
 1040.59 372 l 6,29,30
 1059.11 477 1059.11 477 1023.27 563 c 132,-1,31
 987.437 649 987.437 649 908.517 700.5 c 132,-1,32
 829.598 752 829.598 752 726.598 752 c 260,33,34
 646.598 752 646.598 752 578.224 696 c 156,-1,35
 509.85 640 509.85 640 482.301 566 c 132,-1,36
 454.753 492 454.753 492 434.123 375 c 6,37,-1
 433.77 373 l 21,38,39
 476.943 391 476.943 391 521.943 391 c 4,40,41
 604.943 391 604.943 391 652.805 333.5 c 132,-1,42
 700.666 276 700.666 276 686.472 195.5 c 132,-1,43
 672.277 115 672.277 115 604.139 57.5 c 132,-1,44
 536 0 536 0 453.5 0 c 132,-1,45
 371 0 371 0 323.139 57.5 c 132,-1,46
 275.277 115 275.277 115 289.561 196 c 14,47,-1
 321.123 375 l 6,48,49
 354.272 563 354.272 563 427.345 674 c 132,-1,50
 500.417 785 500.417 785 586.882 824.5 c 132,-1,51
 673.347 864 673.347 864 746.347 864 c 260,52,53
 880.347 864 880.347 864 966.473 808 c 132,-1,54
 1052.6 752 1052.6 752 1095.96 686 c 4,8,-1
EndSplineSet
EndChar
StartChar: uni0E26
Encoding: 3622 3622 161
Width: 1373
VWidth: 2045
Flags: W
HStem: 0 112<248.5 339.5> 279 112<248.5 339.5> 764 112<338 378 491 604> 1142 112<567.8 836.9>
VStem: 96 113<149.5 240.5> 378 113<149.5 240.5 373 764> 1084 113<-548 897.9>
Fore
243.384 195 m 128,-1,1
 249.556 230 249.556 230 278.875 254.5 c 128,-1,2
 308.195 279 308.195 279 343.195 279 c 128,-1,3
 378.195 279 378.195 279 398.375 254.5 c 128,-1,4
 418.556 230 418.556 230 412.384 195 c 128,-1,5
 406.212 160 406.212 160 377.48 136 c 128,-1,6
 348.749 112 348.749 112 313.749 112 c 128,-1,7
 278.749 112 278.749 112 257.98 136 c 128,-1,0
 237.212 160 237.212 160 243.384 195 c 128,-1,1
625.714 764 m 25,8,-1
 738.714 764 l 1,9,-1
 758.463 876 l 1,10,-1
 492.463 876 l 17,11,12
 512.339 915 512.339 915 558.771 977 c 128,-1,13
 605.204 1039 605.204 1039 702.784 1090.5 c 128,-1,14
 800.365 1142 800.365 1142 904.365 1142 c 256,15,16
 1007.37 1142 1007.37 1142 1086.28 1090.5 c 128,-1,17
 1165.2 1039 1165.2 1039 1201.04 953 c 128,-1,18
 1236.88 867 1236.88 867 1218.71 764 c 2,19,-1
 987.373 -548 l 5,20,-1
 1100.37 -548 l 5,21,-1
 1331.71 764 l 2,22,23
 1355.17 897 1355.17 897 1308.41 1009 c 128,-1,24
 1261.66 1121 1261.66 1121 1159.89 1187.5 c 128,-1,25
 1058.11 1254 1058.11 1254 924.114 1254 c 256,26,27
 790.114 1254 790.114 1254 664.889 1187.5 c 128,-1,28
 539.662 1121 539.662 1121 453.414 1009 c 128,-1,29
 367.165 897 367.165 897 343.714 764 c 1,30,-1
 512.714 764 l 25,31,-1
 443.77 373 l 1,32,33
 406.943 391 406.943 391 361.943 391 c 0,34,35
 280.943 391 280.943 391 212.805 333.5 c 128,-1,36
 144.666 276 144.666 276 130.472 195.5 c 128,-1,37
 116.277 115 116.277 115 164.139 57.5 c 128,-1,38
 212 0 212 0 293.5 0 c 128,-1,39
 375 0 375 0 443.139 57.5 c 128,-1,40
 511.277 115 511.277 115 525.561 196 c 2,41,-1
 625.714 764 l 25,8,-1
EndSplineSet
EndChar
StartChar: uni0E27
Encoding: 3623 3623 162
Width: 1122
VWidth: 2045
Flags: W
HStem: 0 112<706.5 797.5> 279 112<706.5 797.5> 1142 112<377.8 674.2>
VStem: 102 113<834 980.9> 555 113<149.5 240.5> 837 113<149.5 240.5 373 981.5>
Fore
702.384 195 m 128,-1,1
 696.212 160 696.212 160 716.48 136 c 128,-1,2
 736.749 112 736.749 112 771.749 112 c 128,-1,3
 806.749 112 806.749 112 835.98 136 c 128,-1,4
 865.212 160 865.212 160 871.384 195 c 128,-1,5
 877.555 230 877.555 230 856.875 254.5 c 128,-1,6
 836.195 279 836.195 279 801.195 279 c 128,-1,7
 766.195 279 766.195 279 737.375 254.5 c 128,-1,0
 708.555 230 708.555 230 702.384 195 c 128,-1,1
983.704 832 m 2,8,9
 1006.45 961 1006.45 961 931.908 1051.5 c 128,-1,10
 857.365 1142 857.365 1142 727.365 1142 c 128,-1,11
 597.365 1142 597.365 1142 490.908 1051.5 c 128,-1,12
 384.45 961 384.45 961 362.057 834 c 9,13,-1
 249.057 834 l 17,14,15
 268.981 947 268.981 947 342.997 1043.5 c 128,-1,16
 417.013 1140 417.013 1140 525.063 1197 c 128,-1,17
 633.114 1254 633.114 1254 747.114 1254 c 128,-1,18
 861.114 1254 861.114 1254 948.563 1197 c 128,-1,19
 1036.01 1140 1036.01 1140 1076.5 1043.5 c 128,-1,20
 1116.98 947 1116.98 947 1096.7 832 c 2,21,-1
 984.561 196 l 2,22,23
 970.277 115 970.277 115 902.139 57.5 c 128,-1,24
 834 0 834 0 752.5 0 c 128,-1,25
 671 0 671 0 623.139 57.5 c 128,-1,26
 575.277 115 575.277 115 589.472 195.5 c 128,-1,27
 603.666 276 603.666 276 671.805 333.5 c 128,-1,28
 739.943 391 739.943 391 821.943 391 c 0,29,30
 867.943 391 867.943 391 902.77 373 c 1,31,-1
 983.704 832 l 2,8,9
EndSplineSet
EndChar
StartChar: uni0E28
Encoding: 3624 3624 163
Width: 1301
VWidth: 2045
Flags: W
HStem: 0 21G<171 284 1018 1131> 547 115<602.5 693.5> 828 111<602.5 693.5> 1142 112<522.3 779.7>
VStem: 171 113<290 906> 733 112<699.65 789.35> 1018 113<0 895.6> 1043 113<1198.1 1332>
Fore
1091.67 1036 m 1,0,1
 1065.49 1069 1065.49 1069 1027.55 1092 c 0,2,3
 951.365 1142 951.365 1142 852.365 1142 c 128,-1,4
 753.365 1142 753.365 1142 659.226 1093 c 128,-1,5
 565.085 1044 565.085 1044 501.773 960 c 128,-1,6
 438.463 876 438.463 876 420.83 776 c 2,7,-1
 335.135 290 l 1,8,-1
 606.883 816 l 2,9,10
 625.701 849 625.701 849 664.521 882 c 0,11,12
 732.571 939 732.571 939 813.571 939 c 0,13,14
 964.571 939 964.571 939 1091.67 1036 c 1,0,1
1179.66 1121 m 1,15,16
 1257.06 1214 1257.06 1214 1277.87 1332 c 1,17,-1
 1390.87 1332 l 1,18,19
 1372.71 1229 1372.71 1229 1316.31 1136 c 0,20,21
 1282.08 1078 1282.08 1078 1239.15 1033 c 9,22,-1
 1245.97 1015 l 0,23,24
 1290.75 906 1290.75 906 1267.83 776 c 2,25,-1
 1131 0 l 1,26,-1
 1018 0 l 1,27,-1
 1154.83 776 l 2,28,29
 1171.05 868 1171.05 868 1142.98 947 c 1,30,31
 1077.69 900 1077.69 900 999.052 868 c 0,32,33
 979.817 861 979.817 861 961.76 855 c 1,34,35
 987.296 807 987.296 807 976.011 743 c 0,36,37
 961.729 662 961.729 662 893.59 604.5 c 128,-1,38
 825.451 547 825.451 547 744.451 547 c 128,-1,39
 663.451 547 663.451 547 615.502 604 c 0,40,41
 610.56 610 610.56 610 607.441 615 c 1,42,-1
 284 0 l 1,43,-1
 171 0 l 1,44,-1
 307.83 776 l 2,45,46
 330.752 906 330.752 906 414.061 1015.5 c 128,-1,47
 497.368 1125 497.368 1125 619.741 1189.5 c 128,-1,48
 742.114 1254 742.114 1254 872.114 1254 c 128,-1,49
 1002.11 1254 1002.11 1254 1101.65 1189 c 0,50,51
 1146.54 1160 1146.54 1160 1179.66 1121 c 1,15,16
695.275 744.5 m 128,-1,53
 689.192 710 689.192 710 709.46 686 c 128,-1,54
 729.729 662 729.729 662 764.729 662 c 128,-1,55
 799.729 662 799.729 662 828.96 686 c 128,-1,56
 858.192 710 858.192 710 864.275 744.5 c 128,-1,57
 870.358 779 870.358 779 849.679 803.5 c 128,-1,58
 828.999 828 828.999 828 793.999 828 c 128,-1,59
 758.999 828 758.999 828 730.179 803.5 c 128,-1,52
 701.358 779 701.358 779 695.275 744.5 c 128,-1,53
EndSplineSet
EndChar
StartChar: uni0E29
Encoding: 3625 3625 164
Width: 1483
VWidth: 2045
Flags: W
HStem: 0 112<277 390 503 1122> 432 150<731.35 896> 749 112<731.35 823.65> 861 112<260.35 352.65> 1142 112<260.35 352.65>
VStem: 108 113<1012.65 1102.35> 390 113<112 879 1012.65 1102.35> 579 113<620.5 711.5> 863 113<620.5 711.5> 1122 113<112 492 879 1254>
Fore
1337.8 583 m 9,0,-1
 1235 0 l 9,1,-1
 277 0 l 5,2,-1
 296.749 112 l 5,3,-1
 409.749 112 l 21,4,-1
 544.991 879 l 4,5,6
 502.817 861 502.817 861 456.817 861 c 4,7,8
 375.817 861 375.817 861 327.956 918.5 c 132,-1,9
 280.095 976 280.095 976 294.466 1057.5 c 132,-1,10
 308.836 1139 308.836 1139 376.976 1196.5 c 132,-1,11
 445.114 1254 445.114 1254 526.614 1254 c 132,-1,12
 608.114 1254 608.114 1254 655.976 1196.5 c 132,-1,13
 703.836 1139 703.836 1139 689.378 1057 c 6,14,-1
 522.749 112 l 5,15,-1
 1141.75 112 l 17,16,-1
 1208.75 492 l 17,17,18
 1094.17 432 1094.17 432 972.173 432 c 0,19,20
 820.173 432 820.173 432 749.399 498.5 c 128,-1,21
 678.625 565 678.625 565 694.582 655.5 c 128,-1,22
 710.54 746 710.54 746 778.679 803.5 c 128,-1,23
 846.817 861 846.817 861 929.317 861 c 128,-1,24
 1011.82 861 1011.82 861 1059.68 803.5 c 128,-1,25
 1107.54 746 1107.54 746 1093.26 665 c 0,26,27
 1081.44 598 1081.44 598 1029.45 547 c 1,28,29
 1136.04 556 1136.04 556 1233.09 630 c 9,30,-1
 1343.11 1254 l 9,31,-1
 1456.11 1254 l 17,32,-1
 1389.99 879 l 9,33,-1
 1502.99 879 l 17,34,35
 1481.13 755 1481.13 755 1403.67 656 c 0,36,37
 1373.62 616 1373.62 616 1337.8 583 c 9,0,-1
407.466 1057.5 m 132,-1,39
 401.383 1023 401.383 1023 421.975 998 c 132,-1,40
 442.566 973 442.566 973 478.066 973 c 132,-1,41
 513.566 973 513.566 973 541.975 998 c 132,-1,42
 570.383 1023 570.383 1023 576.466 1057.5 c 132,-1,43
 582.549 1092 582.549 1092 562.957 1117 c 132,-1,44
 543.365 1142 543.365 1142 507.865 1142 c 132,-1,45
 472.365 1142 472.365 1142 442.957 1117 c 132,-1,38
 413.549 1092 413.549 1092 407.466 1057.5 c 132,-1,39
809.434 666 m 128,-1,47
 803.263 631 803.263 631 823.942 606.5 c 128,-1,48
 844.622 582 844.622 582 880.122 582 c 128,-1,49
 915.622 582 915.622 582 944.942 606.5 c 128,-1,50
 974.263 631 974.263 631 980.434 666 c 128,-1,51
 986.605 701 986.605 701 965.837 725 c 128,-1,52
 945.069 749 945.069 749 909.569 749 c 128,-1,53
 874.069 749 874.069 749 844.837 725 c 128,-1,46
 815.605 701 815.605 701 809.434 666 c 128,-1,47
EndSplineSet
EndChar
StartChar: uni0E2A
Encoding: 3626 3626 165
Width: 1263
VWidth: 2045
Flags: W
HStem: 0 112<417.35 509.65> 279 112<417.35 509.65> 1142 112<468.8 737.9>
VStem: 110 113<764 897.9> 265 113<149.5 240.5 373 546.937> 549 113<149.5 240.5> 985 113<0 477 686 853.953> 1055 113<1203.65 1311>
Fore
583.384 195 m 128,-1,1
 589.555 230 589.555 230 568.875 254.5 c 128,-1,2
 548.195 279 548.195 279 512.695 279 c 128,-1,3
 477.195 279 477.195 279 447.875 254.5 c 128,-1,4
 418.556 230 418.556 230 412.384 195 c 128,-1,5
 406.212 160 406.212 160 426.98 136 c 128,-1,6
 447.749 112 447.749 112 483.249 112 c 128,-1,7
 518.749 112 518.749 112 547.98 136 c 128,-1,0
 577.212 160 577.212 160 583.384 195 c 128,-1,1
756.347 864 m 0,8,9
 878.347 864 878.347 864 991.75 923 c 0,10,11
 1042.51 950 1042.51 950 1086.68 985 c 1,12,13
 1051.14 1050 1051.14 1050 988.373 1091 c 0,14,15
 908.365 1142 908.365 1142 805.365 1142 c 256,16,17
 701.365 1142 701.365 1142 605.284 1090.5 c 152,-1,18
 509.204 1039 509.204 1039 442.54 953 c 128,-1,19
 375.875 867 375.875 867 357.714 764 c 9,20,-1
 244.714 764 l 17,21,22
 268.165 897 268.165 897 353.914 1009 c 152,-1,23
 439.662 1121 439.662 1121 565.389 1187.5 c 128,-1,24
 691.114 1254 691.114 1254 825.114 1254 c 256,25,26
 959.114 1254 959.114 1254 1060.3 1187 c 0,27,28
 1131.37 1142 1131.37 1142 1175.02 1072 c 9,29,-1
 1185.49 1086 l 0,30,31
 1264.65 1189 1264.65 1189 1286.17 1311 c 9,32,-1
 1399.17 1311 l 17,33,34
 1385.59 1234 1385.59 1234 1352.98 1162.5 c 128,-1,35
 1320.37 1091 1320.37 1091 1273.44 1029 c 0,36,37
 1248.97 998 1248.97 998 1223.04 970 c 1,38,39
 1252.29 875 1252.29 875 1232.71 764 c 2,40,-1
 1098 0 l 1,41,-1
 985 0 l 1,42,-1
 1050.59 372 l 2,43,44
 1069.11 477 1069.11 477 1033.27 563 c 128,-1,45
 997.437 649 997.437 649 918.517 700.5 c 128,-1,46
 839.598 752 839.598 752 736.598 752 c 256,47,48
 656.598 752 656.598 752 588.224 696 c 152,-1,49
 519.85 640 519.85 640 492.301 566 c 128,-1,50
 464.753 492 464.753 492 444.123 375 c 2,51,-1
 443.77 373 l 17,52,53
 486.943 391 486.943 391 531.943 391 c 0,54,55
 614.943 391 614.943 391 662.805 333.5 c 128,-1,56
 710.666 276 710.666 276 696.472 195.5 c 128,-1,57
 682.277 115 682.277 115 614.139 57.5 c 128,-1,58
 546 0 546 0 463.5 0 c 128,-1,59
 381 0 381 0 333.139 57.5 c 128,-1,60
 285.277 115 285.277 115 299.561 196 c 10,61,-1
 331.123 375 l 2,62,63
 364.272 563 364.272 563 437.345 674 c 128,-1,64
 510.417 785 510.417 785 596.882 824.5 c 128,-1,65
 683.347 864 683.347 864 756.347 864 c 0,8,9
1122.52 882 m 1,66,67
 1080.23 852 1080.23 852 1035 828 c 0,68,69
 1009.53 814 1009.53 814 983.767 804 c 9,70,-1
 991.709 798 l 0,71,72
 1062.6 752 1062.6 752 1105.96 686 c 0,73,-1
 1119.71 764 l 2,74,75
 1130.47 825 1130.47 825 1122.52 882 c 1,66,67
EndSplineSet
EndChar
StartChar: uni0E2B
Encoding: 3627 3627 166
Width: 1338
VWidth: 2045
Flags: W
HStem: 0 21G<343 456 1079 1192> 831 142<949.35 1037.2> 861 112<212.5 303.5> 1142 112<212.5 303.5 949.35 1041.65>
VStem: 61 113<1012.65 1102.35> 343 113<218 879 1012.65 1102.35> 799 113<1012.65 1102.35> 1079 113<0 757 1012.65 1102.35>
Fore
1264.99 896 m 1,0,1
 1272.58 888 1272.58 888 1281.82 878 c 0,2,3
 1335.35 813 1335.35 813 1318.78 719 c 2,4,-1
 1192 0 l 1,5,-1
 1079 0 l 1,6,-1
 1205.43 717 l 18,7,8
 1212.48 757 1212.48 757 1190 794 c 128,-1,9
 1167.53 831 1167.53 831 1113.53 831 c 24,10,11
 1067.53 831 1067.53 831 1041.83 810 c 0,12,13
 1015.77 787 1015.77 787 994.656 758 c 2,14,-1
 456 0 l 1,15,-1
 343 0 l 1,16,-1
 497.991 879 l 0,17,18
 456.817 861 456.817 861 410.817 861 c 0,19,20
 328.817 861 328.817 861 280.956 918.5 c 128,-1,21
 233.095 976 233.095 976 247.466 1057.5 c 128,-1,22
 261.836 1139 261.836 1139 329.976 1196.5 c 128,-1,23
 398.114 1254 398.114 1254 479.614 1254 c 128,-1,24
 561.114 1254 561.114 1254 608.976 1196.5 c 128,-1,25
 656.836 1139 656.836 1139 642.378 1057 c 2,26,-1
 494.439 218 l 1,27,-1
 899.767 804 l 2,28,29
 934.407 853 934.407 853 962.815 878 c 0,30,31
 990.694 900 990.694 900 1021.34 915 c 9,32,-1
 1018.87 918 l 0,33,34
 971.095 976 971.095 976 985.466 1057.5 c 128,-1,35
 999.836 1139 999.836 1139 1067.98 1196.5 c 128,-1,36
 1136.11 1254 1136.11 1254 1216.61 1254 c 128,-1,37
 1297.11 1254 1297.11 1254 1344.98 1196.5 c 128,-1,38
 1392.84 1139 1392.84 1139 1378.47 1057.5 c 128,-1,39
 1364.09 976 1364.09 976 1295.87 918 c 0,40,41
 1281.75 906 1281.75 906 1264.99 896 c 1,0,1
1098.47 1057.5 m 128,-1,43
 1092.38 1023 1092.38 1023 1111.97 998 c 128,-1,44
 1131.57 973 1131.57 973 1167.07 973 c 128,-1,45
 1202.57 973 1202.57 973 1230.97 998 c 128,-1,46
 1259.38 1023 1259.38 1023 1265.47 1057.5 c 128,-1,47
 1271.55 1092 1271.55 1092 1251.96 1117 c 128,-1,48
 1232.37 1142 1232.37 1142 1196.87 1142 c 128,-1,49
 1161.37 1142 1161.37 1142 1132.96 1117 c 128,-1,42
 1104.55 1092 1104.55 1092 1098.47 1057.5 c 128,-1,43
360.466 1057.5 m 128,-1,51
 354.383 1023 354.383 1023 374.475 998 c 128,-1,52
 394.566 973 394.566 973 429.566 973 c 128,-1,53
 464.566 973 464.566 973 493.975 998 c 128,-1,54
 523.383 1023 523.383 1023 529.466 1057.5 c 128,-1,55
 535.549 1092 535.549 1092 514.957 1117 c 128,-1,56
 494.365 1142 494.365 1142 459.365 1142 c 128,-1,57
 424.365 1142 424.365 1142 395.457 1117 c 128,-1,50
 366.549 1092 366.549 1092 360.466 1057.5 c 128,-1,51
EndSplineSet
EndChar
StartChar: uni0E2C
Encoding: 3628 3628 167
Width: 1445
VWidth: 2045
Flags: W
HStem: 0 21G<345 458 1177 1290> 861 112<212.5 303.5> 1142 112<212.5 303.5> 1229 112<1046.5 1137.5> 1509 112<1046.5 1137.5>
VStem: 61 111<1012.65 1102.35> 345 113<350 881 1012.65 1102.35> 893 113<1379.65 1469.35> 1177 113<350 1248>
AnchorPoint: "AboveBase" 1080.42 1423.95 basechar 0
Fore
1257.18 1424.5 m 128,-1,1
 1251.09 1390 1251.09 1390 1272.27 1365.5 c 128,-1,2
 1293.45 1341 1293.45 1341 1328.45 1341 c 128,-1,3
 1363.45 1341 1363.45 1341 1392.77 1365.5 c 128,-1,4
 1422.09 1390 1422.09 1390 1428.18 1424.5 c 128,-1,5
 1434.26 1459 1434.26 1459 1413.67 1484 c 128,-1,6
 1393.08 1509 1393.08 1509 1358.08 1509 c 128,-1,7
 1323.08 1509 1323.08 1509 1293.17 1484 c 128,-1,0
 1263.26 1459 1263.26 1459 1257.18 1424.5 c 128,-1,1
1521.17 1311 m 25,8,-1
 1290 0 l 9,9,-1
 1177 0 l 17,10,-1
 1003.91 1060 l 25,11,-1
 458 0 l 9,12,-1
 345 0 l 25,13,-1
 500.344 881 l 1,14,15
 456.817 861 456.817 861 410.817 861 c 0,16,17
 328.817 861 328.817 861 280.956 918.5 c 128,-1,18
 233.095 976 233.095 976 247.466 1057.5 c 128,-1,19
 261.836 1139 261.836 1139 329.976 1196.5 c 128,-1,20
 398.114 1254 398.114 1254 479.614 1254 c 128,-1,21
 561.114 1254 561.114 1254 609.299 1195.5 c 128,-1,22
 657.483 1137 657.483 1137 643.849 1054 c 2,23,-1
 519.715 350 l 25,24,-1
 985.114 1254 l 9,25,-1
 1092.11 1254 l 17,26,-1
 1238.71 350 l 17,27,-1
 1397.06 1248 l 0,28,29
 1353.71 1229 1353.71 1229 1308.71 1229 c 0,30,31
 1225.71 1229 1225.71 1229 1177.84 1286.5 c 128,-1,32
 1129.98 1344 1129.98 1344 1144.27 1425 c 128,-1,33
 1158.55 1506 1158.55 1506 1226.69 1563.5 c 128,-1,34
 1294.83 1621 1294.83 1621 1376.33 1621 c 128,-1,35
 1457.83 1621 1457.83 1621 1507.42 1562 c 16,36,37
 1550.25 1510 1550.25 1510 1544.09 1441 c 9,38,-1
 1644.43 1494 l 9,39,-1
 1684.33 1397 l 17,40,-1
 1521.17 1311 l 25,8,-1
358.466 1057.5 m 128,-1,42
 352.383 1023 352.383 1023 373.475 998 c 128,-1,43
 394.566 973 394.566 973 429.566 973 c 128,-1,44
 464.566 973 464.566 973 493.475 998 c 128,-1,45
 522.383 1023 522.383 1023 528.466 1057.5 c 128,-1,46
 534.549 1092 534.549 1092 514.457 1117 c 128,-1,47
 494.365 1142 494.365 1142 459.365 1142 c 128,-1,48
 424.365 1142 424.365 1142 394.457 1117 c 128,-1,41
 364.549 1092 364.549 1092 358.466 1057.5 c 128,-1,42
EndSplineSet
EndChar
StartChar: uni0E2D
Encoding: 3629 3629 168
Width: 1230
VWidth: 2045
Flags: W
HStem: 0 112<427 970> 468 112<468.5 559.5> 749 112<468.5 559.5> 1142 112<454.1 723.2>
VStem: 95 113<764 897.9> 314 116<112 488 619.65 709.35> 598 112.5<619.65 709.35> 970 113<112 867>
Fore
1083 0 m 9,0,-1
 314 0 l 13,1,-1
 430.729 662 l 22,2,3
 445.363 745 445.363 745 515.091 803 c 132,-1,4
 584.817 861 584.817 861 665.817 861 c 132,-1,5
 746.817 861 746.817 861 794.179 803.5 c 132,-1,6
 841.54 746 841.54 746 827.669 664.5 c 132,-1,7
 813.799 583 813.799 583 745.66 525.5 c 132,-1,8
 677.521 468 677.521 468 594.521 468 c 4,9,10
 550.521 468 550.521 468 513.048 488 c 5,11,-1
 446.749 112 l 29,12,-1
 989.749 112 l 17,13,-1
 1104.71 764 l 2,14,15
 1122.88 867 1122.88 867 1086.54 953 c 128,-1,16
 1050.2 1039 1050.2 1039 971.784 1090.5 c 128,-1,17
 893.365 1142 893.365 1142 789.365 1142 c 256,18,19
 686.365 1142 686.365 1142 590.284 1090.5 c 152,-1,20
 494.204 1039 494.204 1039 427.04 953 c 128,-1,21
 359.875 867 359.875 867 342.714 764 c 9,22,-1
 229.714 764 l 17,23,24
 253.165 897 253.165 897 338.914 1009 c 152,-1,25
 424.662 1121 424.662 1121 549.889 1187.5 c 128,-1,26
 675.114 1254 675.114 1254 809.114 1254 c 256,27,28
 944.114 1254 944.114 1254 1045.89 1187.5 c 128,-1,29
 1147.66 1121 1147.66 1121 1193.91 1009 c 128,-1,30
 1240.17 897 1240.17 897 1217.71 764 c 2,31,-1
 1083 0 l 9,0,-1
715.169 664.5 m 132,-1,33
 721.253 699 721.253 699 701.161 724 c 132,-1,34
 681.069 749 681.069 749 646.069 749 c 132,-1,35
 611.069 749 611.069 749 582.161 724 c 132,-1,36
 553.253 699 553.253 699 547.169 664.5 c 132,-1,37
 541.086 630 541.086 630 561.178 605 c 132,-1,38
 581.27 580 581.27 580 616.27 580 c 132,-1,39
 651.27 580 651.27 580 680.178 605 c 132,-1,32
 709.086 630 709.086 630 715.169 664.5 c 132,-1,33
EndSplineSet
EndChar
StartChar: uni0E2E
Encoding: 3630 3630 169
Width: 1192
VWidth: 2045
Flags: W
HStem: 0 112<299 880> 402 112<340.5 431.5> 680 111.5<340.5 431.5> 882 103<374.744 628.6>
VStem: 149 122<1006.15 1108.85> 186 116<112 420 551.65 641.35> 470 112.5<551.65 641.35> 880 113<112 899.2>
Fore
986.095 976 m 0,0,1
 898.279 926 898.279 926 827.752 906 c 0,2,3
 747.521 882 747.521 882 625.521 882 c 128,-1,4
 503.521 882 503.521 882 412.572 930.5 c 128,-1,5
 321.624 979 321.624 979 335.73 1059 c 128,-1,6
 349.836 1139 349.836 1139 469.887 1196 c 0,7,8
 589.762 1252 589.762 1252 711.585 1251 c 0,9,10
 900.232 1249 900.232 1249 958.771 1184 c 0,11,12
 1016.66 1121 1016.66 1121 1032.19 1124 c 0,13,14
 1063.25 1130 1063.25 1130 1146.35 1261 c 1,15,-1
 1233.47 1205 l 1,16,17
 1141.13 1118 1141.13 1118 1087.26 1045 c 0,18,19
 1082.73 1042 1082.73 1042 1104.91 1009 c 0,20,21
 1154.75 923 1154.75 923 1127.71 764 c 2,22,-1
 993 0 l 9,23,-1
 186 0 l 1,24,-1
 290.738 594 l 6,25,26
 305.373 677 305.373 677 374.924 734 c 132,-1,27
 444.475 791 444.475 791 525.562 791.5 c 132,-1,28
 606.651 792 606.651 792 654.012 734.5 c 132,-1,29
 701.373 677 701.373 677 687.768 597 c 132,-1,30
 674.161 517 674.161 517 606.022 459.5 c 132,-1,31
 537.884 402 537.884 402 454.884 402 c 4,32,33
 410.884 402 410.884 402 373.058 420 c 5,34,-1
 318.749 112 l 1,35,-1
 899.749 112 l 1,36,-1
 1014.71 764 l 2,37,38
 1033.05 868 1033.05 868 997.04 953 c 0,39,40
 988.095 976 988.095 976 986.095 976 c 0,0,1
929.849 1054 m 0,41,42
 912.022 1072 912.022 1072 889.491 1086 c 0,43,44
 815.778 1133 815.778 1133 692.365 1142 c 256,45,46
 615.07 1146 615.07 1146 539.751 1121.5 c 128,-1,47
 464.431 1097 464.431 1097 457.466 1057.5 c 128,-1,48
 450.501 1018 450.501 1018 528.415 1000.5 c 128,-1,49
 606.329 983 606.329 983 673.682 985 c 0,50,51
 772.682 985 772.682 985 839.914 1009 c 0,52,53
 881.559 1024 881.559 1024 929.849 1054 c 0,41,42
575.179 596.5 m 132,-1,55
 581.263 631 581.263 631 561.082 655.5 c 132,-1,56
 540.902 680 540.902 680 505.902 680 c 132,-1,57
 470.902 680 470.902 680 442.082 655.5 c 132,-1,58
 413.263 631 413.263 631 407.179 596.5 c 132,-1,59
 401.096 562 401.096 562 421.364 538 c 132,-1,60
 441.632 514 441.632 514 476.632 514 c 132,-1,61
 511.632 514 511.632 514 540.364 538 c 132,-1,54
 569.096 562 569.096 562 575.179 596.5 c 132,-1,55
EndSplineSet
EndChar
